<?xml version="1.0" encoding="utf-8"?>
<!-- Generator: Adobe Illustrator 16.0.0, SVG Export Plug-In . SVG Version: 6.00 Build 0)  -->
<!DOCTYPE svg PUBLIC "-//W3C//DTD SVG 1.1//EN" "http://www.w3.org/Graphics/SVG/1.1/DTD/svg11.dtd">
<svg version="1.1" id="图层_1" xmlns="http://www.w3.org/2000/svg" xmlns:xlink="http://www.w3.org/1999/xlink" x="0px" y="0px"
	 width="249.736px" height="123.58px" viewBox="0 0 249.736 123.58" enable-background="new 0 0 249.736 123.58"
	 xml:space="preserve">
<g>
	<path fill="#249009" d="M193.218,53.97c0.035,0.386,0.106,0.777-0.172,1.114c-0.242,0.084-0.33,0.233-0.2,0.475
		c0.633,1.224,0.055,2.437-0.136,3.607c-0.673,4.121-1.922,8.075-3.933,11.755c-0.413,0.756-0.309,1.011,0.543,1.128
		c7.546,1.033,15.059,2.272,22.561,3.588c7.316,1.284,14.599,2.729,21.866,4.261c1.262,0.267,2.518,0.564,3.776,0.846
		c-0.111,0.589-0.576,0.479-0.97,0.482c-0.683,0.004-1.366-0.01-2.049-0.017c-3.478-0.488-6.955-0.984-10.433-1.466
		c-8.387-1.159-16.792-2.144-25.218-2.983c-7.872-0.783-15.752-1.452-23.646-1.977c-10.438-0.695-20.886-1.156-31.343-1.473
		c-19.221-0.583-38.43-0.297-57.622,0.771c-11.224,0.625-22.435,1.492-33.628,2.586c-11.188,1.093-22.36,2.313-33.508,3.747
		c-4.265,0.548-8.519,1.179-12.779,1.764c-0.548,0.075-1.103,0.1-1.654,0.149c-0.615-0.268-1.5,0.517-1.923-0.496
		c11.292-3.271,22.697-6.078,34.211-8.455c5.374-1.109,10.754-2.162,16.161-3.094c0.588-0.101,1.185-0.144,1.779-0.214
		c0.776-0.145,1.73,0.557,2.316-0.488l0.018-0.015c0.137-0.075,0.367-0.127,0.391-0.228c0.064-0.276-0.186-0.315-0.391-0.357
		l-0.008-0.029c-0.033-0.394,0.106-0.854-0.409-1.063c-0.034-0.082-0.069-0.164-0.104-0.246c0.312-0.084,0.564-0.335,0.379-0.594
		c-0.627-0.878-0.563-1.9-0.791-2.869c-0.202-0.852-0.309-1.901-1.269-2.417c-0.017-0.097-0.034-0.193-0.051-0.289
		c0.036-0.059,0.031-0.115-0.014-0.166c-0.066-0.311-0.131-0.622-0.197-0.932c0.248-0.218,0.188-0.396-0.069-0.552
		c-0.057-0.082-0.07-0.169-0.038-0.264c0.37-0.377,0.567-0.833,0.43-1.347c-0.326-1.228,0.419-2.305,0.37-3.501
		c0.571,0.729,0.185,1.573,0.439,2.338c0.333-0.12,0.633-0.374,1.021-0.282c0.055,0.083,0.06,0.169,0.013,0.257
		c-0.51,0.944-0.22,1.765,0.391,2.536c0.533,2.907,1.351,5.726,2.463,8.468c0.347,0.857,0.806,1.078,1.668,0.948
		c2.962-0.447,5.926-0.884,8.9-1.245c5.215-0.634,10.428-1.31,15.685-1.508c-0.421,2.21-0.421,2.207,1.825,2.203
		c2.486-0.004,4.973,0.006,7.459-0.004c2.641-0.01,2.641-0.017,2.661-2.704c1.36-0.031,2.72-0.063,4.081-0.095
		c0.097-0.001,0.193-0.002,0.289-0.003c0.268-0.008,0.536-0.015,0.804-0.022c0.689,0.014,1.389,0.113,2.064,0.023
		c1.368-0.182,1.991,0.258,1.728,1.705c-0.148,0.814,0.203,1.142,1.068,1.114c1.748-0.057,3.498-0.016,5.247-0.015
		c2.536,0.001,2.536,0.001,2.596-2.497c4.342,0.293,8.685,0.587,13.026,0.88c0.334,0.609,0.929,0.439,1.461,0.525
		c1.166,0.19,2.434-0.493,3.525,0.543c0.413,0.392,0.698-0.417,1.116-0.555c0.373-0.123,0.403-0.564,0.338-0.825
		c-0.122-0.493-0.592-0.206-0.915-0.251l0.001,0.001c0.009-0.382,0.02-0.764,0.029-1.146c0.274,0.001,0.548,0.002,0.821,0.003
		c0.324,0.555,0.948,0.713,1.447,0.977c2.931,1.546,5.746,0.441,6.947-2.61c0.397-1.008,0.531-2.035,0.562-3.095
		c0.03-0.027,0.09-0.062,0.086-0.08c-0.018-0.068-0.056-0.131-0.087-0.195c-0.036-0.432-0.073-0.864-0.109-1.296
		c0.44-0.331,0.144-1.578,1.287-1.033c0,0-0.011,0.032-0.011,0.032c0.006,1.086-0.832,1.97-0.678,3.12
		c0.108,0.804,0.871,1.417,0.605,2.3c-0.271,1.856-1.579,3.1-2.881,4.527c4.111,0.282,7.995,0.548,12.239,0.839
		c-1.241-1.278-1.967-2.432-2.386-3.76c-0.092-0.293-0.257-0.499-0.563-0.533c-1.615-0.185-2.208-1.045-1.76-2.617
		c0.037-0.129,0.012-0.276,0.016-0.415c0.041-0.287-0.032-0.511-0.339-0.604c0,0-0.053-0.069-0.052-0.069
		c0.403-1.129-0.749-1.567-1.065-2.377c-0.101-0.257-0.601-0.507,0.096-0.617c0.181,0.013,0.362,0.025,0.543,0.039
		c0.179,0.242,0.373,0.245,0.58,0.036c0.178-0.079,0.357-0.158,0.536-0.236c0.098-0.036,0.197-0.073,0.295-0.109
		c0.085,0.025,0.174,0.04,0.263,0.045c0.07,0.493,0.306,0.865,0.824,0.938c0.228,0.031,0.252-0.218,0.273-0.396
		c0.068-0.608-0.501-0.54-0.808-0.75c-0.075-0.052-0.153-0.098-0.229-0.147c-0.027-0.267-0.053-0.533-0.08-0.799
		c0.857,0.651,2.359,0.646,2.281,2.246c-0.001,0.167-0.003,0.335-0.003,0.502c-0.03,0.395,0.155,0.578,0.548,0.556
		c0.671,0.179,0.655,0.701,0.61,1.234c0.036,0.148,0.071,0.296,0.106,0.444c-0.19,0.036-0.362,0.162-0.309,0.333
		c0.035,0.11,0.269,0.158,0.414,0.233c0.121,0.271,0.172,0.624-0.099,0.74c-1.107,0.477-0.881,1.194-0.43,1.981
		c-0.026,0.238-0.048,0.474,0.215,0.609c0.329,1.159,1.05,2.042,1.969,2.785c1.459,1.491,1.652,1.491,2.224-0.001
		c0.034-0.065,0.087-0.089,0.159-0.072c0.282,0.094,0.655,0.079,0.582,0.56c-0.076,0.493,0.231,0.62,0.644,0.625
		c8.111,0.623,16.24,1.073,24.292,2.301c1.05,0.161,1.48-0.241,1.925-1.065c2.559-4.737,4.092-9.769,4.477-15.144
		c0.141-0.331,0.397-0.658,0.406-0.992c0.07-2.849,0.389-5.725-0.734-8.472c-0.03-0.54-0.06-1.079-0.09-1.619
		c0.093-0.358-0.125-0.771,0.184-1.13c0.208,1.038,0.914,1.915,0.68,3.021c-0.083,0.389,0.238,0.645,0.574,0.618
		c1.376-0.111,1.178,0.926,1.365,1.74C193.24,50.14,192.849,52.082,193.218,53.97z M191.798,50.459
		c0.133-0.988,0.358-1.978-0.122-3.234C191.3,48.762,191.324,49.515,191.798,50.459z M56.113,61.596
		c0.277-0.634,0.365-1.262-0.037-2.168C55.746,60.36,55.74,60.979,56.113,61.596z M55.648,58.788
		c0.075,0.033,0.149,0.066,0.224,0.098c0.033-0.074,0.107-0.165,0.086-0.22c-0.02-0.053-0.154-0.112-0.206-0.091
		C55.698,58.597,55.681,58.712,55.648,58.788z"/>
	<path fill="#232323" d="M91.578,105.968c3.092-0.175,5.868-0.208,8.617-0.612c1.113-0.164,2.09-0.383,2.376-1.841
		c0.211-1.074,1.228-1.344,2.223-0.844c2.316,1.162,3.655,3.228,4.709,5.467c0.45,0.957-0.512,1.843-1.536,1.602
		c-0.878-0.208-1.721-0.455-2.141-1.344c-0.367-0.778-1.026-0.515-1.569-0.432c-1.415,0.215-2.843,0.422-4.22,0.8
		c-3.743,1.027-7.635,0.717-11.416,1.366c-1.043,0.179-2.085,0.307-3.075,0.768c-1.194,0.556-2.671,0.224-3.128-0.651
		c-0.63-1.208,0.005-2.143,0.831-2.953c1.177-1.152,2.67-1.801,4.131-2.5c0.888-0.424,1.852-0.782,2.529-1.94
		c-2.698-0.009-5.128,0.302-7.536,0.856c-1.033,0.238-2.023,0.647-3.109,0.671c-1.139,0.026-2.259-0.315-2.768-1.242
		c-0.527-0.962-0.044-2.086,0.578-2.993c0.544-0.793,1.344-1.265,2.285-1.454c2.787-0.56,5.579-1.104,8.369-1.652
		c0.135-0.026,0.279-0.01,0.415-0.039c2.982-0.611,3.985-1.766,3.929-4.811c-0.027-1.471-0.234-2.943-0.657-4.378
		c-0.293-0.994-0.725-1.383-1.881-1.232c-3.386,0.442-6.72,0.294-9.661-1.781c-0.614-0.433-1.671-0.795-1.401-1.65
		c0.255-0.809,1.045-1.266,2.138-1.387c2.467-0.274,4.877-0.953,7.402-0.898c1.25,0.027,0.945-1.014,0.794-1.757
		c-0.368-1.814-0.195-2.035,1.63-1.811c1.363,0.167,2.581,0.765,3.699,1.494c2.385,1.553,4.982,1.351,7.635,1.229
		c2.151-0.098,4.24,0.373,5.719,2.143c0.745,0.892,0.229,1.664-0.581,2.211c-1.26,0.852-2.73,1.103-4.196,1.306
		c-1.19,0.164-2.391,0.255-3.588,0.365c-0.742,0.069-1.15,0.315-1.084,1.204c0.063,0.838,0.167,1.646,0.412,2.447
		c0.351,1.146,0.718,2.28,0.73,3.512c0.011,1.13,0.521,1.801,1.831,1.577c2.438-0.417,4.881-0.744,7.361-0.276
		c1.967,0.37,3.542,1.524,5.191,2.522c0.608,0.368,0.993,1.014,0.864,1.776c-0.145,0.851-0.826,1.163-1.577,1.357
		c-0.996,0.257-1.993,0.418-3.009,0.109c-0.455-0.138-0.955-0.208-1.36,0.022c-2.425,1.379-5.151,1.103-7.76,1.463
		c-1.602,0.222-3.209,0.413-4.805,0.671c-1.48,0.239-2.341,1.384-3.29,2.385C92.346,105.108,92.078,105.416,91.578,105.968z"/>
	<path fill="#232323" d="M146.527,95.09c1.499,0.097,2.494,1.169,3.556,1.996c1.305,1.015,2.383,1.316,3.712,0.079
		c1.329-1.237,3.214-1.8,4.179-3.523c0.326-0.582,0.923-1.102,1.704-0.395c0.632,0.573,1.052,1.096,0.325,1.932
		c-0.351,0.403-0.556,0.962-0.728,1.483c-0.186,0.563-0.604,0.996-1.081,0.91c-1.844-0.33-2.806,1.359-4.549,1.682
		c1.019,0.86,2.052,1.219,3.024,1.679c2.383,1.126,4.774,2.245,6.819,3.942c1.576,1.308,1.621,1.865,0.694,3.668
		c-0.269,0.523-0.573,0.561-1.079,0.59c-4.345,0.25-7.994-1.465-11.291-4.055c-0.941-0.739-1.596-0.754-2.255,0.175
		c-1.989,2.807-4.85,3.99-8.126,4.411c-0.687,0.088-1.59,0.275-1.841-0.497c-0.292-0.898-0.994-2.066-0.1-2.856
		c1.487-1.315,1.785-3.054,2.211-4.791c0.032-0.133,0.131-0.257,0.14-0.389c0.044-0.711,1.045-1.404,0.174-2.103
		c-0.476-0.382-2.602,0.387-2.969,1.011c-0.657,1.12-1.383,2.184-2.16,3.222c-1.789,2.388-4.431,3.386-7.07,4.393
		c-0.196,0.074-0.446,0.01-0.763,0.01c-0.073-0.58,0.091-1.093,0.414-1.419c1.451-1.463,2.442-3.356,4.248-4.493
		c0.771-0.485,1.964-1.107,1.714-1.932c-0.205-0.678-1.557-0.235-2.398-0.246c-1.17-0.014-1.997,0.405-2.685,1.521
		c-1.112,1.804-2.375,3.477-3.018,5.562c-0.397,1.29-1.746,1.842-2.827,2.53c-0.412,0.262-0.727,0.052-0.712-0.453
		c0.015-0.515,0.162-0.99,0.49-1.414c1.155-1.496,1.67-3.263,2.074-5.066c0.088-0.395,0.171-0.928-0.017-1.226
		c-0.997-1.581-0.2-3.282-0.408-4.911c-0.127-0.997-0.16-1.763-1.514-1.688c-0.695,0.038-1.447-0.282-2.116-0.571
		c-1.007-0.436-1.16-1.247-0.688-2.184c0.51-1.011,2.434-1.808,3.576-1.565c1.402,0.297,2.753-0.17,4.117-0.376
		c2.717-0.412,5.424-0.186,8.115,0.16c1.076,0.138,2.389,0.453,2.497,1.801c0.096,1.212-0.983,1.865-1.988,2.231
		c-1.971,0.719-3.957,1.59-6.139,0.775c-0.208-0.077-0.46-0.083-0.685-0.059c-0.344,0.036-0.8-0.039-0.817,0.511
		c-0.016,0.514,0.401,0.602,0.76,0.622c1.895,0.1,3.791,0.207,5.687,0.221c0.565,0.004,1.102-0.002,1.606,0.247
		c1.027,0.509,1.533,0.067,1.813-0.92c0.238-0.839,0.509-1.659,1.575-1.831c0.495-0.081,0.533-0.611,0.626-0.983
		c0.662-2.627,2.112-5.042,2.115-7.853c0-0.267,0.303-0.533,0.498-0.852c-1.36-0.185-2.289,0.556-3.139,1.415
		c-0.853,0.863-1.786,1.398-3.065,1.32c-0.859-0.053-1.621-0.213-1.879-1.088c-0.255-0.863-0.577-1.893,0.254-2.581
		c2.188-1.813,3.993-3.978,5.842-6.104c0.49-0.564,0.852-0.227,1.104,0.136c0.311,0.447,0.613,0.97,0.691,1.494
		c0.193,1.291,0.948,1.506,2.106,1.525c2.857,0.048,5.7,0.432,8.567-0.095c1.839-0.338,3.57,0.271,5.114,1.307
		c0.499,0.333,0.963,0.771,0.882,1.468c-0.088,0.762-0.694,1.056-1.309,1.284c-0.563,0.208-1.151,0.323-1.766,0.285
		c-3.277-0.204-6.569-0.139-9.832-0.616c-0.801-0.117-1.64-0.216-2.551,0.184c0.664,0.705,1.301,1.295,1.836,1.966
		c1.29,1.618,1.711,3.363,0.522,5.236c-0.69,1.088-0.938,2.42-1.88,3.365c-0.306,0.306-0.185,0.568,0.089,0.813
		c-0.281-0.057-0.45,0.104-0.519,0.333c-0.526,1.752-1.179,3.484-1.495,5.274c-0.167,0.942,0.259,1.99,0.43,2.987
		c0.037,0.212,0.051,0.443,0.355,0.512c0.463,0.104,3.352-0.804,3.461-1.209c0.218-0.806-0.515-1.277-0.859-1.871
		c-0.461-0.795-0.984-1.553-1.307-2.424C146.174,97.518,146.045,96.313,146.527,95.09z"/>
	<path fill="#232323" d="M184.493,87.426c0.65-0.993,1.466-1.144,2.401-1.069c0.919,0.073,1.857,0.235,2.764-0.008
		c0.877-0.235,1.314-0.651,0.483-1.532c-0.417-0.441-1.3-0.893-1.024-1.473c0.324-0.683,1.315-0.543,2.038-0.588
		c1.712-0.106,2.894,0.943,2.764,2.68c-0.09,1.199,0.324,1.667,1.398,1.831c0.407,0.062,0.794,0.248,1.201,0.323
		c0.635,0.116,1.44,0.466,1.88,0.21c0.632-0.367,0.005-1.145-0.041-1.749c-0.133-1.751,1.099-2.678,2.776-2.089
		c0.893,0.313,1.632,0.872,2.306,1.506c1.184,1.118,2.521,1.781,4.186,1.898c1.627,0.114,3.166,0.636,4.519,1.597
		c0.672,0.477,1.237,1.047,0.983,1.957c-0.257,0.921-1.072,1.058-1.873,1.136c-1.029,0.101-2.046-0.089-3.019-0.354
		c-0.735-0.2-1.437-0.279-2.183-0.214c-0.627,0.056-1.163,0.01-1.792-0.387c-0.95-0.598-2.099-0.727-2.999,0.343
		c-0.551,0.657-1.146,1.276-1.659,2.084c1.137-0.332,2.087-0.18,3.147,0.227c1.142,0.438,2.47,0.193,3.716,0.072
		c1.201-0.117,2.405-0.207,3.597,0.031c1.367,0.272,1.65,1.042,0.823,2.18c-0.47,0.647-1.106,1.12-1.778,1.532
		c-0.748,0.458-1.529,0.862-2.288,1.303c-1.736,1.008-1.855,1.321-0.619,2.925c1.012,1.312,1.808,2.641,1.959,4.342
		c0.087,0.974,1.032,1.229,1.794,1.521c1.042,0.399,1.575,1.064,1.469,2.212c-0.083,0.893-0.44,1.538-1.425,1.511
		c-1.337-0.038-2.111,0.791-2.832,1.719c-0.462,0.595-0.931,1.144-1.724,1.306c-2.439,0.497-4.862,1.132-7.367,1.174
		c-1.917,0.032-2.89-0.656-3.07-2.021c-0.077-0.579-0.096-0.931,0.761-0.734c1.588,0.363,3.227,0.2,4.839,0.056
		c0.584-0.052,1.164-0.282,1.718-0.5c0.603-0.236,1.353-0.544,1.284-1.273c-0.07-0.747-0.912-0.426-1.388-0.523
		c-1.901-0.384-3.867-0.299-5.768-0.742c-0.775-0.18-1.686-0.264-2.025-1.032c-0.475-1.076-0.93-0.528-1.352-0.099
		c-1.172,1.191-2.632,1.865-4.169,2.391c-1.621,0.556-3.615-0.377-4.134-1.889c-0.135-0.394-0.255-0.865,0.003-1.206
		c0.334-0.439,0.629,0.102,0.951,0.167c0.701,0.14,1.423,0.047,1.994-0.315c1.689-1.073,3.192-2.366,4.239-4.118
		c0.48-0.803,0.451-1.268-0.658-1.229c-1.343,0.046-2.67-0.226-3.993-0.3c-1.126-0.063-1.764,1.03-2.058,2.076
		c-0.595,2.11-1.434,4.103-2.77,5.846c-0.754,0.984-1.703,1.71-3.087,1.412c-0.904-0.195-1.249-0.581-0.811-1.553
		c0.414-0.916,1.118-1.577,1.701-2.342c1.644-2.157,2.728-4.583,3.592-7.135c0.348-1.029,0.589-2.15,1.557-2.865
		c0.134-0.1,0.282-0.316,0.266-0.462c-0.229-2.179,0.869-4.029,1.519-5.974c0.432-1.294-0.019-1.785-1.175-2.204
		c-1.041-0.378-1.775-0.721-2.892,0.175c-1.354,1.086-2.596,0.71-3.977-0.48c-1.51-1.303-2.997-2.625-4.135-4.281
		c-0.51-0.74-0.913-1.507-0.382-2.439c0.533-0.938,1.384-1.163,2.358-1.134c2.283,0.067,4.239,0.706,5.513,2.83
		C183.218,84.829,183.889,85.976,184.493,87.426z M198.693,94.017c-2.448-0.025-2.92-0.83-1.66-2.928
		c0.559-0.93-0.102-0.918-0.62-1.006c-1.445-0.245-2.851,0.362-4.273,0.286c-1.147-0.062-1.269,0.634-1.152,1.35
		c0.314,1.918-0.693,3.235-1.845,4.512c-0.301,0.333-0.833,0.587-0.721,1.074c0.097,0.416,0.629,0.52,1.032,0.579
		c2.318,0.348,4.526,1.213,6.871,1.434c1.667,0.156,2.331,1.46,1.396,2.841c-0.488,0.722-1.17,1.31-1.702,2.007
		c-0.416,0.545-0.988,1.094-0.601,1.948c0.841-0.354,1.568-0.612,2.442-0.157c1.827,0.952,3.837,0.887,5.821,0.788
		c0.557-0.027,1.213-0.237,0.956-1.015c-0.566-1.71-1.045-3.503-2.989-4.272c-0.706-0.279-0.824-1.183-0.198-1.68
		c0.311-0.247,0.735-0.363,1.122-0.504c1.375-0.501,2.523-1.307,3.447-2.538c-1.73,0.062-3.424-0.185-5.062,0.349
		c-0.977,0.317-1.858,0.09-2.566-0.543c-0.712-0.636-0.211-1.357,0.108-2.022C198.573,94.363,198.624,94.197,198.693,94.017z"/>
	<path fill="#3DAB38" d="M125.035,35.104c-0.023,0.658,0.49,1.059,0.755,1.579c0.758,1.485,1.061,2.979,0.042,4.483
		c-0.152-0.982-0.589-1.204-1.532-0.755c-0.887,0.421-2,0.567-2.792,0.007c-1.971-1.393-4.256-2.056-6.47-2.694
		c-3.823-1.104-7.623-2.191-11.176-4.018c-0.281-0.145-0.607-0.207-0.917-0.288c-1.91-0.498-3.858-0.875-5.685-1.649
		c-0.637-0.269-1.531-0.635-0.123-1.176c0.396-0.152,0.34-0.506,0.351-0.822c0.026-0.82-0.125-1.662,0.473-2.387
		c0.161-0.194,0.151-0.578-0.103-0.76c-0.331-0.236-0.615-0.043-0.817,0.248c-0.231,0.336-0.387,0.595-0.939,0.616
		c-2.324,0.09-4.479,1.012-6.595,1.813c-3.038,1.15-6.049,2.361-9.167,3.279c-1.336,0.393-2.512,0.882-2.397,2.593
		c-0.18-0.008-0.378-0.068-0.541-0.018c-1.778,0.548-2.819,0.224-3.82-1.305c-1.32-2.017-0.9-4.013,0.172-5.972
		c0.304-0.556,0.852-0.984,0.874-1.687c0.731,0.229,1.503,0.167,2.155-0.103c1.236-0.51,2.414-1.123,3.815-1.019
		c0.485,0.036,0.74-0.308,0.779-0.79c1.947-0.223,3.895,0.699,5.841-0.004c0.275,0.352,0.726,0.373,1.015,0.237
		c1.533-0.721,3.356-0.393,4.81-1.362c1.916-0.814,3.913-1.409,5.607-2.747c0.873-0.688,1.814-1.332,2.734-1.982
		c0.869-0.604,1.956-0.457,2.913-0.718c-0.117-0.576-0.937-0.197-0.842-0.825c0.04-0.264,0.182-0.538,0.484-0.617
		c0.547-0.144,0.687,0.198,0.833,0.646c0.196,0.603,0.758,0.425,1.18,0.36c0.529-0.083,0.273-0.449,0.179-0.744
		c-0.088-0.276-0.43-0.633,0.042-0.809c0.37-0.138,0.86-0.213,1.175,0.114c0.274,0.286-0.026,0.571-0.173,0.858
		c-0.183,0.359-0.734,0.679-0.237,1.183c-0.037,0.271-0.074,0.543-0.111,0.814c-0.146,0.095-0.292,0.19-0.438,0.286
		c0.078,0.198,0.156,0.396,0.234,0.594c-0.802,0.344-1.649,0.446-2.512,0.519c-1.353,0.114-2.568,1.35-2.765,2.749
		c-1.021,0.557-0.312,1.52-0.528,2.264c-1.521,1.232-1.667,1.995-0.384,2.68c1.939,1.035,3.955,1.926,5.938,2.877
		c0.234,0.009,0.451,0.054,0.565,0.293c0.015,0.273-0.035,0.616,0.265,0.734c2.737,1.085,5.414,2.352,8.474,2.32
		c2.243-0.023,4.523-0.291,6.693,0.564C123.229,34.907,124.083,35.23,125.035,35.104z"/>
	<path fill="#232323" d="M32.855,107.438c-2.001,0.257-3.284-0.85-4.219-2.58c-0.38-0.705-0.549-1.401-0.028-2.061
		c0.515-0.65,1.243-0.266,1.772-0.076c1.026,0.367,2.039,0.56,3.104,0.394c1.01-0.157,1.471-0.501,1.432-1.806
		c-0.081-2.802-0.896-5.35-1.963-7.859c-0.499-1.173-1.248-2.134-2.613-2.469c-1.805-0.442-2.71-2.128-4.12-3.128
		c-0.348-0.247-0.561-0.795-0.37-1.262c0.224-0.548,0.787-0.402,1.224-0.384c1.173,0.047,2.274-0.263,3.405-0.508
		c2.278-0.495,4.574-0.939,6.885-1.238c2.157-0.279,3.96,0.635,5.507,2.104c0.615,0.584,0.659,1.263,0.16,1.852
		c-0.769,0.907-1.435,1.943-2.54,2.512c-0.659,0.338-0.953,0.856-0.849,1.581c0.175,1.222-0.119,2.329-0.657,3.427
		c-0.813,1.66,0.911,4.985,2.732,5.242c1.033,0.146,1.771,0.789,2.51,1.353c0.579,0.442,0.59,1.257-0.026,1.831
		c-0.64,0.596-1.314,1.164-2.022,1.676c-0.59,0.426-0.767,1.011-0.499,1.572c0.331,0.693,0.862,0.082,1.308,0.003
		c0.482-0.085,1.048-0.588,1.415-0.167c0.308,0.355-0.096,0.943-0.222,1.417c-0.229,0.86-0.838,1.423-1.598,1.82
		c-3.64,1.899-7.445,3.434-11.212,5.052c-0.44,0.189-0.876,0.286-1.344,0.227c-0.892-0.115-1.823-0.271-2.074-1.299
		c-0.234-0.964,0.587-1.388,1.241-1.787c0.823-0.503,1.671-1.015,2.577-1.325c1.218-0.416,1.921-1.409,2.817-2.186
		c0.493-0.428,0.347-1.025,0.215-1.562c-0.174-0.711-0.75-0.303-1.154-0.357C33.425,107.413,33.19,107.438,32.855,107.438z"/>
	<path fill="#D73B3C" d="M163.311,11.744c3.903-0.979,7.227-0.155,9.732,3.157c2.046,2.706,2.168,6.594,0.325,9.521
		c-1.833,2.909-5.512,4.549-8.724,3.888c-3.556-0.732-6.246-3.423-6.897-6.774c-0.479-2.469,0.18-4.653,1.425-6.736
		C160.322,13.47,161.707,12.458,163.311,11.744z"/>
	<path fill="#232323" d="M52.757,106.066c0.036,3.503-0.165,3.854-3.095,4.847c-1.673,0.567-3.179,1.467-4.784,2.163
		c-0.378,0.164-0.766,0.336-1.167,0.409c-0.445,0.081-0.982,0.163-1.204-0.391c-0.207-0.516,0.144-0.87,0.511-1.178
		c0.897-0.753,1.949-1.276,3.019-1.67c3.161-1.165,3.171-3.776,3.003-6.418c-0.048-0.757,0.538-1.737-0.114-2.197
		c-0.499-0.351-1.427-0.08-2.164-0.109c-2.063-0.084-3.243-1.528-2.894-3.524c0.255-1.458,1.269-1.874,2.372-0.97
		c0.502,0.412,1.029,0.521,1.671,0.302c3.27-1.114,6.52-2.293,9.939-2.911c1.361-0.247,2.675-0.183,3.967,0.231
		c0.716,0.23,1.396,0.661,1.488,1.491c0.099,0.885-0.443,1.498-1.196,1.86c-0.662,0.317-1.364,0.561-2.065,0.781
		c-0.999,0.313-1.49,0.955-1.604,2.002c-0.231,2.138,0.274,4.239,0.244,6.369c-0.013,0.886,0.721,1.221,1.548,1.24
		c1.658,0.038,3.206-0.453,4.665-1.156c1.034-0.499,1.007-1.564,0.989-2.555c-0.014-0.765-0.462-1.9,0.137-2.198
		c0.718-0.356,1.108,0.865,1.743,1.274c0.385,0.248,0.698,0.605,1.062,0.888c2.312,1.796,2.057,4.214-0.608,5.404
		c-1.184,0.528-2.416,0.847-3.758,0.8c-1.052-0.038-2.121,0.131-3.168,0.295c-1.268,0.197-2.5,0.05-3.709-0.275
		c-1.052-0.283-1.689-0.95-1.978-2.08c-0.579-2.261-0.056-4.387,0.522-6.535c0.176-0.655,0.833-1.526-0.08-1.942
		c-0.763-0.347-1.206,0.48-1.698,1.068C53.116,102.861,52.605,104.51,52.757,106.066z"/>
	<path fill="#2FA83B" d="M77.944,35.172c-0.116-1.71,1.06-2.2,2.396-2.593c3.118-0.917,6.129-2.129,9.167-3.279
		c2.117-0.801,4.271-1.723,6.595-1.813c0.552-0.021,0.708-0.28,0.939-0.616c0.202-0.292,0.486-0.484,0.817-0.249
		c0.254,0.182,0.263,0.566,0.104,0.76c-0.598,0.726-0.447,1.567-0.473,2.387c-0.01,0.316,0.045,0.67-0.351,0.822
		c-1.409,0.541-0.514,0.907,0.123,1.176c1.827,0.774,3.774,1.152,5.685,1.649c0.311,0.081,0.637,0.143,0.917,0.287
		c3.553,1.827,7.353,2.915,11.176,4.018c2.214,0.639,4.499,1.301,6.469,2.694c0.793,0.561,1.905,0.415,2.792-0.007
		c0.943-0.448,1.38-0.228,1.532,0.755c-0.625,1.031-1.457,1.655-2.718,1.228c-0.468-0.158-0.726,0.011-0.883,0.376
		c-0.742,1.722-2.083,2.003-3.727,1.597c0,0,0.058-0.098,0.059-0.098c-0.228-0.833-0.792-1.24-1.598-1.551
		c-1.591-0.613-3.332-0.826-4.832-1.575c-1.309-0.653-2.499-1.562-4.017-1.575c-0.921-0.007-1.678-0.36-2.503-0.662
		c-3.59-1.309-7.195-2.583-10.83-3.76c-0.698-0.226-1.203-0.303-1.201-1.156c0.001-0.646-0.544-1.076-1.003-0.771
		c-1.76,1.169-3.963,0.792-5.755,1.784c-0.598,0.331-1.194,0.683-1.94,0.665c-0.726-0.018-0.896,0.393-0.532,0.988
		c0.147,0.239,0.413,0.45,0.096,0.688c-0.308,0.231-0.466-0.139-0.686-0.266c-1.302-0.751-2.636-0.411-3.244,0.82
		c-0.627,0.004-1.051-0.332-1.386-0.82c-0.086-0.826-0.081-1.708-1.18-1.907L77.944,35.172L77.944,35.172z"/>
	<path fill="#90C350" d="M76.083,17.252c0.883-0.933,2.107-1.377,3.092-2.165c0.524-1.438,0.113-3.008,0.698-4.519
		c0.337,0.625,0.908,0.752,1.528,0.577c1.062-0.303,2.11-0.656,3.165-0.987c2.415-0.757,4.648-2.004,7.119-2.619
		c1.242-0.309,2.688-0.405,3.636-1.128c1.042-0.796,1.731-1.17,2.74-0.217c0.381,0.609,1.028,0.445,1.584,0.546
		c1.536,0.015,2.873,0.632,4.167,1.378c0.361,1.304,1.553,2.281,1.473,3.758c-0.001,0.361,0.066,0.742-0.29,1
		c-0.026-0.32,0.021-0.671-0.096-0.953c-0.188-0.448-0.255-1.085-0.813-1.201c-0.67-0.139-0.768,0.541-0.994,0.958
		c-0.283,0.523-0.679,0.813-1.253,0.984c-1.585,0.472-3.162,0.974-4.725,1.515c-4.9,1.697-9.788,3.432-14.689,5.124
		c-2.676,0.924-5.307,2.074-8.241,1.878c0.312-1.311,1.133-2.393,1.627-3.622c0,0-0.017,0.026-0.017,0.026
		C75.89,17.475,75.986,17.363,76.083,17.252z"/>
	<path fill="#8B5743" d="M115.865,65.93c-0.06,2.498-0.06,2.499-2.596,2.497c-1.749,0-3.499-0.042-5.247,0.015
		c-0.865,0.028-1.216-0.3-1.068-1.114c0.263-1.446-0.36-1.886-1.728-1.705c-0.675,0.089-1.375-0.01-2.066-0.023
		c0.941-0.283,1.914-0.188,2.872-0.18c0.754,0.007,1.117-0.143,1.238-1.024c0.421-3.07,0.452-6.15,0.518-9.237
		c0.044-2.059-0.56-3.892-1.524-5.651c-0.906-1.651-1.813-3.301-2.721-4.951c1.279,0.696,2.029,1.949,3.061,2.906
		c-0.018,0.009-0.036,0.018-0.054,0.027c0.042,0.038,0.083,0.076,0.123,0.113l0.007-0.034c0.278,0.667,0.733,1.178,1.419,1.717
		c0.051-0.566,0.087-0.96,0.123-1.355c1.066-0.252,1.937,0.626,3.021,0.487c0.84-0.109,1.554-0.791,2.462-0.499
		c0.072,0.511-0.183,1.075,0.192,1.562c1.507-0.948,2.139-1.668,2.499-2.821c0.494-0.844,1.273-1.428,1.933-2.121l0.031,0.023
		c-0.312,2.258-1.538,3.995-3.155,5.502c-0.991,0.923-1.486,2.004-1.375,3.397c0.163,2.015-0.101,4.132,0.432,6.032
		C114.862,61.629,114.977,63.879,115.865,65.93z"/>
	<path fill="#57A442" d="M103.812,8.117c-1.294-0.746-2.63-1.363-4.166-1.378c3.436-1.277,7.05-1.737,10.647-2.158
		c8.936-1.046,17.894-1.03,26.829-0.008c6.847,0.782,13.557,2.23,19.993,4.78c0.21,0.083,0.435,0.128,0.653,0.19
		c0.415,0.308,0.874,0.507,1.386,0.582l-0.006-0.009c0.266,0.169,0.512,0.389,0.8,0.497c0.805,0.3,0.952,0.504,0.253,1.262
		c-1.022,1.111-1.961,0.532-2.974,0.219c-3.521-1.669-7.267-2.674-11.024-3.583c-8.205-1.987-16.549-2.816-24.989-2.572
		C115.347,6.106,109.532,6.749,103.812,8.117z"/>
	<path fill="#90C350" d="M101.344,22.833c0.196-1.399,1.412-2.634,2.765-2.749c0.862-0.073,1.709-0.174,2.512-0.519
		c0.413-0.022,0.814-0.07,1.203,0.178c1.132,0.721,2.438,1.021,3.682,1.471c2.457,0.89,4.942,1.709,7.357,2.699
		c0.793,0.325,1.378,0.896,1.697-0.393c0.943,1.003,0.191,2.268,0.799,3.236c0.105,0.448,0.505,0.449,0.838,0.59
		c1.715,0.729,2.837,1.947,3.083,3.858c-0.368,0.011-0.556,0.194-0.542,0.569l-0.004,0.003c-0.404-0.069-0.891-0.016-1.197-0.227
		c-2.379-1.635-5.269-1.722-7.876-2.653c-2.75-0.982-5.587-1.685-8.22-3.041c-1.31-0.674-2.792-1.332-4.315-1.273
		C101.727,24.636,101.157,24.215,101.344,22.833z"/>
	<path fill="#57A442" d="M140.802,44.956c0.705-1.543,1.666-2.561,3.556-1.818c0.622,0.244,0.948-0.175,1.146-0.689
		c0.381-0.99,0.77-1.937,1.502-2.774c0.558-0.638-0.12-1.337-0.598-1.721c-1.003-0.809-1.241-1.7-0.613-2.781
		c0.683-1.177,2.37-1.782,3.492-1.314c0.828,0.344,1.112,1.005,1.159,1.865c0.049,0.877,0.058,1.81,1.441,1.625
		c0.726-0.098,1.266,0.466,1.783,0.94c0.817,0.748,1.566,1.616,2.495,2.186c1.472,0.903,2.023,2.324,2.586,3.793
		c0.59,1.542-0.227,2.77-0.92,3.998c-0.216,0.382-0.778,0.216-1.177,0.208c-1.192-0.025-1.9,0.397-2.006,1.702
		c-0.06,0.723-0.357,1.428-0.547,2.141c-0.509-0.383,0.259-1.027-0.354-1.46c-1.113-0.786-1.202-1.28-0.58-2.314
		c0.354-0.59,0.773-1.141,1.116-1.737c0.496-0.862-0.41-1.068-0.769-1.523c-0.065-0.082-0.087-0.046-0.38,0.795
		c-0.069,0.198-0.258,0.415-0.448,0.5c-1.518,0.688-2.206,2.003-2.625,3.491c-0.218,0.771-0.398,0.041-0.592,0.037
		c0.628-1.294,0.53-3.003,2.203-3.708c0.313-0.132,0.881-0.366,0.73-0.858c-0.137-0.445-0.668-0.777-1.087-0.731
		c-1.81,0.199-3.677-0.394-5.438,0.389c0.05-0.169,0.045-0.415,0.158-0.496c1.182-0.849,1.376-1.957,0.539-3.333
		c-0.527,1.729-1.408,3.14-3.23,3.727c0.011-0.474,1.157-0.691,0.392-1.257c-0.372-0.276-1.101-0.292-1.509,0.206
		c-0.27,0.33-0.684,0.821-0.396,1.19c0.381,0.489,0.911,0.021,1.368-0.122c0.042-0.013,0.09-0.008,0.136-0.011
		c0.052,0.857-1.099,1.264-0.824,2.203c-0.174,0.019-0.347,0.038-0.52,0.057l-0.089-0.089
		C142.275,46.148,141.506,45.567,140.802,44.956z"/>
	<path fill="#A9D069" d="M98.061,6.193c-1.01-0.953-1.699-0.579-2.74,0.217c-0.948,0.724-2.394,0.819-3.636,1.128
		c-2.471,0.614-4.704,1.861-7.119,2.619c-1.055,0.331-2.103,0.684-3.165,0.987c-0.62,0.176-1.191,0.049-1.528-0.577
		c-0.585,1.511-0.174,3.08-0.698,4.519c-1.372-5.778,3.907-13.51,9.061-14.79C93.4-0.985,97.431,2.058,98.061,6.193z"/>
	<path fill="#A9D069" d="M121.359,26.757c-0.608-0.967,0.144-2.232-0.799-3.235c-0.318,1.288-0.904,0.717-1.697,0.393
		c-2.416-0.99-4.901-1.81-7.357-2.699c-1.244-0.45-2.55-0.75-3.682-1.471c-0.388-0.247-0.79-0.2-1.203-0.178
		c-0.078-0.197-0.156-0.395-0.235-0.593c0.186-0.036,0.413-0.007,0.439-0.286c0.038-0.271,0.074-0.543,0.112-0.815
		c0.656-0.672,1.326-1.333,1.675-2.234c0.18-0.023,0.404,0.014,0.534-0.08c3.028-2.19,6.841-0.677,9.271,1.947
		C120.794,20.072,122.124,23.12,121.359,26.757z"/>
	<path fill="#232323" d="M51.145,88.899c0.181-0.35,0.363-0.701,0.622-1.199c-1.715-0.123-3.302-0.206-4.881-0.359
		c-1.154-0.111-2.298-0.339-3.126-1.266c-0.348-0.39-0.562-0.886-0.402-1.407c0.192-0.629,0.754-0.375,1.183-0.377
		c1.485-0.008,2.894-0.352,4.338-0.696c3.634-0.867,7.34-0.583,11.014-0.182c0.843,0.092,1.473,0.879,1.677,1.672
		c0.167,0.647-0.459,1.167-0.979,1.554c-0.789,0.585-1.666,0.968-2.676,1.001c-2.301,0.076-4.758-0.582-6.607,1.685
		C51.253,89.184,51.199,89.042,51.145,88.899z"/>
	<path fill="#3C9923" d="M149.469,50.104c0.193,0.004,0.374,0.735,0.592-0.037c0.419-1.487,1.107-2.803,2.625-3.491
		c0.189-0.085,0.378-0.302,0.447-0.5c0.294-0.841,0.316-0.877,0.381-0.795c0.359,0.455,1.265,0.661,0.769,1.523
		c-0.342,0.596-0.761,1.147-1.115,1.737c-0.623,1.035-0.533,1.528,0.58,2.314c0.613,0.433-0.156,1.077,0.353,1.46
		c-0.055,0.206-0.111,0.41-0.167,0.616c-0.058,0.062-0.056,0.122,0.009,0.178c0.071,0.121,0.144,0.242,0.215,0.364
		c-0.008,0.52-0.897,0.835-0.41,1.424c0.36,0.436,0.927,0.149,1.407,0.132c0.068-0.007,0.113,0.022,0.132,0.087
		c0.071,0.164,0.162,0.192,0.279,0.042c2.864-0.719,5.398,2.089,6.121,5.101c0.77,3.206,0.277,6.178-1.958,8.734
		c-0.413-0.005-0.72-0.132-0.644-0.625c0.074-0.48-0.299-0.465-0.582-0.559c2.32-1.981,2.856-6.264,1.152-9.138
		c-0.542-0.916-1.335-1.536-2.325-1.855c-0.422-0.136-1.135-0.319-0.824,0.641c-0.146,0.15-0.292,0.301-0.438,0.45
		c-0.701-1.05-0.701-1.05-1.289-0.294c-0.218,0.107-0.288,0.297-0.297,0.522l-0.052,0.053c-0.443,0.092-0.888,0.185-1.331,0.276
		c0.079-1.601-1.424-1.596-2.281-2.246c-0.118,0.016-0.237,0.032-0.354,0.048c-0.53-1.393-1.058-2.786-1.587-4.178
		c0.045-0.523-0.222-0.475-0.557-0.305c-0.09,0.011-0.173-0.009-0.248-0.061c-0.031-0.595,0.625-0.409,0.833-0.731
		c0.101-0.111,0.203-0.223,0.304-0.333c0.064-0.128,0.127-0.256,0.19-0.385C149.383,50.2,149.407,50.145,149.469,50.104z
		 M151.889,49.891c-0.113-0.121-0.178-0.251-0.266-0.27c-0.104-0.021-0.288,0.02-0.331,0.095c-0.105,0.187,0.009,0.325,0.211,0.328
		C151.612,50.045,151.721,49.961,151.889,49.891z"/>
	<path fill="#3C9923" d="M56.925,56.77c-0.387-0.092-0.687,0.162-1.021,0.282c-0.255-0.765,0.131-1.609-0.439-2.338
		c0.05,1.196-0.695,2.273-0.369,3.501c0.137,0.514-0.061,0.969-0.431,1.347c-1.051-4.65-0.957-9.313-0.113-13.973
		c0.378-2.085,0.94-4.126,1.867-6.047c0.247-0.031,0.572,0.061,0.638-0.286c0.017-0.087-0.216-0.222-0.335-0.333
		c0.075-0.163,0.151-0.326,0.226-0.489c0.13,0.025,0.331,0.118,0.378,0.068c1.52-1.647,1.525-1.649,2.492,0.375
		c-0.632,1.829-1.319,3.634-1.835,5.506C56.862,48.454,56.847,52.604,56.925,56.77z M58.314,39.381
		c0.08-0.142,0.185-0.284,0.237-0.442c0.034-0.1,0.029-0.297-0.154-0.239c-0.1,0.032-0.163,0.204-0.224,0.322
		C58.112,39.143,58.075,39.275,58.314,39.381z"/>
	<path fill="#3C9923" d="M145.4,57.775c-1.143-0.544-0.847,0.703-1.287,1.033c-0.471-1.148-0.565-2.508-1.799-3.294
		c-1.004,1.561-1.3,3.354-2.172,4.918c-0.602,1.08-1.231,0.295-1.71,0.278c-0.715-0.024-0.392-0.779-0.238-1.218
		c0.474-1.345,1.013-2.668,1.497-4.01c0.312-0.863,0.16-1.585-0.858-1.793c-2.078-0.422-4.982,1.863-5.148,4.004
		c-0.151,1.939-0.185,3.866,0.534,5.723c-0.089-0.013-0.178-0.028-0.268-0.041c-0.534-0.071-0.127-1.116-0.755-0.879
		c-0.761,0.287-0.003,0.951-0.125,1.44c-0.04,0.163,0.044,0.356,0.072,0.536l-0.082,0.074c-1.438-2.468-1.594-4.961-0.719-7.735
		c0.526-1.671,1.22-2.984,2.627-3.952c0.399,0.026,0.811,0.075,0.878-0.491c0.138-0.037,0.276-0.074,0.416-0.111
		c1.526-0.125,3.062,0.24,4.584-0.088c0.063-0.062,0.138-0.106,0.222-0.135c0.638-0.565,0.638-0.565,0.078-0.821
		c0.005-0.091,0.011-0.183,0.017-0.274c0.598-0.082,1.283,0.242,1.744-0.503c0.101-0.162,0.683-0.544,1.025,0
		c0.236,0.434,0.473,0.868,0.708,1.303c-0.469,0.106-1.119-0.212-1.304,0.558c-0.094,0.193-0.189,0.387-0.284,0.581
		c-0.337,0.287-0.396,0.564,0.026,0.826C144.184,54.872,145.05,56.176,145.4,57.775z M140.467,56.563
		c-0.598,0.957-1.039,1.957-1.1,3.088C139.936,58.691,140.433,57.707,140.467,56.563z M142.492,52.545
		c-0.05-0.273-0.161-0.457-0.354-0.356c-0.114,0.059-0.167,0.3-0.181,0.464c-0.015,0.172,0.06,0.395,0.294,0.267
		C142.38,52.849,142.436,52.64,142.492,52.545z M140.652,56.251c0.356-0.353,0.627-0.637,0.333-1.162
		C140.681,55.402,140.439,55.674,140.652,56.251z"/>
	<path fill="#3C9923" d="M193.218,53.97c-0.369-1.889,0.022-3.83-0.413-5.719c-0.188-0.814,0.011-1.851-1.365-1.74
		c-0.336,0.027-0.656-0.229-0.574-0.617c0.233-1.107-0.471-1.983-0.68-3.021c-0.308,0.36-0.09,0.772-0.183,1.13
		c-0.168-0.01-0.336-0.021-0.505-0.031l-0.009-0.03c-0.011-0.554,0.021-1.114-0.045-1.662c-0.129-1.074-0.578-2.001-1.425-2.71
		c-0.355-0.836-0.711-1.672-1.067-2.507c0-0.55,0.012-1.106-0.689-1.277c0,0-0.014-0.028-0.013-0.028
		c-0.048-1.131-0.348-2.117-1.507-2.605c-0.067-0.026-0.089-0.074-0.067-0.143c0.011-0.193-0.074-0.323-0.254-0.392
		c0,0,0.012,0.017,0.012,0.017c-0.075-0.108-0.15-0.216-0.226-0.324l-0.008-0.013c0.342-0.719,0.224-1.118-0.676-0.971
		c0,0-0.016-0.022-0.016-0.022c0.145-0.429-0.029-0.626-0.461-0.64c-0.422-0.254-0.622-0.675-0.823-1.095
		c0.035-0.641-0.084-1.156-0.901-1.102c-0.092-0.008-0.15-0.058-0.176-0.147c-0.012-0.235-0.113-0.394-0.367-0.418
		c-0.249-0.289-0.498-0.578-0.748-0.866c0.551-0.092,1.102-0.184,1.653-0.275l-0.003-0.004c0.16,1.292,1.871,1.708,1.475,3.315
		c0.158-0.054,0.314-0.109,0.471-0.164c0-0.586,0-1.172,0-1.759l0.002-0.002c0.111-0.141,0.222-0.283,0.333-0.424
		c0.07,0.07,0.141,0.14,0.21,0.21c-0.014,0.42,0.054,0.776,0.601,0.746l-0.008-0.01c0.084,0.104,0.168,0.209,0.252,0.313l0,0
		c0,0.251,0.054,0.463,0.356,0.496l-0.063,0.042l0.056-0.051c-0.077,0.405,0.093,0.608,0.503,0.611l-0.004-0.005
		c-0.023,0.342,0.114,0.559,0.47,0.605l0.039,0.042c-0.033,0.814,0.356,1.336,1.106,1.613l0.014,0.028
		c0.119,0.633-0.133,1.49,0.936,1.545c-0.08,0.354,0.032,0.583,0.413,0.64C192.407,40.549,193.78,47.042,193.218,53.97z
		 M184.4,30.353c-0.021-0.029-0.043-0.058-0.065-0.086c-0.027,0.024-0.054,0.048-0.08,0.072c0.035,0.037,0.071,0.074,0.107,0.111
		C184.375,30.417,184.388,30.385,184.4,30.353z"/>
	<path fill="#232323" d="M132.188,88.043c0.06-1.767-0.383-3.04-1.136-4.322c-1.128-1.926-1.225-4.109-0.751-6.275
		c0.263-1.201,0.742-1.313,1.868-0.773c2.731,1.309,4.299,3.319,4.295,6.467c-0.002,1.039-0.357,1.733-1.142,2.339
		C134.346,86.232,133.18,86.74,132.188,88.043z"/>
	<path fill="#9EA095" d="M60.424,121.383c6.924-1.663,13.64-2.756,20.459-3.226c2.715-0.188,5.421-0.493,8.132-0.729
		c0.503-0.044,1.029-0.096,1.516-0.001c0.475,0.092,1.113,0.239,1.115,0.857c0.001,0.591-0.586,0.835-1.076,0.912
		c-1.046,0.163-2.108,0.238-3.165,0.325c-8.779,0.717-17.559,1.429-26.339,2.133C60.956,121.662,60.837,121.561,60.424,121.383z"/>
	<path fill="#9EA095" d="M182.847,120.893c-1.944,0.566-3.853,0.121-5.769-0.001c-4.424-0.281-8.841-0.674-13.258-1.041
		c-3.177-0.264-6.35-0.563-9.525-0.833c-0.756-0.064-1.742-0.155-1.649-1.026c0.079-0.728,1.075-0.91,1.844-0.854
		c2.12,0.155,4.237,0.329,6.354,0.523c6.206,0.57,12.416,1.121,18.518,2.473C180.522,120.391,181.685,120.641,182.847,120.893z"/>
	<path fill="#3DAB38" d="M59.819,38.875c-0.967-2.024-0.972-2.023-2.492-0.376c-0.047,0.051-0.248-0.042-0.377-0.068
		c1.4-3.297,3.393-6.214,5.715-8.922c0.214-0.049,0.318-0.188,0.328-0.403c-0.018-0.066,0.007-0.104,0.075-0.114
		c0.816,0.021,1.186-0.347,1.025-1.176l-0.011,0.016c0.262-0.038,0.341-0.219,0.352-0.452c0.006-0.077,0.047-0.116,0.124-0.118
		c0.744-0.075,0.862,0.74,1.49,1.173c-0.008-0.903,0.237-1.678-0.857-1.833c-0.014-0.07,0.015-0.108,0.086-0.113
		c0.089-0.092,0.178-0.185,0.267-0.277l0.003-0.002c0.371-0.01,0.553-0.198,0.543-0.571l-0.005,0.005
		c0.377,0.009,0.565-0.174,0.564-0.552c0,0,0,0,0,0c0.09-0.097,0.181-0.194,0.271-0.291l-0.006,0.007
		c0.096-0.092,0.192-0.185,0.288-0.277l-0.002,0.001c0.291-0.039,0.625,0.146,0.862-0.169c-0.164-0.061-0.329-0.123-0.493-0.184
		c0.067-0.063,0.134-0.126,0.201-0.189c0.352-0.006,0.543-0.182,0.562-0.537l0.015-0.011c1.036-0.023,1.784-0.588,2.432-1.319
		c0.171-0.193,0.34-0.349,0.564-0.168c0.119,0.097,0.238,0.338,0.198,0.462c-0.125,0.384-0.086,0.94-0.484,1.105
		c-1.631,0.676-2.211,2.431-3.565,3.38c-0.443,0.311-0.653,0.769-0.526,1.332c-0.062,0.078-0.123,0.156-0.185,0.234
		c-0.294,0.007-0.395,0.192-0.416,0.452C63.777,31.971,61.549,35.26,59.819,38.875z"/>
	<path fill="#232323" d="M177.299,104.039c-1.334,0.195-2.438-0.363-3.511-1.037c-1.001-0.628-1.775-1.432-1.536-2.703
		c0.25-1.329,0.889-2.391,2.326-2.833c0.841-0.258,1.46,0.008,2.012,0.544c1.094,1.062,2.209,2.081,3.477,2.954
		c1.138,0.783,0.839,2.318-0.448,2.857C178.862,104.14,178.072,104.023,177.299,104.039z"/>
	<path fill="#9EA095" d="M136.658,122.581c-2.32,1.629-3.901,1.258-4.855-1.06c-0.211-0.513-0.534-0.688-0.982-0.84
		c-2.081-0.707-3.127-2.272-3.271-4.363c-0.141-2.038,0.667-3.72,2.557-4.69c1.886-0.968,3.742-0.886,5.441,0.458
		c1.636,1.294,1.94,3.094,1.64,4.999c-0.272,1.715-1.302,2.916-2.955,3.542c-0.514,0.194-1.331,0.117-1.06,1.07
		c0.234,0.824,0.897,0.942,1.638,0.973C135.373,122.692,135.888,122.119,136.658,122.581z M129.114,116.169
		c0.014,0.224-0.004,0.692,0.079,1.142c0.292,1.604,1.402,2.718,2.779,2.834c1.682,0.143,2.878-0.545,3.47-2.122
		c0.611-1.631,0.545-3.252-0.355-4.789c-0.674-1.151-2.031-1.691-3.323-1.339C130.029,112.37,129.137,113.729,129.114,116.169z"/>
	<path fill="#232323" d="M172.383,109.268c-0.608-0.068-1.293-0.149-1.98-0.219c-0.782-0.081-1.783-0.071-1.851-1.046
		c-0.073-1.057,0.516-2.045,1.609-2.325c1.167-0.299,2.372-0.604,3.603,0.074c0.841,0.463,1.799,0.07,2.703-0.083
		c0.77-0.129,1.543-0.24,2.32-0.307c0.628-0.054,1.335,0.092,1.484,0.733c0.128,0.554-0.289,1.059-0.806,1.458
		C177.372,109.169,174.873,108.988,172.383,109.268z"/>
	<path fill="#9EA095" d="M101.218,116.968c-0.506,1.281-0.886,2.268-1.289,3.246c-0.136,0.331-0.241,0.715-0.732,0.716
		c-0.517,0.001-0.548-0.413-0.677-0.744c-0.52-1.334-1.031-2.671-1.552-4.004c-0.133-0.343-0.298-0.674-0.439-1.014
		c-0.139-0.332-0.829-0.342-0.625-0.789c0.232-0.507,0.829-0.296,1.258-0.284c0.562,0.016,1.198-0.235,1.567,0.154
		c-1.282,1.924,0.454,3.282,0.879,4.905c0.383-0.944,0.804-1.874,1.135-2.836c0.202-0.591-0.104-1.084-0.597-1.424
		c-0.199-0.137-0.426-0.25-0.354-0.515c0.071-0.263,0.337-0.294,0.569-0.281c0.799,0.047,1.637-0.217,2.339,0.19
		c-1.508,1.928,0.569,3.233,0.508,5.16c1.601-2.508,1.815-4.146,0.776-5.02c0.692-0.594,1.494-0.294,2.233-0.311
		c0.333-0.007,0.566,0.315,0.304,0.55c-1.584,1.422-1.608,3.56-2.497,5.296c-0.063,0.123-0.109,0.255-0.166,0.382
		c-0.133,0.302-0.272,0.593-0.683,0.576c-0.396-0.016-0.543-0.289-0.665-0.604C102.116,119.285,101.716,118.255,101.218,116.968z"/>
	<path fill="#9EA095" d="M147.188,117.002c0.001,0.694-0.005,1.388,0.003,2.083c0.004,0.32-0.004,0.646,0.214,0.924
		c0.223,0.284,1.292,0.052,0.688,0.714c-0.364,0.4-1.67,0.617-1.909-0.148c-0.349-1.117-0.717-0.452-1.123-0.247
		c-0.71,0.357-1.431,0.651-2.246,0.612c-1.266-0.06-1.955-0.724-2.001-1.995c-0.038-1.017-0.018-2.036-0.018-3.054
		c0-0.488-0.045-0.934-0.645-1.062c-0.285-0.06-0.764,0.016-0.617-0.488c0.112-0.384,0.546-0.236,0.851-0.288
		c1.121-0.191,1.758,0.064,1.592,1.415c-0.118,0.957-0.007,1.94-0.023,2.912c-0.018,0.966,0.32,1.644,1.375,1.709
		c1.093,0.068,2.5-0.844,2.554-1.687c0.058-0.921,0.004-1.85,0.003-2.775c-0.001-0.486-0.178-0.796-0.716-0.815
		c-0.276-0.01-0.645-0.042-0.612-0.396c0.041-0.447,0.473-0.332,0.777-0.359c1.838-0.162,1.85-0.15,1.852,1.696
		C147.187,116.169,147.187,116.586,147.188,117.002z"/>
	<path fill="#9EA095" d="M121.093,120.504c-1.448,0.336-2.548,0.25-3.776,0.023c1.621-0.554,1.305-1.847,1.218-2.96
		c-0.074-0.975,0.766-2.426-1.208-2.768c0.896,0.11,1.556-1.763,2.528-0.062c0.185,0.323,0.571-0.105,0.833-0.232
		c2.507-1.211,3.946-0.342,3.969,2.414c0.003,0.462-0.011,0.925-0.004,1.388c0.012,0.875-0.263,1.887,1.15,2.148
		c-1.236,0.383-2.336,0.473-3.479,0.13c0.886-0.832,1.428-3.728,0.95-4.946c-0.242-0.616-0.771-0.841-1.34-0.732
		c-0.896,0.173-1.967,0.339-2.158,1.423c-0.176,0.986-0.018,2.029-0.048,3.046C119.706,120.1,120.434,120.071,121.093,120.504z"/>
	<path fill="#9EA095" d="M115.838,120.456c-0.84,0.628-1.535,0.654-1.862,0.314c-0.85-0.881-1.579-0.466-2.4-0.065
		c-0.644,0.315-1.338,0.347-2.021,0.108c-0.693-0.241-1.215-0.631-1.275-1.459c-0.057-0.796,0.282-1.327,0.964-1.679
		c0.75-0.388,1.572-0.49,2.389-0.641c0.567-0.104,1.391,0.09,1.42-0.911c0.02-0.694-0.281-1.164-0.938-1.361
		c-0.773-0.231-1.462-0.085-1.955,0.607c-0.288,0.405-0.125,1.206-0.97,1.115c-0.321-0.035-0.501-0.289-0.504-0.573
		c-0.006-0.731,0.449-1.16,1.05-1.495c2.461-1.368,4.562-0.185,4.616,2.615c0.013,0.601,0.014,1.202,0.003,1.802
		C114.339,119.679,114.415,120.452,115.838,120.456z M112.171,117.602c-0.994,0.303-2.372,0.064-2.647,1.495
		c-0.133,0.696,0.517,1.008,1.196,1.02c1.074,0.019,2.314-0.888,2.346-1.666C113.091,117.806,112.882,117.471,112.171,117.602z"/>
	<path fill="#57A442" d="M125.035,35.104c-0.951,0.125-1.806-0.197-2.668-0.538c-2.169-0.855-4.451-0.588-6.693-0.564
		c-3.06,0.031-5.736-1.235-8.473-2.32c-0.3-0.119-0.251-0.461-0.265-0.735c1.113,0.231,2.136,0.645,3.183,1.122
		c1.486,0.678,3.146,1.128,4.772,1.31c1.958,0.218,3.97,0.172,5.939,0.011c1.414-0.116,2.858-0.463,3.905-1.613l0.003-0.003
		c0.191-0.007,0.383-0.014,0.574-0.021C125.686,32.909,125.377,34.008,125.035,35.104z"/>
	<path fill="#57A442" d="M66.965,28.234c-0.127-0.563,0.083-1.02,0.525-1.332c1.355-0.949,1.935-2.704,3.566-3.38
		c0.397-0.165,0.359-0.721,0.484-1.105c0.04-0.124-0.079-0.365-0.198-0.461c-0.224-0.181-0.393-0.025-0.564,0.168
		c-0.647,0.731-1.396,1.296-2.432,1.319c2.275-2.23,4.641-4.346,7.463-5.882c-0.494,1.229-1.315,2.311-1.627,3.623
		c-0.015,0.293-0.03,0.586-0.044,0.879c-0.551-0.063-0.804,0.404-1.15,0.675C70.843,24.418,68.945,26.371,66.965,28.234z"/>
	<path fill="#57A442" d="M108.611,15.638c-0.349,0.901-1.019,1.563-1.674,2.234c-0.498-0.504,0.054-0.823,0.237-1.183
		c0.147-0.288,0.446-0.573,0.173-0.858c-0.315-0.328-0.805-0.253-1.175-0.115c-0.471,0.176-0.13,0.533-0.041,0.809
		c0.095,0.294,0.35,0.661-0.18,0.743c-0.421,0.066-0.982,0.244-1.179-0.359c-0.147-0.448-0.287-0.79-0.833-0.646
		c-0.302,0.079-0.444,0.353-0.485,0.618c-0.095,0.627,0.725,0.249,0.842,0.825c-0.957,0.261-2.044,0.113-2.913,0.718
		c0.008-0.536,0.449-0.754,0.753-1.095c1.187-1.328,2.416-2.641,2.858-4.452c0.356-0.259,0.289-0.64,0.29-1
		C105.416,13.994,107.685,14.222,108.611,15.638z"/>
	<path fill="#57A442" d="M183.627,28.151c0,0.586,0,1.173,0,1.759c-0.157,0.055-0.313,0.11-0.471,0.164
		c0.396-1.606-1.314-2.023-1.475-3.315c0.094-0.074,0.378,0.128,0.294-0.204c-0.097,0.069-0.194,0.139-0.291,0.208
		c-0.551,0.092-1.102,0.184-1.653,0.275c-0.098-0.093-0.195-0.186-0.293-0.278l0.083-0.087c0.996,0.006,1.648-0.558,0.815-1.288
		c-0.991-0.87-1.644-2.239-2.946-2.594c-0.629-0.171-0.639-0.702-0.962-0.932c-0.438,0.508-0.062,1.039-0.255,1.512
		c-0.054,0.044-0.108,0.088-0.162,0.133c-0.49-0.805-0.49-0.895,0.033-3.106c2.833,2.227,5.49,4.493,7.618,7.326
		c-0.111,0.141-0.222,0.283-0.333,0.424c-0.099-0.07-0.197-0.14-0.294-0.21c-0.024,0.036-0.046,0.071-0.07,0.106
		C183.385,28.081,183.506,28.116,183.627,28.151z"/>
	<path fill="#3C9923" d="M140.802,44.956c0.705,0.61,1.473,1.192,1.099,2.315c0.094,0.719-1.499,1.761,0.417,2.149
		c0.15,0.031,0.345,0.4,0.156,0.57c-0.239,0.215-0.476,0.704-0.886,0.411c-0.502-0.36-1.038-0.272-1.574-0.303
		c-0.446-0.414-0.671-0.972-0.753-1.531c-0.091-0.614-0.46-0.673-0.919-0.712c-0.051-0.941,0.456-1.827,0.278-2.781
		C139.348,45.035,140.075,44.996,140.802,44.956z M138.854,46.154c1.219-0.064,0.447,0.836,0.813,1.017
		c0.577,0.283,1.342,0.328,1.063-0.671C140.52,45.74,139.81,45.741,138.854,46.154z"/>
	<path fill="#3C9923" d="M234.504,81.209c0.683,0.007,1.366,0.021,2.049,0.017c0.394-0.003,0.859,0.107,0.97-0.482
		c3.247,0.736,6.493,1.474,9.739,2.209c0.18,0.177,0.36,0.354,0.541,0.531c-0.37-0.036-0.739-0.071-1.108-0.106
		c-0.717-0.303-1.443-0.557-2.242-0.476C241.137,82.338,237.82,81.773,234.504,81.209z"/>
	<path fill="#57A442" d="M140.014,50.098c0.536,0.031,1.072-0.058,1.574,0.303c0.409,0.293,0.647-0.196,0.886-0.411
		c0.189-0.17-0.006-0.54-0.156-0.57c-1.915-0.389-0.323-1.43-0.417-2.149c0,0,0.089,0.088,0.089,0.088
		c-0.057,0.617,0.252,1.074,0.694,1.436c0.488,0.399,0.823,0.287,0.904-0.372c0.688-0.157,0.859,0.342,1.042,0.825
		c0.069,0.028,0.109,0.079,0.117,0.154c0.085,0.04,0.171,0.079,0.257,0.118c1.3,0.49,2.6,0.98,3.899,1.471
		c-0.208,0.322-0.864,0.136-0.833,0.731c-1.427-0.276-2.598-1.376-4.14-1.284c-0.342-0.545-0.924-0.162-1.024,0
		c-0.461,0.746-1.147,0.421-1.745,0.503C140.899,50.497,140.02,50.892,140.014,50.098z"/>
	<path fill="#3C9923" d="M190.092,45.622c1.124,2.747,0.805,5.623,0.734,8.472c-0.008,0.333-0.265,0.661-0.406,0.991
		c0.312-2.976-0.064-5.92-0.406-8.867C190.041,46.019,190.066,45.82,190.092,45.622z"/>
	<path fill="#3C9923" d="M55.034,61.764c0.96,0.516,1.067,1.564,1.269,2.417c0.228,0.968,0.163,1.99,0.791,2.868
		c0.185,0.259-0.068,0.51-0.379,0.594C55.922,65.75,55.391,63.782,55.034,61.764z"/>
	<path fill="#3C9923" d="M134.416,66.249c0.323,0.045,0.793-0.242,0.915,0.251c0.065,0.26,0.036,0.702-0.338,0.825
		c-0.418,0.138-0.703,0.946-1.116,0.555c-1.091-1.036-2.359-0.353-3.525-0.542c-0.532-0.086-1.126,0.083-1.461-0.526
		c1.703,0.092,3.406,0.171,5.108,0.281C134.874,67.148,134.807,66.791,134.416,66.249z"/>
	<path fill="#57A442" d="M179.739,26.76c-1.143-1.085-2.285-2.17-3.428-3.255c0.054-0.044,0.108-0.088,0.162-0.132
		c1.813,0.393,2.818,1.605,3.349,3.301L179.739,26.76z"/>
	<path fill="#57A442" d="M138.621,45.075c0.178,0.954-0.329,1.84-0.278,2.781c-0.82-0.583-1.141-1.494-1.076-2.376
		C137.312,44.866,138.062,44.897,138.621,45.075z"/>
	<path fill="#3C9923" d="M2.75,81.832c0.423,1.012,1.309,0.228,1.923,0.496c-1.535,0.371-3.076,0.679-4.673,0.5
		C0.838,82.219,1.798,82.037,2.75,81.832z"/>
	<path fill="#57A442" d="M188.019,39.57c0.847,0.708,1.296,1.636,1.425,2.71c0.066,0.548,0.034,1.107,0.045,1.661
		C188.999,42.484,188.509,41.027,188.019,39.57z"/>
	<path fill="#57A442" d="M140.846,52.171c-1.522,0.328-3.059-0.038-4.584,0.088C137.774,51.442,139.314,52.049,140.846,52.171z"/>
	<path fill="#57A442" d="M155.154,55.03c-0.479,0.017-1.047,0.303-1.407-0.132c-0.486-0.588,0.403-0.905,0.411-1.424
		C154.646,53.892,154.904,54.459,155.154,55.03z"/>
	<path fill="#57A442" d="M184.741,33.152c1.159,0.488,1.459,1.474,1.508,2.605C185.746,34.889,185.243,34.021,184.741,33.152z"/>
	<path fill="#57A442" d="M65.19,26.602c1.095,0.155,0.85,0.929,0.857,1.833c-0.628-0.433-0.747-1.248-1.49-1.173
		C64.671,26.949,64.897,26.744,65.19,26.602z"/>
	<path fill="#57A442" d="M247.803,83.484c-0.179-0.177-0.359-0.354-0.54-0.531c0.715,0.171,1.431,0.343,2.473,0.593
		C248.833,83.901,248.31,83.822,247.803,83.484z"/>
	<path fill="#3C9923" d="M134.446,65.104c-0.009,0.382-0.02,0.764-0.029,1.146c-0.69-0.378-1.034-1.032-1.357-1.702
		c0,0,0.082-0.074,0.081-0.074c0.447,0.188,0.691,0.795,1.308,0.632L134.446,65.104z"/>
	<path fill="#3C9923" d="M57.217,69.581c-0.586,1.045-1.54,0.344-2.316,0.488C55.623,69.67,56.451,69.772,57.217,69.581z"/>
	<path fill="#57A442" d="M187.479,32.337c-0.75-0.276-1.14-0.799-1.106-1.612C186.905,31.15,187.217,31.726,187.479,32.337z"/>
	<path fill="#57A442" d="M188.431,33.912c-1.072-0.056-0.818-0.914-0.938-1.547C187.924,32.809,188.268,33.306,188.431,33.912z"/>
	<path fill="#57A442" d="M190.092,45.622c-0.026,0.199-0.052,0.397-0.078,0.597c-0.348-0.708-0.419-1.48-0.517-2.247
		c0.168,0.01,0.336,0.021,0.505,0.031C190.032,44.543,190.062,45.082,190.092,45.622z"/>
	<path fill="#57A442" d="M244.453,82.902c0.798-0.081,1.525,0.173,2.242,0.477C245.927,83.312,245.166,83.222,244.453,82.902z"/>
	<path fill="#57A442" d="M64.093,27.816c0.161,0.829-0.209,1.197-1.025,1.176C63.288,28.494,63.667,28.134,64.093,27.816z"/>
	<path fill="#57A442" d="M181.322,28.469c0.816-0.054,0.935,0.46,0.901,1.102C181.768,29.33,181.503,28.934,181.322,28.469z"/>
	<path fill="#57A442" d="M183.522,31.327c0.9-0.147,1.018,0.251,0.676,0.971C183.872,32.044,183.628,31.733,183.522,31.327z"/>
	<path fill="#57A442" d="M141.146,51.216c0.56,0.255,0.56,0.255-0.078,0.821C141.093,51.763,141.119,51.489,141.146,51.216z"/>
	<path fill="#57A442" d="M186.261,35.786c0.702,0.17,0.69,0.727,0.689,1.277C186.721,36.637,186.492,36.211,186.261,35.786z"/>
	<path fill="#3DAB38" d="M56.723,38.921c0.119,0.112,0.352,0.247,0.335,0.333c-0.066,0.347-0.392,0.255-0.638,0.286
		C56.521,39.334,56.622,39.127,56.723,38.921z"/>
	<path fill="#57A442" d="M184.773,28.681c-0.547,0.031-0.614-0.325-0.602-0.746C184.455,28.117,184.702,28.328,184.773,28.681z"/>
	<path fill="#57A442" d="M135.845,52.37c-0.067,0.566-0.479,0.517-0.877,0.491C135.2,52.59,135.458,52.363,135.845,52.37z"/>
	<path fill="#57A442" d="M188.842,34.551c-0.38-0.057-0.493-0.287-0.414-0.64C188.717,34.026,188.803,34.273,188.842,34.551z"/>
	<path fill="#57A442" d="M67.569,24.18c0.164,0.061,0.328,0.123,0.492,0.184c-0.237,0.315-0.571,0.13-0.862,0.169
		C67.25,24.339,67.36,24.208,67.569,24.18z"/>
	<path fill="#3C9923" d="M192.846,55.559c-0.129-0.241-0.042-0.391,0.2-0.475C193.205,55.338,193.121,55.489,192.846,55.559z"/>
	<path fill="#3C9923" d="M56.817,67.889c0.516,0.208,0.376,0.669,0.409,1.062C56.927,68.66,56.845,68.285,56.817,67.889z"/>
	<path fill="#79BA3F" d="M125.311,31.753c-0.191,0.007-0.383,0.014-0.574,0.021c-0.013-0.375,0.175-0.558,0.542-0.569
		C125.29,31.388,125.301,31.57,125.311,31.753z"/>
	<path fill="#3C9923" d="M57.234,68.98c0.205,0.043,0.456,0.082,0.391,0.357c-0.023,0.101-0.254,0.153-0.391,0.229
		C57.235,69.371,57.234,69.176,57.234,68.98z"/>
	<path fill="#57A442" d="M183.045,30.665c0.431,0.013,0.606,0.211,0.461,0.64C183.254,31.163,183.111,30.942,183.045,30.665z"/>
	<path fill="#57A442" d="M185.87,30.083c-0.411-0.003-0.581-0.206-0.504-0.611C185.655,29.575,185.82,29.781,185.87,30.083z"/>
	<path fill="#57A442" d="M66.089,25.639c0.01,0.373-0.172,0.562-0.543,0.571C65.648,25.945,65.799,25.726,66.089,25.639z"/>
	<path fill="#57A442" d="M186.334,30.683c-0.355-0.047-0.493-0.264-0.469-0.605C186.14,30.188,186.265,30.413,186.334,30.683z"/>
	<path fill="#57A442" d="M68.332,23.454c-0.019,0.355-0.209,0.531-0.562,0.537C67.866,23.716,68.044,23.528,68.332,23.454z"/>
	<path fill="#57A442" d="M66.648,25.092c0.001,0.377-0.188,0.561-0.564,0.551C66.169,25.354,66.347,25.161,66.648,25.092z"/>
	<path fill="#57A442" d="M64.434,27.38c-0.011,0.233-0.09,0.414-0.352,0.452C64.103,27.606,64.232,27.466,64.434,27.38z"/>
	<path fill="#57A442" d="M180.781,27.904c0.253,0.024,0.354,0.183,0.366,0.418C180.928,28.267,180.817,28.118,180.781,27.904z"/>
	<path fill="#3C9923" d="M54.703,59.825c0.257,0.155,0.317,0.334,0.069,0.551C54.749,60.192,54.726,60.009,54.703,59.825z"/>
	<path fill="#57A442" d="M185.373,29.48c-0.303-0.033-0.356-0.245-0.356-0.496C185.236,29.077,185.342,29.252,185.373,29.48z"/>
	<path fill="#57A442" d="M66.919,24.801c-0.09,0.097-0.18,0.194-0.271,0.291C66.739,24.995,66.829,24.898,66.919,24.801z"/>
	<path fill="#57A442" d="M67.202,24.531c-0.097,0.092-0.192,0.185-0.288,0.277C67.01,24.716,67.105,24.623,67.202,24.531z"/>
	<path fill="#3C9923" d="M54.969,61.308c0.045,0.052,0.05,0.107,0.014,0.166l-0.067-0.081L54.969,61.308z"/>
	<path fill="#57A442" d="M65.543,26.213c-0.088,0.092-0.177,0.185-0.266,0.276C65.365,26.397,65.454,26.305,65.543,26.213z"/>
	<path fill="#57A442" d="M76.083,17.252c-0.097,0.111-0.193,0.223-0.29,0.334C75.766,17.368,75.914,17.301,76.083,17.252z"/>
	<path fill="#57A442" d="M184.207,32.311c0.076,0.108,0.151,0.217,0.226,0.324C184.357,32.527,184.282,32.419,184.207,32.311z"/>
	<path fill="#57A442" d="M153.941,53.11c-0.064-0.057-0.067-0.116-0.008-0.178C153.982,52.989,153.984,53.049,153.941,53.11z"/>
	<path fill="#57A442" d="M185.017,28.984c-0.084-0.104-0.168-0.208-0.252-0.313C184.849,28.775,184.933,28.88,185.017,28.984z"/>
	<path fill="#8B5743" d="M118.504,44.366c-0.016,0.09-0.064,0.156-0.145,0.198l-0.031-0.023c0.079-0.091,0.157-0.181,0.234-0.271
		L118.504,44.366z"/>
	<path fill="#57A442" d="M62.992,29.106c-0.01,0.215-0.114,0.354-0.328,0.403C62.773,29.375,62.883,29.241,62.992,29.106z"/>
	<path fill="#57A442" d="M155.565,55.159c-0.117,0.15-0.208,0.122-0.279-0.042C155.38,55.131,155.472,55.145,155.565,55.159z"/>
	<path fill="#57A442" d="M184.421,32.618c0.18,0.069,0.265,0.199,0.254,0.392C184.59,32.879,184.505,32.749,184.421,32.618z"/>
	<path fill="#8B5743" d="M86.044,66.225c0.738-2.19,0.985-4.502,1.633-6.709c0.875-2.983,0.792-6.076,1.215-9.108
		c0.334-2.399-0.503-4.239-2.218-5.79c-1.845-1.669-2.929-3.774-3.564-6.141c-0.047-0.176-0.05-0.364-0.073-0.547
		c0.805,0.697,1.497,1.484,1.963,2.453c0.523,1.046,1.342,1.868,2.121,2.712c0.464,0.504,1.067,1.354,1.609,1.152
		c0.663-0.248,0.164-1.23,0.266-1.884c0.813,0.011,1.588-0.057,2.4,0.358c0.656,0.335,1.601,0.374,2.277-0.012
		c0.763-0.436,1.345-0.384,2.029,0.054c0.298,0.19,0.777,0.44,1.012,0.327c1.067-0.514,1.428,0.307,1.937,0.889
		c-1.231,2.303-2.273,4.715-2.204,7.352c0.109,4.108,0.163,8.234,0.828,12.304c0.115,0.701-0.134,1.608,0.714,2.088
		c-0.02,2.687-0.02,2.694-2.661,2.704c-2.487,0.009-4.973,0-7.458,0.003C85.623,68.432,85.623,68.435,86.044,66.225z"/>
	<path fill="#3C9923" d="M145.01,52.322c1.201,1.675,2.402,3.351,3.604,5.026c0.004,0.084,0.006,0.168,0.006,0.252
		c-0.697,0.111-0.196,0.36-0.096,0.617c0.316,0.811,1.468,1.249,1.065,2.377c-2.071-2.458-3.6-5.297-5.512-7.867
		C144.273,52.329,144.634,52.308,145.01,52.322z"/>
	<path fill="#57A442" d="M156.505,57.457c0.492,0.62,0.771,1.345,1.025,2.081c-0.617,0.511-1.419,0.915-1.129,1.951l-0.005,0.007
		c-0.201,0.098-0.403,0.195-0.604,0.293c-0.537-0.309-0.799-1.027-1.539-1.032c0.043-0.533,0.061-1.055-0.611-1.234
		c-0.02-0.344-0.202-0.531-0.548-0.556c0.001-0.168,0.002-0.335,0.004-0.502c0.444-0.092,0.887-0.184,1.331-0.276
		c0.051,0.033,0.101,0.066,0.15,0.099c-0.033-0.051-0.065-0.101-0.098-0.151c0.009-0.226,0.079-0.416,0.297-0.522
		c0.382,0.813,0.585,1.808,1.817,1.867c0.079-0.68-0.504-1.029-0.528-1.572C156.213,57.758,156.36,57.607,156.505,57.457z"/>
	<path fill="#3C9923" d="M145.388,57.808c0.616,1.815,0.681,3.623-0.072,5.42c0.265-0.884-0.497-1.497-0.605-2.3
		C144.556,59.778,145.396,58.894,145.388,57.808z"/>
	<path fill="#3C9923" d="M191.798,50.459c-0.474-0.944-0.498-1.697-0.122-3.234C192.156,48.48,191.931,49.471,191.798,50.459z"/>
	<path fill="#57A442" d="M153.936,64.489c0.902,0.096,1.804,0.192,2.707,0.287c0.101,0.21,0.202,0.421,0.303,0.632
		c-0.932-0.103-1.863-0.207-2.795-0.31C153.888,64.963,153.909,64.727,153.936,64.489z"/>
	<path fill="#3C9923" d="M156.119,67.883c0.741,0.177,1.483,0.116,2.224-0.001C157.771,69.374,157.578,69.374,156.119,67.883z"/>
	<path fill="#3C9923" d="M56.113,61.596c-0.373-0.617-0.366-1.235-0.037-2.168C56.478,60.334,56.39,60.962,56.113,61.596z"/>
	<path fill="#3C9923" d="M56.938,57.026c0.331,0.814,0.284,1.687,0.391,2.536C56.718,58.791,56.428,57.97,56.938,57.026z"/>
	<path fill="#3C9923" d="M150.896,57.018c0.077,0.049,0.155,0.095,0.229,0.147c0.306,0.21,0.875,0.142,0.807,0.75
		c-0.02,0.178-0.045,0.428-0.272,0.396c-0.518-0.072-0.754-0.444-0.824-0.938C150.856,57.255,150.876,57.137,150.896,57.018z"/>
	<path fill="#3C9923" d="M134.662,64.213c0.276,0.248,0.584,0.474,0.605,0.894c-0.273-0.001-0.547-0.002-0.821-0.003l0.003,0.002
		C134.336,64.765,133.658,64.288,134.662,64.213z"/>
	<path fill="#57A442" d="M148.619,57.6c0.001-0.084-0.001-0.168-0.006-0.252c0.555,0.03,1.111,0.06,1.665,0.09
		c-0.179,0.078-0.357,0.157-0.536,0.235c-0.193-0.012-0.386-0.023-0.58-0.035C148.982,57.626,148.8,57.613,148.619,57.6z"/>
	<path fill="#57A442" d="M150.896,57.018c-0.021,0.119-0.04,0.237-0.06,0.356c-0.089-0.005-0.177-0.02-0.263-0.045
		c-0.038-0.354-0.074-0.708-0.111-1.063c0.118-0.017,0.236-0.032,0.354-0.048C150.843,56.484,150.87,56.751,150.896,57.018z"/>
	<path fill="#57A442" d="M154.359,61.201c0.035,0.189,0.069,0.378,0.104,0.567c-0.145-0.076-0.378-0.124-0.413-0.234
		C153.997,61.363,154.169,61.237,154.359,61.201z"/>
	<path fill="#3C9923" d="M153.094,58.967c0.346,0.024,0.528,0.211,0.548,0.556C153.25,59.544,153.064,59.361,153.094,58.967z"/>
	<path fill="#3C9923" d="M55.648,58.788c0.033-0.075,0.049-0.191,0.104-0.212c0.052-0.021,0.187,0.038,0.206,0.091
		c0.021,0.055-0.054,0.146-0.086,0.22C55.797,58.854,55.723,58.82,55.648,58.788z"/>
	<path fill="#3C9923" d="M149.979,61.269c-0.218-0.142-0.322-0.349-0.338-0.604C149.948,60.757,150.02,60.981,149.979,61.269z"/>
	<path fill="#8B5743" d="M102.069,65.625c0.098-0.001,0.196-0.002,0.292-0.003C102.262,65.624,102.166,65.625,102.069,65.625z"/>
	<path fill="#3C9923" d="M149.163,57.639c0.193,0.012,0.386,0.023,0.58,0.035C149.535,57.884,149.342,57.881,149.163,57.639z"/>
	<path fill="#3C9923" d="M144.224,60.38c0-0.092,0-0.184-0.001-0.275c0.031,0.064,0.07,0.127,0.087,0.195
		C144.314,60.318,144.254,60.353,144.224,60.38z"/>
	<path fill="#79BA3F" d="M104.995,12.875c-0.442,1.811-1.671,3.124-2.858,4.452c-0.305,0.341-0.745,0.56-0.753,1.095
		c-0.92,0.65-1.861,1.293-2.734,1.982c-1.694,1.337-3.692,1.932-5.607,2.747c-0.357-0.439-0.924-0.396-1.28-0.244
		c-1.469,0.629-3.123,0.614-4.545,1.369c-1.946,0.703-3.894-0.218-5.841,0.004c-1.735-0.273-3.346-1.032-5.052-1.352
		c-0.837-0.157-1.297-1.034-2.193-0.884c0,0,0.007,0.018,0.007,0.018c0.014-0.293,0.029-0.586,0.044-0.879
		c2.934,0.195,5.564-0.955,8.24-1.878c4.902-1.692,9.79-3.427,14.69-5.125c1.563-0.541,3.14-1.043,4.725-1.515
		c0.574-0.17,0.97-0.461,1.253-0.984c0.226-0.417,0.324-1.098,0.994-0.958c0.559,0.116,0.626,0.752,0.813,1.201
		C105.016,12.205,104.969,12.556,104.995,12.875z"/>
	<path fill="#79BA3F" d="M124.733,31.777c-1.046,1.15-2.491,1.497-3.904,1.613c-1.969,0.161-3.981,0.207-5.94-0.011
		c-1.626-0.181-3.285-0.632-4.772-1.31c-1.046-0.478-2.07-0.891-3.183-1.122c-0.115-0.239-0.331-0.284-0.565-0.293
		c-0.396-0.88-1.198-1.291-2.003-1.664c-0.881-0.408-1.599-0.863-2.045-1.846c-0.334-0.738-0.619-1.656-1.506-2.048
		c0.217-0.745-0.493-1.707,0.529-2.265c-0.188,1.382,0.383,1.803,1.78,1.75c1.524-0.059,3.006,0.599,4.316,1.273
		c2.631,1.356,5.469,2.059,8.219,3.041c2.608,0.931,5.498,1.018,7.876,2.653C123.842,31.761,124.33,31.708,124.733,31.777z"/>
	<path fill="#57A442" d="M74.132,22.044c0.895-0.15,1.355,0.727,2.193,0.884c1.706,0.32,3.317,1.079,5.052,1.352
		c-0.039,0.482-0.294,0.826-0.779,0.791c-1.402-0.104-2.578,0.508-3.815,1.019c-0.652,0.27-1.424,0.332-2.155,0.103
		c0,0-0.094-0.073-0.094-0.073s0.017-0.118,0.018-0.118c0.539-0.402,0.622-0.722-0.158-0.889
		C73.948,24.119,74.138,23.073,74.132,22.044z"/>
	<path fill="#57A442" d="M100.815,25.098c0.888,0.392,1.172,1.31,1.506,2.048c0.445,0.982,1.164,1.438,2.045,1.846
		c0.805,0.373,1.607,0.783,2.003,1.664c-1.983-0.952-3.999-1.842-5.938-2.877C99.148,27.093,99.295,26.33,100.815,25.098z"/>
	<path fill="#57A442" d="M87.218,24.275c1.421-0.755,3.076-0.739,4.545-1.368c0.356-0.153,0.923-0.196,1.28,0.244
		c-1.453,0.969-3.277,0.64-4.809,1.361C87.944,24.648,87.493,24.627,87.218,24.275z"/>
	<path fill="#57A442" d="M106.825,18.687c-0.026,0.279-0.254,0.25-0.439,0.286C106.533,18.877,106.679,18.782,106.825,18.687z"/>
	<path fill="#0CA03F" d="M103.543,44.558c-0.223-0.258-0.375-0.792-0.81-0.532c-1.392,0.835-2.729,0.317-4.083-0.049
		c-0.507-0.582-0.869-1.402-1.936-0.889c-0.235,0.113-0.714-0.136-1.012-0.327c-0.686-0.439-1.267-0.49-2.03-0.054
		c-0.677,0.386-1.622,0.348-2.277,0.012c-0.811-0.416-1.586-0.348-2.4-0.358c-1.333-0.66-2.664-1.32-3.995-1.98
		c-0.466-0.969-1.159-1.755-1.963-2.453c-0.832-0.651-1.686,0.619-2.517-0.03c0.607-1.231,1.941-1.571,3.244-0.82
		c0.22,0.126,0.378,0.497,0.686,0.265c0.317-0.238,0.05-0.448-0.096-0.688c-0.364-0.595-0.193-1.005,0.533-0.987
		c0.746,0.019,1.341-0.333,1.94-0.665c1.792-0.992,3.995-0.615,5.754-1.784c0.459-0.305,1.004,0.125,1.003,0.771
		c-0.001,0.853,0.503,0.93,1.201,1.156c3.635,1.177,7.24,2.451,10.83,3.76c0.825,0.301,1.582,0.654,2.503,0.662
		c1.517,0.012,2.708,0.921,4.017,1.575c1.5,0.749,3.24,0.963,4.831,1.575c0.806,0.311,1.37,0.717,1.598,1.551
		c-0.078,0.091-0.156,0.181-0.234,0.271c-0.659,0.693-1.438,1.278-1.934,2.122c-1.006,0.187-1.777,0.875-2.69,1.258
		c-0.907-0.292-1.622,0.391-2.462,0.499c-1.083,0.14-1.954-0.738-3.02-0.486c-0.514-0.121-1.028-0.242-1.543-0.363
		c0,0-0.006,0.034-0.006,0.034c-0.059-0.029-0.083-0.076-0.07-0.14C105.572,46.506,104.822,45.253,103.543,44.558z"/>
	<path fill="#3DAB38" d="M79.134,37.079c-0.595-0.511-0.951-1.17-1.18-1.907C79.054,35.371,79.048,36.253,79.134,37.079z"/>
	<path fill="#3DAB38" d="M145.875,45.196c-0.354,0.809-0.75,1.578-1.69,1.854c-0.475,0.249-0.992,0.318-1.517,0.354
		c-0.075,0-0.128-0.033-0.161-0.101c-0.274-0.94,0.876-1.346,0.825-2.203l0.009-0.006c1.821-0.587,2.703-1.998,3.23-3.727
		c0.838,1.376,0.643,2.484-0.539,3.333C145.921,44.782,145.925,45.027,145.875,45.196z"/>
	<path fill="#57A442" d="M151.889,49.891c-0.168,0.07-0.277,0.154-0.384,0.153c-0.203-0.002-0.316-0.141-0.211-0.328
		c0.042-0.075,0.227-0.117,0.33-0.095C151.712,49.64,151.776,49.771,151.889,49.891z"/>
	<path fill="#57A442" d="M148.875,52.087c-0.233-0.016-0.432-0.092-0.557-0.305C148.654,51.612,148.921,51.564,148.875,52.087z"/>
	<path fill="#57A442" d="M149.209,50.657c0.063-0.128,0.126-0.256,0.189-0.385C149.335,50.401,149.272,50.529,149.209,50.657z"/>
	<path fill="#3DAB38" d="M58.314,39.381c-0.24-0.105-0.202-0.238-0.141-0.359c0.061-0.119,0.124-0.291,0.224-0.322
		c0.183-0.058,0.188,0.139,0.154,0.239C58.499,39.098,58.394,39.239,58.314,39.381z"/>
	<path fill="#249009" d="M134.662,64.213c-1.004,0.075-0.326,0.551-0.213,0.893c-0.617,0.163-0.861-0.445-1.308-0.632
		c-0.027-0.18-0.111-0.373-0.071-0.536c0.121-0.489-0.637-1.153,0.125-1.44c0.628-0.237,0.222,0.808,0.755,0.879
		c0.09,0.013,0.178,0.027,0.268,0.041c0.059,0.101,0.119,0.201,0.178,0.301c-0.187,0.209-0.044,0.244,0.137,0.257
		C134.575,64.055,134.619,64.134,134.662,64.213z"/>
	<path fill="#A9D069" d="M140.467,56.563c-0.034,1.143-0.531,2.128-1.1,3.088C139.429,58.521,139.87,57.521,140.467,56.563z"/>
	<path fill="#57A442" d="M145.01,52.322c-0.375-0.014-0.736,0.007-0.933,0.406c-0.213-0.203-0.409-0.437-0.743-0.43
		c0.186-0.77,0.836-0.451,1.304-0.558C144.763,51.934,144.886,52.128,145.01,52.322z"/>
	<path fill="#57A442" d="M142.492,52.545c-0.057,0.095-0.111,0.304-0.241,0.375c-0.234,0.128-0.308-0.094-0.294-0.267
		c0.015-0.164,0.068-0.405,0.181-0.464C142.331,52.088,142.441,52.272,142.492,52.545z"/>
	<path fill="#A9D069" d="M140.652,56.251c-0.213-0.577,0.028-0.849,0.333-1.162C141.28,55.614,141.008,55.898,140.652,56.251z"/>
	<path fill="#57A442" d="M143.05,52.878c0.01,0.276,0.018,0.551,0.027,0.826C142.655,53.443,142.713,53.166,143.05,52.878z"/>
	<path fill="#57A442" d="M184.4,30.353c-0.012,0.033-0.024,0.065-0.037,0.097c-0.037-0.037-0.072-0.074-0.107-0.111
		c0.026-0.024,0.053-0.048,0.08-0.072C184.356,30.295,184.378,30.324,184.4,30.353z"/>
	<path fill="#57A442" d="M66.781,28.468c-0.139,0.151-0.277,0.301-0.416,0.452C66.385,28.661,66.486,28.476,66.781,28.468z"/>
	<path fill="#3C9923" d="M179.822,26.672c-0.53-1.695-1.536-2.908-3.349-3.3c0.194-0.473-0.182-1.004,0.256-1.512
		c0.323,0.229,0.333,0.761,0.962,0.932c1.303,0.354,1.955,1.724,2.946,2.594C181.47,26.115,180.817,26.679,179.822,26.672z"/>
	<path fill="#3C9923" d="M181.685,26.763c0.097-0.069,0.194-0.139,0.291-0.208c0.084,0.332-0.201,0.13-0.294,0.204L181.685,26.763z"
		/>
	<path fill="#3C9923" d="M183.627,28.151c-0.121-0.035-0.242-0.07-0.362-0.106c0.023-0.035,0.046-0.071,0.069-0.106
		c0.099,0.07,0.197,0.14,0.294,0.209L183.627,28.151z"/>
	<path fill="#57A442" d="M138.854,46.154c0.957-0.413,1.665-0.414,1.876,0.346c0.279,0.999-0.486,0.954-1.063,0.671
		C139.301,46.991,140.074,46.09,138.854,46.154z"/>
	<path fill="#79BA3F" d="M143.587,48.423c-0.306-0.34-0.612-0.68-0.918-1.02c0.525-0.035,1.042-0.104,1.518-0.353
		c0.789,0.604,0.587,1.407,0.443,2.199C144.447,48.765,144.276,48.267,143.587,48.423z"/>
	<path fill="#79BA3F" d="M144.747,49.402c0.086,0.04,0.172,0.079,0.258,0.118C144.918,49.481,144.833,49.442,144.747,49.402z"/>
	<path fill="#3DAB38" d="M74.394,25.111c0.779,0.167,0.697,0.487,0.158,0.889C74.499,25.704,74.446,25.408,74.394,25.111z"/>
	<path fill="#3C9923" d="M134.532,63.976c-0.181-0.014-0.323-0.048-0.137-0.257C134.44,63.804,134.486,63.89,134.532,63.976z"/>
	<path fill="#3C9923" d="M156.945,65.408c-0.101-0.21-0.202-0.421-0.303-0.632c-0.082-0.403,0.618-0.897-0.325-1.24
		c-0.564-0.206-0.474-1.113-0.525-1.748c0.202-0.098,0.403-0.195,0.604-0.293c0.096,0.544,0.435,0.703,0.828,0.355
		c0.395-0.348,0.74-0.094,1.109-0.079c0.253,0.358-0.299,0.792,0.106,1.135c-0.689-0.069-0.989,0.231-0.875,0.923
		c-0.017,0.437-0.024,0.873-0.054,1.309C157.483,65.541,157.331,65.731,156.945,65.408z"/>
	<path fill="#57A442" d="M158.333,61.771c-0.369-0.015-0.714-0.269-1.109,0.079c-0.394,0.348-0.733,0.188-0.828-0.355l0.005-0.007
		c0.502-0.922,1.545,0.024,2.128-0.618c1.077,0.603,1.613,1.823,1.145,2.802c-0.581,1.217-1.4,0.131-2.109,0.157
		c-0.115-0.692,0.186-0.992,0.875-0.923c0.249,0.084-0.01,0.829,0.521,0.466c0.361-0.247,0.254-0.753,0.149-1.125
		C159.017,61.92,158.91,61.402,158.333,61.771z"/>
	<path fill="#3C9923" d="M158.529,60.871c-0.583,0.642-1.626-0.304-2.128,0.618c-0.29-1.036,0.512-1.44,1.129-1.951
		C157.863,59.982,158.197,60.427,158.529,60.871z"/>
	<path fill="#3C9923" d="M154.481,58.136c0.033,0.05,0.065,0.101,0.098,0.152c-0.05-0.034-0.1-0.067-0.15-0.1
		C154.429,58.188,154.481,58.136,154.481,58.136z"/>
</g>
</svg>
