<?xml version="1.0" encoding="iso-8859-1"?>
<!-- Generator: Adobe Illustrator 16.0.0, SVG Export Plug-In . SVG Version: 6.00 Build 0)  -->
<!DOCTYPE svg PUBLIC "-//W3C//DTD SVG 1.1//EN" "http://www.w3.org/Graphics/SVG/1.1/DTD/svg11.dtd">
<svg version="1.1" id="&#x56FE;&#x5C42;_1" xmlns="http://www.w3.org/2000/svg" xmlns:xlink="http://www.w3.org/1999/xlink" x="0px"
	 y="0px" width="612px" height="792px" viewBox="0 0 612 792" style="enable-background:new 0 0 612 792;" xml:space="preserve">
<path style="fill-rule:evenodd;clip-rule:evenodd;fill:#249009;" d="M1316.636,392.195c0.093,1.041,0.286,2.097-0.465,3.006
	c-0.655,0.226-0.891,0.63-0.541,1.281c1.708,3.302,0.147,6.579-0.368,9.738c-1.816,11.123-5.189,21.797-10.616,31.728
	c-1.115,2.04-0.833,2.729,1.466,3.044c20.368,2.789,40.647,6.134,60.896,9.686c19.749,3.465,39.407,7.367,59.021,11.502
	c3.407,0.719,6.797,1.521,10.194,2.284c-0.298,1.589-1.554,1.292-2.618,1.3c-1.844,0.012-3.688-0.028-5.531-0.046
	c-9.388-1.319-18.772-2.658-28.162-3.956c-22.636-3.129-45.326-5.788-68.067-8.052c-21.249-2.114-42.521-3.919-63.825-5.337
	c-28.175-1.877-56.375-3.119-84.602-3.976c-51.881-1.573-103.729-0.801-155.533,2.08c-30.296,1.686-60.557,4.028-90.77,6.981
	c-30.198,2.951-60.353,6.242-90.444,10.114c-11.512,1.481-22.995,3.183-34.495,4.761c-1.479,0.203-2.977,0.271-4.465,0.402
	c-1.659-0.723-4.05,1.395-5.191-1.338c30.479-8.831,61.263-16.406,92.344-22.822c14.504-2.993,29.028-5.836,43.62-8.35
	c1.587-0.273,3.2-0.39,4.802-0.578c2.096-0.39,4.671,1.504,6.253-1.317l0.048-0.039c0.368-0.202,0.99-0.344,1.055-0.616
	c0.174-0.745-0.502-0.85-1.056-0.965l-0.021-0.079c-0.089-1.063,0.287-2.305-1.104-2.867c-0.093-0.222-0.187-0.442-0.28-0.663
	c0.842-0.229,1.523-0.906,1.023-1.605c-1.692-2.369-1.518-5.128-2.134-7.742c-0.543-2.301-0.833-5.131-3.424-6.523
	c-0.046-0.261-0.091-0.521-0.137-0.781c0.097-0.158,0.084-0.309-0.038-0.448c-0.178-0.839-0.354-1.677-0.532-2.515
	c0.669-0.587,0.507-1.07-0.186-1.488c-0.153-0.221-0.188-0.458-0.103-0.712c0.999-1.019,1.531-2.248,1.162-3.636
	c-0.88-3.313,1.132-6.22,0.997-9.45c1.541,1.969,0.498,4.247,1.185,6.312c0.902-0.325,1.71-1.01,2.756-0.762
	c0.149,0.225,0.161,0.455,0.034,0.693c-1.377,2.548-0.594,4.764,1.054,6.846c1.438,7.846,3.646,15.454,6.648,22.857
	c0.937,2.312,2.174,2.908,4.502,2.558c7.995-1.206,15.997-2.386,24.023-3.36c14.076-1.711,28.146-3.535,42.338-4.071
	c-1.138,5.965-1.138,5.957,4.927,5.947c6.71-0.011,13.421,0.015,20.132-0.01c7.128-0.027,7.128-0.045,7.182-7.298
	c3.672-0.085,7.343-0.171,11.015-0.257c0.26-0.003,0.521-0.005,0.78-0.008c0.723-0.021,1.446-0.04,2.169-0.061
	c1.86,0.037,3.75,0.305,5.573,0.063c3.693-0.489,5.375,0.698,4.664,4.602c-0.4,2.197,0.547,3.082,2.883,3.006
	c4.716-0.154,9.441-0.042,14.161-0.04c6.846,0.003,6.846,0.002,7.008-6.74c11.721,0.792,23.44,1.585,35.16,2.376
	c0.902,1.645,2.507,1.185,3.942,1.418c3.147,0.514,6.57-1.332,9.517,1.465c1.114,1.057,1.883-1.126,3.011-1.498
	c1.007-0.332,1.088-1.521,0.913-2.225c-0.331-1.33-1.599-0.555-2.471-0.678l0.003,0.004c0.026-1.031,0.053-2.063,0.078-3.093
	c0.74,0.003,1.479,0.006,2.218,0.009c0.874,1.498,2.558,1.926,3.905,2.638c7.911,4.173,15.51,1.19,18.752-7.045
	c1.072-2.721,1.434-5.492,1.519-8.353c0.081-0.074,0.243-0.168,0.231-0.217c-0.048-0.184-0.152-0.353-0.235-0.527
	c-0.099-1.166-0.197-2.332-0.296-3.497c1.188-0.893,0.387-4.259,3.473-2.79c-0.001,0-0.03,0.088-0.03,0.088
	c0.019,2.932-2.246,5.317-1.829,8.42c0.291,2.17,2.349,3.824,1.633,6.209c-0.733,5.011-4.262,8.367-7.777,12.219
	c11.097,0.762,21.58,1.48,33.035,2.266c-3.35-3.451-5.312-6.563-6.441-10.148c-0.249-0.791-0.692-1.346-1.521-1.44
	c-4.359-0.498-5.959-2.82-4.75-7.063c0.1-0.349,0.033-0.745,0.043-1.12c0.109-0.775-0.086-1.38-0.913-1.632
	c0,0-0.143-0.186-0.142-0.187c1.088-3.047-2.021-4.229-2.875-6.418c-0.271-0.693-1.622-1.367,0.259-1.666
	c0.488,0.035,0.978,0.07,1.466,0.105c0.484,0.652,1.007,0.66,1.564,0.095c0.482-0.212,0.965-0.424,1.447-0.636
	c0.266-0.099,0.532-0.197,0.798-0.296c0.231,0.067,0.468,0.108,0.708,0.122c0.19,1.331,0.826,2.334,2.225,2.529
	c0.615,0.085,0.683-0.589,0.736-1.07c0.184-1.642-1.352-1.456-2.178-2.024c-0.202-0.14-0.414-0.265-0.621-0.396
	c-0.072-0.72-0.144-1.439-0.215-2.158c2.313,1.756,6.369,1.743,6.158,6.063c-0.005,0.451-0.008,0.903-0.011,1.356
	c-0.081,1.065,0.419,1.559,1.479,1.5c1.813,0.484,1.767,1.891,1.649,3.332c0.095,0.399,0.19,0.799,0.286,1.199
	c-0.513,0.096-0.978,0.437-0.833,0.898c0.094,0.298,0.724,0.427,1.114,0.631c0.327,0.73,0.466,1.683-0.265,1.997
	c-2.989,1.288-2.378,3.223-1.16,5.349c-0.07,0.641-0.129,1.278,0.58,1.644c0.889,3.13,2.834,5.513,5.314,7.518
	c3.938,4.023,4.459,4.023,6.003-0.003c0.092-0.176,0.233-0.241,0.427-0.195c0.762,0.254,1.77,0.214,1.57,1.51
	c-0.205,1.33,0.625,1.673,1.738,1.687c21.895,1.681,43.836,2.896,65.569,6.21c2.834,0.434,3.994-0.651,5.195-2.875
	c6.909-12.787,11.046-26.368,12.085-40.878c0.381-0.892,1.072-1.775,1.095-2.676c0.19-7.69,1.052-15.454-1.981-22.868
	c-0.082-1.456-0.162-2.912-0.243-4.368c0.251-0.966-0.336-2.081,0.495-3.052c0.564,2.803,2.465,5.168,1.836,8.155
	c-0.221,1.049,0.644,1.741,1.549,1.667c3.715-0.299,3.18,2.499,3.686,4.696C1316.693,381.856,1315.639,387.098,1316.636,392.195z
	 M1312.801,382.717c0.359-2.666,0.967-5.339-0.328-8.73C1311.458,378.136,1311.521,380.168,1312.801,382.717z M946.558,412.777
	c0.749-1.71,0.986-3.405-0.101-5.852C945.568,409.443,945.552,411.112,946.558,412.777z M945.304,405.198
	c0.202,0.088,0.402,0.177,0.604,0.265c0.088-0.201,0.288-0.444,0.232-0.593c-0.053-0.144-0.415-0.303-0.557-0.246
	C945.437,404.684,945.393,404.995,945.304,405.198z"/>
<path style="fill-rule:evenodd;clip-rule:evenodd;fill:#232323;" d="M1042.285,532.549c8.345-0.472,15.838-0.563,23.26-1.652
	c3.004-0.441,5.641-1.035,6.414-4.969c0.57-2.899,3.315-3.627,6-2.279c6.252,3.138,9.867,8.713,12.711,14.757
	c1.215,2.583-1.381,4.975-4.148,4.323c-2.371-0.559-4.644-1.226-5.777-3.627c-0.992-2.101-2.771-1.391-4.236-1.167
	c-3.819,0.581-7.674,1.14-11.39,2.161c-10.104,2.773-20.608,1.934-30.813,3.687c-2.817,0.483-5.628,0.828-8.301,2.073
	c-3.223,1.5-7.21,0.605-8.443-1.756c-1.701-3.26,0.013-5.785,2.242-7.971c3.176-3.112,7.207-4.861,11.152-6.75
	c2.395-1.146,4.999-2.111,6.826-5.237c-7.283-0.023-13.842,0.816-20.34,2.311c-2.787,0.642-5.462,1.748-8.391,1.813
	c-3.074,0.069-6.098-0.852-7.47-3.354c-1.423-2.597-0.12-5.63,1.559-8.077c1.469-2.143,3.628-3.415,6.168-3.926
	c7.524-1.512,15.059-2.98,22.59-4.458c0.365-0.071,0.754-0.028,1.118-0.104c8.051-1.65,10.758-4.767,10.605-12.985
	c-0.073-3.97-0.632-7.945-1.773-11.818c-0.79-2.684-1.957-3.733-5.078-3.326c-9.14,1.193-18.14,0.796-26.076-4.807
	c-1.657-1.169-4.51-2.147-3.783-4.455c0.688-2.184,2.821-3.418,5.77-3.744c6.659-0.739,13.164-2.57,19.982-2.423
	c3.375,0.073,2.549-2.737,2.143-4.743c-0.992-4.898-0.526-5.494,4.4-4.889c3.679,0.452,6.965,2.065,9.984,4.033
	c6.436,4.191,13.447,3.646,20.609,3.318c5.806-0.266,11.444,1.006,15.436,5.784c2.011,2.407,0.617,4.49-1.568,5.968
	c-3.4,2.3-7.371,2.977-11.328,3.524c-3.213,0.444-6.453,0.688-9.685,0.987c-2.003,0.184-3.106,0.85-2.927,3.248
	c0.169,2.261,0.449,4.441,1.111,6.604c0.947,3.093,1.938,6.153,1.971,9.479c0.031,3.049,1.405,4.863,4.942,4.257
	c6.579-1.127,13.175-2.008,19.87-0.745c5.309,1,9.562,4.116,14.012,6.809c1.643,0.994,2.68,2.736,2.331,4.794
	c-0.389,2.297-2.229,3.139-4.257,3.662c-2.687,0.694-5.377,1.128-8.121,0.295c-1.228-0.372-2.578-0.562-3.672,0.061
	c-6.547,3.721-13.904,2.976-20.948,3.949c-4.323,0.599-8.661,1.114-12.969,1.812c-3.995,0.645-6.321,3.737-8.881,6.438
	C1044.359,530.229,1043.636,531.059,1042.285,532.549z"/>
<path style="fill-rule:evenodd;clip-rule:evenodd;fill:#232323;" d="M1190.605,503.186c4.047,0.261,6.733,3.156,9.598,5.386
	c3.523,2.739,6.433,3.554,10.02,0.213c3.586-3.34,8.676-4.857,11.279-9.509c0.879-1.57,2.492-2.973,4.599-1.065
	c1.708,1.547,2.841,2.958,0.877,5.216c-0.946,1.088-1.5,2.597-1.963,4.003c-0.501,1.52-1.629,2.687-2.918,2.456
	c-4.978-0.889-7.575,3.668-12.28,4.54c2.75,2.321,5.539,3.291,8.164,4.532c6.432,3.039,12.884,6.06,18.406,10.641
	c4.254,3.53,4.376,5.033,1.873,9.902c-0.726,1.412-1.546,1.515-2.912,1.594c-11.729,0.675-21.577-3.954-30.477-10.945
	c-2.541-1.996-4.309-2.037-6.087,0.473c-5.37,7.576-13.09,10.771-21.933,11.907c-1.854,0.238-4.292,0.743-4.969-1.341
	c-0.788-2.425-2.683-5.578-0.271-7.711c4.015-3.55,4.817-8.243,5.967-12.932c0.089-0.359,0.356-0.694,0.378-1.051
	c0.119-1.92,2.821-3.79,0.47-5.677c-1.285-1.031-7.024,1.044-8.014,2.731c-1.772,3.021-3.734,5.894-5.832,8.695
	c-4.828,6.446-11.959,9.141-19.081,11.857c-0.529,0.201-1.203,0.026-2.06,0.026c-0.199-1.565,0.245-2.95,1.117-3.829
	c3.918-3.95,6.594-9.06,11.466-12.127c2.082-1.311,5.302-2.989,4.628-5.214c-0.555-1.829-4.204-0.635-6.476-0.663
	c-3.158-0.038-5.388,1.094-7.245,4.107c-3.002,4.869-6.412,9.385-8.146,15.011c-1.071,3.481-4.712,4.972-7.63,6.829
	c-1.111,0.707-1.961,0.141-1.922-1.223c0.04-1.389,0.438-2.672,1.322-3.817c3.117-4.037,4.511-8.808,5.6-13.674
	c0.238-1.066,0.46-2.505-0.047-3.308c-2.691-4.268-0.539-8.859-1.099-13.255c-0.344-2.689-0.433-4.758-4.089-4.558
	c-1.877,0.104-3.904-0.76-5.711-1.541c-2.717-1.174-3.131-3.364-1.857-5.895c1.375-2.729,6.569-4.88,9.653-4.225
	c3.784,0.803,7.432-0.459,11.111-1.016c7.334-1.112,14.642-0.502,21.905,0.43c2.904,0.372,6.449,1.222,6.74,4.863
	c0.26,3.273-2.654,5.034-5.365,6.023c-5.321,1.942-10.68,4.293-16.572,2.092c-0.562-0.209-1.241-0.223-1.848-0.16
	c-0.928,0.097-2.159-0.105-2.205,1.381c-0.041,1.386,1.082,1.625,2.051,1.676c5.114,0.27,10.231,0.559,15.35,0.597
	c1.527,0.011,2.973-0.007,4.335,0.667c2.774,1.374,4.138,0.18,4.893-2.485c0.641-2.266,1.372-4.478,4.251-4.943
	c1.336-0.217,1.438-1.65,1.691-2.654c1.787-7.091,5.699-13.609,5.709-21.196c0.002-0.721,0.82-1.439,1.345-2.301
	c-3.671-0.498-6.179,1.5-8.472,3.82c-2.302,2.33-4.821,3.774-8.274,3.563c-2.319-0.143-4.375-0.576-5.073-2.939
	c-0.689-2.328-1.557-5.108,0.686-6.967c5.905-4.894,10.777-10.736,15.767-16.477c1.323-1.522,2.3-0.611,2.981,0.367
	c0.84,1.205,1.654,2.617,1.865,4.031c0.521,3.484,2.559,4.066,5.686,4.118c7.711,0.128,15.384,1.165,23.124-0.257
	c4.966-0.912,9.637,0.73,13.806,3.526c1.345,0.901,2.599,2.083,2.381,3.964c-0.237,2.058-1.873,2.85-3.533,3.466
	c-1.52,0.563-3.107,0.873-4.765,0.77c-8.845-0.551-17.732-0.376-26.538-1.664c-2.164-0.316-4.428-0.584-6.888,0.496
	c1.792,1.902,3.513,3.495,4.957,5.308c3.482,4.368,4.619,9.076,1.41,14.133c-1.863,2.935-2.531,6.531-5.075,9.082
	c-0.825,0.826-0.498,1.534,0.24,2.192c-0.758-0.153-1.216,0.282-1.4,0.9c-1.42,4.729-3.184,9.403-4.037,14.235
	c-0.449,2.542,0.701,5.371,1.162,8.063c0.098,0.573,0.137,1.198,0.959,1.383c1.25,0.281,9.046-2.171,9.341-3.264
	c0.587-2.175-1.39-3.448-2.318-5.049c-1.246-2.148-2.656-4.194-3.529-6.544C1189.653,509.74,1189.305,506.485,1190.605,503.186z"/>
<path style="fill-rule:evenodd;clip-rule:evenodd;fill:#232323;" d="M1293.083,482.499c1.755-2.68,3.956-3.089,6.48-2.887
	c2.481,0.198,5.013,0.636,7.46-0.021c2.371-0.636,3.55-1.757,1.306-4.134c-1.125-1.191-3.509-2.41-2.765-3.977
	c0.876-1.842,3.551-1.466,5.501-1.586c4.622-0.288,7.813,2.546,7.46,7.233c-0.242,3.236,0.875,4.499,3.776,4.94
	c1.099,0.167,2.144,0.67,3.241,0.871c1.714,0.315,3.888,1.258,5.075,0.569c1.708-0.989,0.015-3.089-0.109-4.72
	c-0.358-4.727,2.965-7.227,7.495-5.64c2.41,0.845,4.406,2.354,6.223,4.067c3.197,3.016,6.804,4.807,11.299,5.122
	c4.389,0.309,8.544,1.717,12.197,4.31c1.813,1.287,3.34,2.828,2.654,5.283c-0.693,2.487-2.895,2.854-5.055,3.066
	c-2.777,0.273-5.523-0.24-8.148-0.956c-1.985-0.541-3.879-0.755-5.893-0.577c-1.694,0.15-3.138,0.025-4.836-1.044
	c-2.564-1.614-5.665-1.961-8.093,0.927c-1.489,1.771-3.092,3.444-4.479,5.625c3.069-0.896,5.635-0.487,8.495,0.612
	c3.083,1.184,6.666,0.522,10.032,0.194c3.24-0.315,6.491-0.558,9.71,0.083c3.688,0.734,4.453,2.812,2.22,5.885
	c-1.27,1.747-2.985,3.022-4.799,4.134c-2.018,1.236-4.127,2.326-6.176,3.516c-4.685,2.72-5.008,3.566-1.67,7.896
	c2.73,3.541,4.882,7.127,5.29,11.719c0.234,2.63,2.785,3.316,4.841,4.104c2.813,1.076,4.253,2.873,3.966,5.97
	c-0.224,2.411-1.188,4.152-3.848,4.078c-3.608-0.101-5.697,2.136-7.643,4.64c-1.247,1.604-2.512,3.088-4.652,3.524
	c-6.585,1.342-13.123,3.056-19.886,3.168c-5.176,0.087-7.798-1.77-8.285-5.456c-0.207-1.563-0.26-2.512,2.055-1.981
	c4.288,0.98,8.709,0.539,13.061,0.15c1.576-0.141,3.141-0.76,4.637-1.348c1.626-0.638,3.65-1.468,3.467-3.437
	c-0.19-2.017-2.461-1.152-3.747-1.412c-5.131-1.037-10.438-0.807-15.569-2.002c-2.092-0.486-4.549-0.711-5.464-2.785
	c-1.281-2.905-2.512-1.426-3.651-0.268c-3.162,3.217-7.104,5.034-11.251,6.455c-4.375,1.499-9.759-1.018-11.159-5.099
	c-0.364-1.063-0.689-2.333,0.009-3.254c0.901-1.187,1.696,0.274,2.565,0.45c1.893,0.379,3.843,0.127,5.381-0.85
	c4.561-2.896,8.615-6.387,11.444-11.115c1.296-2.166,1.216-3.422-1.776-3.318c-3.624,0.124-7.207-0.61-10.779-0.81
	c-3.039-0.169-4.759,2.78-5.555,5.603c-1.606,5.697-3.871,11.074-7.476,15.779c-2.036,2.656-4.598,4.617-8.334,3.812
	c-2.442-0.526-3.372-1.567-2.188-4.192c1.115-2.473,3.018-4.255,4.592-6.32c4.436-5.824,7.361-12.371,9.695-19.26
	c0.94-2.777,1.591-5.804,4.204-7.733c0.362-0.268,0.761-0.854,0.719-1.248c-0.619-5.881,2.345-10.875,4.099-16.126
	c1.167-3.493-0.049-4.817-3.169-5.949c-2.81-1.021-4.794-1.945-7.808,0.473c-3.654,2.933-7.008,1.918-10.733-1.297
	c-4.076-3.517-8.089-7.087-11.164-11.554c-1.376-1.997-2.462-4.069-1.031-6.585c1.438-2.532,3.737-3.138,6.366-3.061
	c6.162,0.181,11.444,1.904,14.88,7.638C1289.641,475.49,1291.453,478.584,1293.083,482.499z M1331.412,500.288
	c-6.607-0.068-7.883-2.239-4.479-7.901c1.509-2.51-0.274-2.479-1.674-2.716c-3.902-0.661-7.697,0.978-11.534,0.772
	c-3.098-0.166-3.425,1.711-3.109,3.643c0.847,5.177-1.871,8.732-4.979,12.178c-0.813,0.899-2.247,1.585-1.945,2.899
	c0.259,1.122,1.698,1.401,2.785,1.563c6.257,0.938,12.218,3.275,18.547,3.869c4.497,0.421,6.29,3.941,3.768,7.669
	c-1.318,1.948-3.16,3.535-4.594,5.416c-1.121,1.471-2.668,2.953-1.623,5.258c2.272-0.955,4.235-1.653,6.593-0.424
	c4.93,2.569,10.355,2.393,15.714,2.127c1.501-0.074,3.273-0.64,2.579-2.74c-1.528-4.615-2.822-9.456-8.067-11.53
	c-1.907-0.754-2.226-3.194-0.537-4.536c0.841-0.667,1.985-0.98,3.028-1.36c3.713-1.355,6.811-3.529,9.304-6.851
	c-4.67,0.167-9.244-0.497-13.663,0.942c-2.637,0.858-5.016,0.244-6.926-1.465c-1.921-1.717-0.571-3.665,0.291-5.46
	C1331.089,501.225,1331.226,500.775,1331.412,500.288z"/>
<path style="fill-rule:evenodd;clip-rule:evenodd;fill:#3DAB38;" d="M1132.592,341.272c-0.063,1.777,1.322,2.857,2.039,4.261
	c2.045,4.009,2.863,8.041,0.115,12.101c-0.41-2.652-1.591-3.249-4.137-2.039c-2.394,1.138-5.395,1.532-7.535,0.019
	c-5.318-3.76-11.485-5.548-17.462-7.273c-10.318-2.978-20.575-5.915-30.165-10.845c-0.758-0.39-1.638-0.558-2.476-0.776
	c-5.157-1.343-10.414-2.362-15.346-4.451c-1.72-0.727-4.134-1.715-0.332-3.175c1.069-0.41,0.919-1.366,0.946-2.219
	c0.07-2.214-0.336-4.485,1.277-6.444c0.432-0.523,0.407-1.56-0.279-2.051c-0.893-0.637-1.661-0.118-2.205,0.67
	c-0.625,0.906-1.045,1.604-2.535,1.662c-6.272,0.242-12.088,2.73-17.801,4.893c-8.199,3.104-16.328,6.373-24.744,8.85
	c-3.607,1.061-6.781,2.382-6.469,7c-0.488-0.022-1.021-0.184-1.461-0.048c-4.799,1.48-7.609,0.604-10.311-3.521
	c-3.563-5.443-2.431-10.831,0.464-16.119c0.821-1.5,2.3-2.657,2.357-4.553c1.974,0.617,4.059,0.449,5.818-0.277
	c3.337-1.378,6.513-3.031,10.297-2.75c1.308,0.097,1.997-0.831,2.102-2.133c5.255-0.601,10.513,1.887,15.766-0.011
	c0.742,0.95,1.96,1.005,2.74,0.639c4.138-1.946,9.059-1.059,12.981-3.675c5.17-2.199,10.562-3.804,15.135-7.414
	c2.356-1.859,4.898-3.595,7.381-5.35c2.344-1.632,5.279-1.233,7.861-1.937c-0.316-1.555-2.529-0.532-2.272-2.226
	c0.107-0.714,0.491-1.453,1.308-1.667c1.475-0.387,1.854,0.536,2.248,1.743c0.529,1.628,2.045,1.147,3.183,0.971
	c1.428-0.222,0.739-1.212,0.484-2.007c-0.239-0.746-1.159-1.709,0.111-2.183c0.998-0.373,2.323-0.576,3.172,0.309
	c0.739,0.771-0.071,1.542-0.467,2.317c-0.494,0.97-1.981,1.832-0.639,3.194c-0.101,0.732-0.201,1.466-0.302,2.198
	c-0.395,0.257-0.789,0.514-1.184,0.771c0.211,0.534,0.422,1.067,0.632,1.602c-2.165,0.93-4.452,1.203-6.781,1.4
	c-3.653,0.309-6.933,3.643-7.462,7.419c-2.758,1.504-0.841,4.101-1.427,6.112c-4.103,3.325-4.501,5.385-1.037,7.233
	c5.233,2.793,10.675,5.197,16.027,7.767c0.633,0.024,1.216,0.146,1.526,0.791c0.038,0.738-0.094,1.664,0.715,1.983
	c7.388,2.929,14.613,6.349,22.871,6.263c6.054-0.064,12.21-0.786,18.067,1.523C1127.718,340.739,1130.024,341.611,1132.592,341.272z
	"/>
<path style="fill-rule:evenodd;clip-rule:evenodd;fill:#232323;" d="M883.781,536.516c-5.401,0.693-8.863-2.294-11.387-6.962
	c-1.027-1.903-1.483-3.783-0.076-5.563c1.389-1.755,3.355-0.718,4.785-0.205c2.768,0.991,5.502,1.51,8.377,1.064
	c2.727-0.423,3.97-1.354,3.867-4.876c-0.218-7.563-2.418-14.441-5.298-21.214c-1.347-3.167-3.368-5.761-7.053-6.664
	c-4.872-1.194-7.316-5.744-11.12-8.444c-0.939-0.666-1.514-2.146-0.998-3.407c0.604-1.478,2.124-1.085,3.305-1.038
	c3.166,0.127,6.138-0.709,9.19-1.371c6.148-1.335,12.347-2.535,18.583-3.342c5.821-0.752,10.688,1.715,14.865,5.678
	c1.66,1.576,1.779,3.408,0.432,4.998c-2.075,2.449-3.872,5.246-6.856,6.779c-1.777,0.912-2.571,2.313-2.291,4.268
	c0.472,3.297-0.322,6.286-1.773,9.25c-2.193,4.48,2.458,13.455,7.375,14.15c2.787,0.395,4.779,2.129,6.773,3.651
	c1.564,1.194,1.594,3.392-0.069,4.94c-1.728,1.609-3.547,3.142-5.459,4.523c-1.592,1.151-2.07,2.731-1.348,4.245
	c0.895,1.87,2.328,0.22,3.532,0.007c1.3-0.23,2.83-1.588,3.818-0.449c0.832,0.959-0.259,2.547-0.599,3.824
	c-0.616,2.322-2.262,3.84-4.313,4.911c-9.825,5.128-20.096,9.27-30.264,13.637c-1.188,0.51-2.365,0.772-3.627,0.611
	c-2.406-0.309-4.922-0.73-5.598-3.507c-0.633-2.601,1.586-3.747,3.349-4.824c2.223-1.359,4.513-2.74,6.956-3.576
	c3.288-1.123,5.186-3.803,7.604-5.9c1.331-1.155,0.934-2.767,0.58-4.216c-0.47-1.921-2.023-0.818-3.113-0.964
	C885.318,536.449,884.686,536.516,883.781,536.516z"/>
<path style="fill-rule:evenodd;clip-rule:evenodd;fill:#D73B3C;" d="M1235.908,278.216c10.535-2.642,19.509-0.419,26.27,8.521
	c5.523,7.304,5.852,17.798,0.877,25.697c-4.947,7.853-14.877,12.279-23.546,10.495c-9.599-1.975-16.86-9.239-18.617-18.285
	c-1.294-6.664,0.486-12.56,3.844-18.181C1227.84,282.876,1231.578,280.144,1235.908,278.216z"/>
<path style="fill-rule:evenodd;clip-rule:evenodd;fill:#232323;" d="M937.501,532.813c0.096,9.457-0.445,10.403-8.354,13.083
	c-4.515,1.53-8.581,3.959-12.913,5.838c-1.021,0.443-2.067,0.908-3.149,1.105c-1.201,0.218-2.65,0.439-3.25-1.055
	c-0.56-1.392,0.389-2.346,1.38-3.179c2.421-2.033,5.26-3.443,8.147-4.508c8.532-3.143,8.559-10.193,8.106-17.324
	c-0.13-2.045,1.453-4.688-0.308-5.93c-1.347-0.948-3.853-0.215-5.841-0.296c-5.566-0.228-8.752-4.123-7.811-9.512
	c0.688-3.936,3.425-5.058,6.403-2.617c1.356,1.111,2.776,1.404,4.511,0.814c8.827-3.006,17.598-6.189,26.829-7.858
	c3.673-0.665,7.222-0.493,10.708,0.626c1.935,0.621,3.769,1.782,4.017,4.023c0.266,2.388-1.198,4.043-3.23,5.02
	c-1.785,0.857-3.681,1.513-5.574,2.107c-2.697,0.847-4.024,2.579-4.33,5.405c-0.623,5.77,0.741,11.442,0.657,17.19
	c-0.034,2.391,1.946,3.295,4.179,3.346c4.475,0.102,8.653-1.223,12.592-3.121c2.791-1.347,2.718-4.222,2.669-6.895
	c-0.038-2.065-1.248-5.129,0.371-5.933c1.938-0.962,2.991,2.334,4.705,3.44c1.039,0.669,1.883,1.633,2.866,2.397
	c6.24,4.848,5.552,11.376-1.642,14.588c-3.194,1.426-6.519,2.286-10.142,2.16c-2.84-0.101-5.725,0.354-8.553,0.797
	c-3.421,0.534-6.746,0.136-10.013-0.741c-2.841-0.763-4.559-2.564-5.339-5.615c-1.563-6.104-0.152-11.841,1.409-17.64
	c0.476-1.767,2.249-4.12-0.216-5.241c-2.059-0.936-3.256,1.295-4.583,2.883C938.469,524.161,937.09,528.611,937.501,532.813z"/>
<path style="fill-rule:evenodd;clip-rule:evenodd;fill:#2FA83B;" d="M1005.484,341.454c-0.313-4.617,2.861-5.938,6.469-7
	c8.416-2.477,16.545-5.746,24.744-8.85c5.713-2.163,11.528-4.65,17.801-4.893c1.49-0.058,1.91-0.756,2.535-1.662
	c0.544-0.788,1.313-1.307,2.205-0.67c0.687,0.491,0.711,1.527,0.279,2.051c-1.613,1.959-1.207,4.23-1.277,6.444
	c-0.027,0.853,0.123,1.809-0.946,2.219c-3.802,1.46-1.388,2.448,0.332,3.175c4.932,2.088,10.188,3.108,15.346,4.451
	c0.838,0.219,1.718,0.387,2.476,0.776c9.59,4.931,19.847,7.867,30.165,10.845c5.977,1.725,12.144,3.513,17.462,7.273
	c2.141,1.513,5.142,1.119,7.535-0.019c2.546-1.21,3.727-0.614,4.137,2.039c-1.69,2.783-3.934,4.467-7.336,3.314
	c-1.264-0.428-1.962,0.029-2.386,1.014c-2.001,4.649-5.622,5.406-10.059,4.31c0,0,0.156-0.263,0.157-0.264
	c-0.615-2.25-2.139-3.348-4.313-4.186c-4.294-1.654-8.992-2.231-13.039-4.252c-3.534-1.764-6.747-4.216-10.842-4.25
	c-2.486-0.02-4.529-0.974-6.756-1.786c-9.691-3.533-19.421-6.971-29.232-10.149c-1.883-0.61-3.247-0.818-3.242-3.12
	c0.004-1.743-1.469-2.904-2.707-2.081c-4.75,3.157-10.696,2.139-15.533,4.816c-1.615,0.894-3.223,1.844-5.236,1.794
	c-1.959-0.049-2.421,1.06-1.438,2.666c0.396,0.646,1.115,1.214,0.26,1.857c-0.83,0.624-1.258-0.375-1.852-0.717
	c-3.515-2.028-7.116-1.11-8.756,2.214c-1.691,0.012-2.837-0.896-3.74-2.214c-0.232-2.229-0.217-4.611-3.186-5.147H1005.484z"/>
<path style="fill-rule:evenodd;clip-rule:evenodd;fill:#90C350;" d="M1000.461,293.084c2.384-2.517,5.688-3.718,8.346-5.845
	c1.416-3.882,0.306-8.119,1.885-12.197c0.91,1.688,2.451,2.031,4.125,1.556c2.867-0.817,5.695-1.771,8.542-2.663
	c6.518-2.045,12.546-5.411,19.214-7.069c3.353-0.834,7.256-1.093,9.814-3.046c2.813-2.148,4.673-3.158,7.396-0.585
	c1.03,1.643,2.776,1.201,4.278,1.472c4.146,0.041,7.753,1.708,11.246,3.721c0.974,3.519,4.192,6.157,3.976,10.143
	c-0.003,0.974,0.179,2.003-0.781,2.701c-0.071-0.863,0.057-1.811-0.261-2.571c-0.506-1.211-0.687-2.929-2.193-3.241
	c-1.81-0.376-2.073,1.46-2.684,2.587c-0.764,1.411-1.833,2.196-3.383,2.657c-4.278,1.273-8.535,2.629-12.753,4.09
	c-13.227,4.581-26.42,9.263-39.651,13.831c-7.224,2.493-14.324,5.597-22.243,5.07c0.841-3.539,3.058-6.46,4.392-9.777
	c0,0-0.045,0.071-0.045,0.07C999.94,293.686,1000.2,293.385,1000.461,293.084z"/>
<path style="fill-rule:evenodd;clip-rule:evenodd;fill:#8B5743;" d="M1107.843,424.478c-0.162,6.742-0.162,6.743-7.008,6.74
	c-4.72-0.002-9.445-0.114-14.161,0.04c-2.336,0.076-3.283-0.809-2.883-3.006c0.711-3.903-0.971-5.091-4.664-4.602
	c-1.823,0.241-3.713-0.026-5.578-0.063c2.541-0.763,5.166-0.508,7.752-0.485c2.035,0.017,3.015-0.387,3.341-2.765
	c1.138-8.286,1.22-16.601,1.399-24.932c0.119-5.557-1.51-10.504-4.115-15.253c-2.445-4.457-4.896-8.909-7.344-13.364
	c3.453,1.878,5.479,5.26,8.262,7.843c-0.048,0.024-0.097,0.048-0.145,0.072c0.111,0.103,0.222,0.205,0.332,0.307l0.018-0.091
	c0.751,1.801,1.978,3.18,3.831,4.635c0.139-1.528,0.235-2.592,0.332-3.657c2.88-0.68,5.229,1.691,8.153,1.313
	c2.268-0.293,4.197-2.133,6.646-1.347c0.195,1.38-0.493,2.901,0.519,4.217c4.068-2.558,5.774-4.503,6.743-7.614
	c1.334-2.277,3.438-3.855,5.218-5.726l0.083,0.064c-0.841,6.095-4.151,10.783-8.516,14.851c-2.674,2.492-4.013,5.41-3.709,9.17
	c0.439,5.439-0.275,11.153,1.166,16.281C1105.135,412.867,1105.444,418.941,1107.843,424.478z"/>
<path style="fill-rule:evenodd;clip-rule:evenodd;fill:#57A442;" d="M1075.308,268.427c-3.493-2.013-7.1-3.68-11.246-3.721
	c9.273-3.446,19.03-4.688,28.74-5.825c24.119-2.823,48.298-2.779,72.417-0.023c18.482,2.112,36.594,6.02,53.965,12.902
	c0.566,0.224,1.174,0.345,1.762,0.514c1.119,0.831,2.359,1.369,3.742,1.57c0,0-0.017-0.023-0.017-0.024
	c0.717,0.456,1.382,1.051,2.16,1.341c2.173,0.81,2.567,1.36,0.684,3.405c-2.761,2.998-5.294,1.435-8.029,0.592
	c-9.502-4.505-19.614-7.217-29.757-9.673c-22.147-5.363-44.67-7.6-67.449-6.943C1106.444,262.998,1090.748,264.734,1075.308,268.427
	z"/>
<path style="fill-rule:evenodd;clip-rule:evenodd;fill:#90C350;" d="M1068.646,308.148c0.53-3.776,3.81-7.11,7.463-7.419
	c2.329-0.197,4.616-0.47,6.782-1.401c1.114-0.059,2.198-0.188,3.246,0.48c3.056,1.946,6.581,2.757,9.938,3.972
	c6.632,2.401,13.34,4.614,19.86,7.285c2.14,0.876,3.72,2.418,4.579-1.059c2.545,2.707,0.516,6.122,2.159,8.733
	c0.282,1.209,1.363,1.212,2.261,1.593c4.629,1.966,7.658,5.256,8.32,10.414c-0.992,0.031-1.5,0.524-1.465,1.536l-0.009,0.008
	c-1.09-0.187-2.407-0.044-3.233-0.612c-6.421-4.414-14.221-4.648-21.26-7.162c-7.423-2.651-15.08-4.548-22.186-8.208
	c-3.535-1.82-7.537-3.595-11.649-3.438C1069.681,313.015,1068.141,311.879,1068.646,308.148z"/>
<path style="fill-rule:evenodd;clip-rule:evenodd;fill:#57A442;" d="M1175.151,367.863c1.904-4.166,4.497-6.911,9.598-4.907
	c1.678,0.659,2.56-0.473,3.094-1.86c1.027-2.672,2.078-5.228,4.054-7.487c1.505-1.721-0.324-3.608-1.614-4.646
	c-2.708-2.182-3.349-4.588-1.655-7.505c1.844-3.177,6.396-4.81,9.426-3.549c2.233,0.929,3,2.713,3.129,5.036
	c0.132,2.368,0.156,4.885,3.889,4.385c1.959-0.263,3.416,1.26,4.813,2.538c2.208,2.018,4.228,4.361,6.735,5.9
	c3.975,2.439,5.461,6.273,6.98,10.238c1.594,4.164-0.613,7.477-2.485,10.79c-0.581,1.031-2.099,0.585-3.175,0.562
	c-3.219-0.069-5.129,1.072-5.417,4.593c-0.161,1.953-0.963,3.854-1.476,5.779c-1.373-1.034,0.7-2.771-0.953-3.94
	c-3.004-2.122-3.246-3.455-1.566-6.248c0.956-1.591,2.086-3.079,3.011-4.687c1.339-2.326-1.105-2.883-2.074-4.111
	c-0.175-0.222-0.234-0.124-1.028,2.145c-0.187,0.534-0.697,1.119-1.208,1.35c-4.097,1.856-5.955,5.408-7.086,9.422
	c-0.587,2.083-1.074,0.109-1.597,0.099c1.695-3.492,1.431-8.105,5.944-10.009c0.845-0.356,2.38-0.987,1.972-2.317
	c-0.369-1.202-1.805-2.098-2.936-1.973c-4.884,0.538-9.924-1.063-14.68,1.051c0.135-0.457,0.123-1.119,0.429-1.339
	c3.188-2.292,3.714-5.283,1.453-8.997c-1.423,4.668-3.802,8.475-8.719,10.061c0.031-1.279,3.122-1.865,1.059-3.395
	c-1.005-0.745-2.972-0.788-4.073,0.556c-0.729,0.89-1.845,2.215-1.069,3.211c1.027,1.321,2.457,0.056,3.691-0.33
	c0.114-0.035,0.245-0.02,0.368-0.028c0.141,2.313-2.965,3.411-2.225,5.947c-0.468,0.051-0.935,0.102-1.402,0.153l-0.24-0.24
	C1179.127,371.08,1177.054,369.512,1175.151,367.863z"/>
<path style="fill-rule:evenodd;clip-rule:evenodd;fill:#A9D069;" d="M1059.783,263.234c-2.724-2.573-4.584-1.563-7.396,0.585
	c-2.559,1.954-6.462,2.212-9.814,3.046c-6.668,1.658-12.696,5.024-19.214,7.069c-2.847,0.892-5.675,1.846-8.542,2.663
	c-1.674,0.476-3.215,0.133-4.125-1.556c-1.579,4.078-0.469,8.314-1.885,12.197c-3.703-15.598,10.545-36.468,24.457-39.921
	C1047.203,243.858,1058.084,252.072,1059.783,263.234z"/>
<path style="fill-rule:evenodd;clip-rule:evenodd;fill:#A9D069;" d="M1122.673,318.74c-1.644-2.611,0.386-6.026-2.159-8.733
	c-0.859,3.477-2.439,1.935-4.579,1.059c-6.521-2.671-13.229-4.884-19.86-7.285c-3.356-1.215-6.882-2.026-9.938-3.972
	c-1.048-0.667-2.132-0.539-3.246-0.48c-0.211-0.533-0.422-1.067-0.633-1.601c0.499-0.096,1.113-0.018,1.184-0.771
	c0.101-0.732,0.201-1.466,0.302-2.199c1.771-1.813,3.578-3.598,4.521-6.032c0.486-0.063,1.092,0.038,1.441-0.214
	c8.174-5.913,18.465-1.829,25.025,5.256C1121.146,300.697,1124.734,308.922,1122.673,318.74z"/>
<path style="fill-rule:evenodd;clip-rule:evenodd;fill:#232323;" d="M933.146,486.477c0.491-0.945,0.981-1.892,1.68-3.237
	c-4.63-0.33-8.912-0.555-13.176-0.968c-3.116-0.301-6.202-0.916-8.438-3.417c-0.939-1.052-1.516-2.391-1.086-3.797
	c0.518-1.698,2.036-1.013,3.192-1.019c4.008-0.021,7.812-0.949,11.709-1.878c9.809-2.339,19.814-1.575,29.73-0.491
	c2.275,0.248,3.976,2.374,4.527,4.513c0.45,1.747-1.238,3.151-2.643,4.194c-2.129,1.58-4.496,2.613-7.224,2.703
	c-6.212,0.205-12.843-1.571-17.833,4.547C933.439,487.243,933.293,486.859,933.146,486.477z"/>
<path style="fill-rule:evenodd;clip-rule:evenodd;fill:#3C9923;" d="M1198.545,381.76c0.522,0.01,1.01,1.983,1.597-0.099
	c1.131-4.014,2.989-7.566,7.086-9.422c0.511-0.231,1.021-0.816,1.208-1.35c0.794-2.269,0.854-2.367,1.028-2.145
	c0.969,1.228,3.413,1.785,2.074,4.111c-0.925,1.607-2.055,3.096-3.011,4.687c-1.68,2.793-1.438,4.126,1.566,6.248
	c1.653,1.169-0.42,2.906,0.953,3.94c-0.15,0.555-0.301,1.108-0.451,1.662c-0.158,0.167-0.151,0.328,0.022,0.481
	c0.194,0.328,0.389,0.655,0.583,0.982c-0.021,1.403-2.422,2.255-1.108,3.844c0.972,1.175,2.503,0.403,3.798,0.357
	c0.183-0.02,0.303,0.059,0.357,0.234c0.191,0.442,0.436,0.519,0.753,0.114c7.731-1.941,14.57,5.64,16.521,13.767
	c2.076,8.654,0.748,16.677-5.287,23.577c-1.113-0.014-1.943-0.356-1.738-1.687c0.199-1.296-0.809-1.256-1.57-1.51
	c6.261-5.347,7.711-16.908,3.112-24.666c-1.464-2.471-3.605-4.147-6.276-5.007c-1.139-0.366-3.064-0.86-2.222,1.729
	c-0.395,0.405-0.79,0.812-1.184,1.216c-1.892-2.834-1.892-2.834-3.481-0.795c-0.588,0.288-0.776,0.802-0.8,1.41l-0.142,0.143
	c-1.197,0.249-2.395,0.497-3.592,0.746c0.211-4.32-3.845-4.308-6.157-6.063c-0.318,0.043-0.638,0.086-0.957,0.13
	c-1.429-3.76-2.856-7.52-4.284-11.279c0.124-1.412-0.598-1.283-1.502-0.824c-0.244,0.03-0.467-0.023-0.67-0.163
	c-0.084-1.606,1.686-1.104,2.248-1.974c0.275-0.3,0.55-0.601,0.824-0.9c0.17-0.346,0.34-0.692,0.51-1.039
	C1198.314,382.019,1198.379,381.868,1198.545,381.76z M1205.078,381.184c-0.304-0.326-0.479-0.678-0.717-0.729
	c-0.279-0.058-0.777,0.055-0.891,0.256c-0.284,0.505,0.023,0.878,0.57,0.885C1204.331,381.6,1204.624,381.374,1205.078,381.184z"/>
<path style="fill-rule:evenodd;clip-rule:evenodd;fill:#3C9923;" d="M948.75,399.75c-1.046-0.248-1.854,0.437-2.756,0.762
	c-0.687-2.064,0.356-4.343-1.185-6.312c0.135,3.23-1.877,6.137-0.997,9.45c0.369,1.388-0.163,2.617-1.162,3.636
	c-2.837-12.55-2.583-25.138-0.304-37.716c1.021-5.628,2.537-11.137,5.04-16.323c0.665-0.083,1.544,0.163,1.722-0.773
	c0.045-0.234-0.585-0.597-0.905-0.9c0.204-0.44,0.408-0.88,0.612-1.319c0.349,0.069,0.893,0.319,1.019,0.183
	c4.103-4.447,4.116-4.45,6.727,1.014c-1.705,4.936-3.561,9.808-4.953,14.862C948.581,377.305,948.54,388.506,948.75,399.75z
	 M952.501,352.814c0.214-0.383,0.498-0.765,0.64-1.193c0.09-0.271,0.078-0.802-0.416-0.646c-0.269,0.085-0.439,0.55-0.604,0.87
	C951.955,352.172,951.854,352.53,952.501,352.814z"/>
<path style="fill-rule:evenodd;clip-rule:evenodd;fill:#3C9923;" d="M1187.563,402.465c-3.086-1.469-2.285,1.897-3.473,2.79
	c-1.271-3.1-1.525-6.771-4.858-8.893c-2.708,4.214-3.506,9.052-5.862,13.277c-1.625,2.915-3.324,0.795-4.618,0.75
	c-1.929-0.065-1.059-2.102-0.642-3.287c1.279-3.631,2.733-7.201,4.04-10.823c0.841-2.33,0.433-4.28-2.315-4.839
	c-5.609-1.141-13.447,5.029-13.898,10.808c-0.407,5.235-0.499,10.435,1.442,15.447c-0.24-0.036-0.48-0.076-0.722-0.109
	c-1.441-0.193-0.344-3.013-2.04-2.374c-2.054,0.773-0.009,2.566-0.335,3.888c-0.107,0.439,0.119,0.961,0.193,1.445l-0.221,0.201
	c-3.883-6.662-4.302-13.392-1.942-20.88c1.421-4.509,3.293-8.054,7.093-10.666c1.076,0.07,2.188,0.203,2.368-1.326
	c0.374-0.1,0.747-0.199,1.121-0.299c4.12-0.338,8.266,0.648,12.375-0.237c0.173-0.167,0.373-0.287,0.601-0.364
	c1.722-1.526,1.722-1.526,0.209-2.215c0.015-0.247,0.03-0.494,0.046-0.741c1.613-0.221,3.463,0.653,4.708-1.359
	c0.27-0.436,1.842-1.47,2.766,0c0.637,1.172,1.274,2.344,1.91,3.516c-1.266,0.288-3.021-0.573-3.521,1.505
	c-0.254,0.522-0.51,1.045-0.765,1.567c-0.911,0.774-1.069,1.523,0.071,2.23C1184.28,394.629,1186.618,398.148,1187.563,402.465z
	 M1174.248,399.194c-1.612,2.583-2.802,5.284-2.969,8.335C1172.814,404.938,1174.156,402.28,1174.248,399.194z M1179.714,388.349
	c-0.138-0.738-0.435-1.234-0.956-0.961c-0.306,0.16-0.449,0.809-0.488,1.252c-0.04,0.465,0.161,1.065,0.793,0.72
	C1179.413,389.168,1179.56,388.604,1179.714,388.349z M1174.748,398.352c0.961-0.953,1.693-1.719,0.898-3.137
	C1174.825,396.059,1174.172,396.794,1174.748,398.352z"/>
<path style="fill-rule:evenodd;clip-rule:evenodd;fill:#3C9923;" d="M1316.636,392.195c-0.997-5.098,0.058-10.339-1.116-15.436
	c-0.506-2.198,0.029-4.996-3.686-4.696c-0.905,0.073-1.77-0.619-1.549-1.667c0.629-2.987-1.271-5.353-1.836-8.155
	c-0.831,0.971-0.244,2.085-0.494,3.051c-0.455-0.028-0.908-0.057-1.363-0.085l-0.023-0.081c-0.032-1.496,0.056-3.006-0.123-4.485
	c-0.348-2.9-1.561-5.403-3.845-7.315c-0.96-2.256-1.921-4.512-2.882-6.768c0.001-1.484,0.033-2.986-1.862-3.446
	c0,0-0.036-0.076-0.034-0.077c-0.132-3.053-0.94-5.715-4.069-7.032c-0.181-0.072-0.24-0.201-0.179-0.386
	c0.029-0.52-0.2-0.871-0.685-1.057c0,0,0.03,0.047,0.03,0.046c-0.203-0.292-0.406-0.583-0.609-0.875l-0.021-0.036
	c0.922-1.941,0.605-3.018-1.826-2.621c0,0-0.043-0.059-0.042-0.059c0.392-1.157-0.08-1.691-1.244-1.726
	c-1.138-0.687-1.677-1.821-2.22-2.955c0.094-1.73-0.229-3.12-2.432-2.973c-0.249-0.023-0.407-0.156-0.475-0.397
	c-0.032-0.636-0.305-1.063-0.989-1.129c-0.673-0.779-1.345-1.558-2.019-2.336c1.487-0.248,2.974-0.495,4.461-0.743l-0.01-0.012
	c0.435,3.488,5.051,4.613,3.982,8.949c0.424-0.147,0.847-0.296,1.27-0.443c0-1.582,0-3.165,0-4.747l0.006-0.006
	c0.3-0.381,0.6-0.763,0.899-1.144c0.189,0.19,0.378,0.378,0.566,0.568c-0.036,1.134,0.146,2.095,1.622,2.013
	c0,0-0.023-0.028-0.023-0.027c0.228,0.281,0.454,0.563,0.682,0.845v0.001c-0.001,0.677,0.144,1.249,0.961,1.338l-0.172,0.115
	c0,0,0.153-0.139,0.152-0.139c-0.207,1.094,0.25,1.641,1.359,1.649l-0.012-0.014c-0.065,0.923,0.307,1.507,1.267,1.634l0.104,0.113
	c-0.091,2.196,0.963,3.605,2.986,4.352l0.038,0.077c0.322,1.708-0.361,4.023,2.526,4.172c-0.217,0.954,0.086,1.575,1.113,1.728
	C1314.445,355.969,1318.151,373.493,1316.636,392.195z M1292.832,328.445c-0.059-0.078-0.117-0.155-0.176-0.233
	c-0.071,0.064-0.144,0.13-0.215,0.195c0.097,0.1,0.193,0.2,0.291,0.3C1292.766,328.62,1292.799,328.533,1292.832,328.445z"/>
<path style="fill-rule:evenodd;clip-rule:evenodd;fill:#232323;" d="M1151.898,484.166c0.164-4.769-1.033-8.205-3.064-11.667
	c-3.047-5.198-3.307-11.091-2.027-16.937c0.71-3.242,2.002-3.543,5.041-2.088c7.373,3.532,11.606,8.96,11.593,17.457
	c-0.005,2.803-0.964,4.678-3.082,6.313C1157.726,479.277,1154.579,480.646,1151.898,484.166z"/>
<path style="fill-rule:evenodd;clip-rule:evenodd;fill:#9EA095;" d="M958.194,574.157c18.689-4.487,36.818-7.44,55.225-8.708
	c7.327-0.506,14.633-1.33,21.951-1.969c1.359-0.118,2.776-0.258,4.092-0.003c1.282,0.249,3.005,0.644,3.011,2.312
	c0.004,1.596-1.582,2.256-2.906,2.463c-2.824,0.439-5.689,0.643-8.543,0.876c-23.697,1.935-47.395,3.856-71.094,5.759
	C959.631,574.91,959.309,574.638,958.194,574.157z"/>
<path style="fill-rule:evenodd;clip-rule:evenodd;fill:#9EA095;" d="M1288.641,572.834c-5.246,1.527-10.4,0.327-15.572-0.002
	c-11.941-0.76-23.863-1.82-35.788-2.809c-8.573-0.711-17.138-1.519-25.709-2.25c-2.04-0.174-4.703-0.419-4.45-2.769
	c0.213-1.964,2.902-2.457,4.977-2.306c5.722,0.418,11.439,0.888,17.152,1.412c16.751,1.539,33.511,3.026,49.981,6.674
	C1282.365,571.479,1285.504,572.152,1288.641,572.834z"/>
<path style="fill-rule:evenodd;clip-rule:evenodd;fill:#3DAB38;" d="M956.561,351.45c-2.61-5.464-2.624-5.461-6.727-1.014
	c-0.126,0.137-0.67-0.113-1.019-0.183c3.779-8.9,9.159-16.775,15.425-24.084c0.578-0.133,0.859-0.507,0.886-1.089
	c-0.047-0.179,0.021-0.281,0.204-0.308c2.201,0.057,3.199-0.936,2.768-3.174c0,0-0.032,0.042-0.031,0.042
	c0.707-0.103,0.919-0.591,0.95-1.22c0.016-0.207,0.127-0.314,0.336-0.319c2.006-0.201,2.325,1.998,4.021,3.166
	c-0.02-2.438,0.641-4.528-2.314-4.946c-0.036-0.189,0.042-0.291,0.234-0.305c0.239-0.249,0.479-0.498,0.719-0.747l0.008-0.007
	c1.001-0.026,1.494-0.535,1.466-1.542l-0.013,0.013c1.016,0.024,1.526-0.47,1.522-1.489c0,0,0.001-0.001,0.001,0
	c0.244-0.262,0.487-0.524,0.73-0.785l-0.016,0.019c0.26-0.249,0.519-0.499,0.777-0.748l-0.005,0.004
	c0.785-0.104,1.688,0.395,2.327-0.456c-0.443-0.165-0.887-0.331-1.329-0.496c0.181-0.17,0.361-0.34,0.542-0.511
	c0.951-0.018,1.465-0.491,1.515-1.45l0.042-0.03c2.797-0.062,4.815-1.587,6.563-3.56c0.463-0.522,0.918-0.942,1.523-0.453
	c0.322,0.261,0.643,0.911,0.534,1.246c-0.337,1.038-0.233,2.538-1.307,2.983c-4.403,1.825-5.967,6.56-9.624,9.124
	c-1.197,0.84-1.762,2.074-1.419,3.594c-0.166,0.21-0.332,0.421-0.498,0.631c-0.794,0.021-1.067,0.52-1.122,1.22
	C967.244,332.814,961.231,341.691,956.561,351.45z"/>
<path style="fill-rule:evenodd;clip-rule:evenodd;fill:#232323;" d="M1273.666,527.342c-3.602,0.527-6.58-0.982-9.476-2.798
	c-2.704-1.695-4.791-3.865-4.147-7.296c0.674-3.588,2.4-6.454,6.278-7.647c2.271-0.698,3.941,0.021,5.431,1.468
	c2.954,2.868,5.963,5.619,9.386,7.975c3.071,2.113,2.263,6.257-1.209,7.713C1277.886,527.613,1275.752,527.299,1273.666,527.342z"/>
<path style="fill-rule:evenodd;clip-rule:evenodd;fill:#9EA095;" d="M1163.967,577.39c-6.261,4.397-10.531,3.396-13.105-2.862
	c-0.568-1.385-1.441-1.856-2.65-2.268c-5.618-1.908-8.441-6.133-8.83-11.777c-0.38-5.502,1.798-10.042,6.902-12.661
	c5.092-2.612,10.1-2.391,14.688,1.239c4.415,3.492,5.238,8.35,4.424,13.493c-0.733,4.63-3.513,7.87-7.974,9.56
	c-1.387,0.525-3.593,0.316-2.861,2.889c0.632,2.223,2.422,2.542,4.42,2.625C1160.498,577.69,1161.89,576.143,1163.967,577.39z
	 M1143.603,560.082c0.038,0.605-0.008,1.868,0.214,3.082c0.788,4.331,3.784,7.336,7.499,7.65c4.541,0.386,7.77-1.469,9.366-5.727
	c1.65-4.401,1.473-8.779-0.958-12.926c-1.821-3.105-5.484-4.564-8.97-3.613C1146.072,549.828,1143.665,553.498,1143.603,560.082z"/>
<path style="fill-rule:evenodd;clip-rule:evenodd;fill:#232323;" d="M1260.395,541.454c-1.641-0.183-3.491-0.401-5.345-0.591
	c-2.112-0.216-4.814-0.19-4.996-2.824c-0.198-2.852,1.392-5.52,4.343-6.274c3.152-0.807,6.402-1.63,9.725,0.2
	c2.269,1.251,4.856,0.189,7.296-0.223c2.076-0.349,4.167-0.646,6.263-0.827c1.695-0.146,3.602,0.247,4.004,1.979
	c0.347,1.495-0.778,2.858-2.174,3.935C1273.861,541.188,1267.117,540.701,1260.395,541.454z"/>
<path style="fill-rule:evenodd;clip-rule:evenodd;fill:#9EA095;" d="M1068.308,562.238c-1.367,3.459-2.392,6.123-3.479,8.762
	c-0.368,0.892-0.65,1.93-1.976,1.933c-1.394,0.004-1.479-1.114-1.827-2.009c-1.401-3.6-2.782-7.209-4.189-10.808
	c-0.361-0.926-0.804-1.82-1.186-2.738c-0.375-0.897-2.237-0.922-1.687-2.128c0.626-1.37,2.237-0.801,3.394-0.768
	c1.518,0.043,3.236-0.633,4.23,0.415c-3.459,5.195,1.225,8.861,2.373,13.242c1.034-2.548,2.171-5.06,3.063-7.657
	c0.546-1.594-0.279-2.925-1.611-3.843c-0.538-0.37-1.15-0.675-0.957-1.391c0.191-0.708,0.91-0.795,1.537-0.758
	c2.155,0.127,4.417-0.585,6.314,0.515c-4.07,5.205,1.536,8.727,1.373,13.927c4.319-6.769,4.9-11.192,2.094-13.549
	c1.868-1.604,4.034-0.795,6.029-0.839c0.899-0.02,1.527,0.85,0.82,1.484c-4.276,3.839-4.34,9.61-6.738,14.295
	c-0.171,0.333-0.296,0.688-0.447,1.031c-0.361,0.816-0.736,1.601-1.844,1.555c-1.07-0.043-1.467-0.779-1.795-1.631
	C1070.73,568.493,1069.65,565.713,1068.308,562.238z"/>
<path style="fill-rule:evenodd;clip-rule:evenodd;fill:#9EA095;" d="M1192.389,562.332c0.003,1.874-0.013,3.747,0.01,5.621
	c0.01,0.865-0.011,1.746,0.576,2.494c0.602,0.768,3.488,0.141,1.859,1.929c-0.983,1.079-4.508,1.666-5.154-0.4
	c-0.941-3.016-1.933-1.219-3.031-0.667c-1.916,0.964-3.862,1.758-6.063,1.652c-3.415-0.163-5.277-1.955-5.402-5.385
	c-0.101-2.745-0.048-5.495-0.047-8.243c0.001-1.318-0.122-2.521-1.74-2.866c-0.768-0.162-2.06,0.041-1.664-1.319
	c0.303-1.036,1.475-0.636,2.297-0.776c3.024-0.516,4.746,0.174,4.296,3.818c-0.318,2.582-0.019,5.238-0.063,7.859
	c-0.045,2.607,0.867,4.437,3.714,4.613c2.951,0.183,6.749-2.277,6.892-4.552c0.156-2.487,0.012-4.994,0.01-7.491
	c-0.001-1.31-0.48-2.149-1.934-2.199c-0.746-0.026-1.739-0.115-1.652-1.07c0.11-1.205,1.278-0.896,2.098-0.969
	c4.963-0.438,4.994-0.404,4.997,4.579C1192.387,560.084,1192.386,561.208,1192.389,562.332z"/>
<path style="fill-rule:evenodd;clip-rule:evenodd;fill:#9EA095;" d="M1121.954,571.785c-3.908,0.906-6.877,0.673-10.194,0.063
	c4.375-1.497,3.521-4.987,3.289-7.991c-0.201-2.631,2.067-6.547-3.261-7.471c2.418,0.297,4.2-4.76,6.823-0.168
	c0.498,0.873,1.541-0.284,2.25-0.626c6.766-3.269,10.652-0.923,10.713,6.515c0.01,1.249-0.029,2.498-0.012,3.746
	c0.032,2.361-0.709,5.093,3.104,5.797c-3.335,1.035-6.304,1.277-9.388,0.351c2.393-2.245,3.854-10.062,2.564-13.351
	c-0.652-1.663-2.082-2.271-3.617-1.975c-2.419,0.467-5.31,0.916-5.827,3.84c-0.473,2.663-0.046,5.478-0.13,8.222
	C1118.209,570.694,1120.174,570.614,1121.954,571.785z"/>
<path style="fill-rule:evenodd;clip-rule:evenodd;fill:#9EA095;" d="M1107.77,571.654c-2.268,1.697-4.142,1.766-5.025,0.85
	c-2.293-2.379-4.262-1.26-6.477-0.176c-1.739,0.852-3.614,0.936-5.456,0.293c-1.871-0.651-3.28-1.705-3.442-3.94
	c-0.154-2.15,0.76-3.582,2.602-4.533c2.026-1.046,4.244-1.322,6.45-1.728c1.529-0.281,3.754,0.244,3.832-2.46
	c0.054-1.873-0.759-3.142-2.534-3.674c-2.088-0.625-3.945-0.231-5.277,1.639c-0.778,1.093-0.335,3.256-2.617,3.009
	c-0.868-0.095-1.354-0.779-1.361-1.547c-0.018-1.973,1.211-3.132,2.834-4.034c6.643-3.694,12.313-0.498,12.46,7.058
	c0.032,1.621,0.036,3.244,0.007,4.865C1103.723,569.557,1103.929,571.644,1107.77,571.654z M1097.871,563.951
	c-2.683,0.819-6.402,0.174-7.146,4.035c-0.361,1.878,1.396,2.721,3.228,2.754c2.899,0.051,6.244-2.396,6.331-4.497
	C1100.354,564.502,1099.789,563.598,1097.871,563.951z"/>
<path style="fill-rule:evenodd;clip-rule:evenodd;fill:#57A442;" d="M1132.592,341.272c-2.567,0.339-4.874-0.533-7.202-1.451
	c-5.857-2.309-12.014-1.587-18.067-1.523c-8.258,0.085-15.483-3.334-22.871-6.263c-0.809-0.32-0.677-1.245-0.715-1.984
	c3.004,0.623,5.767,1.74,8.592,3.028c4.013,1.83,8.492,3.046,12.882,3.535c5.286,0.588,10.716,0.465,16.032,0.03
	c3.814-0.313,7.713-1.25,10.538-4.354l0.009-0.008c0.516-0.02,1.033-0.039,1.55-0.058
	C1134.35,335.345,1133.516,338.313,1132.592,341.272z"/>
<path style="fill-rule:evenodd;clip-rule:evenodd;fill:#57A442;" d="M975.851,322.727c-0.343-1.52,0.222-2.754,1.419-3.594
	c3.657-2.563,5.221-7.299,9.624-9.124c1.073-0.445,0.97-1.945,1.307-2.983c0.108-0.335-0.212-0.985-0.534-1.246
	c-0.605-0.489-1.061-0.069-1.523,0.453c-1.747,1.973-3.766,3.498-6.563,3.56c6.141-6.021,12.526-11.731,20.146-15.877
	c-1.334,3.317-3.551,6.238-4.392,9.777c-0.041,0.792-0.081,1.583-0.12,2.373c-1.486-0.17-2.169,1.09-3.104,1.823
	C986.318,312.426,981.195,317.698,975.851,322.727z"/>
<path style="fill-rule:evenodd;clip-rule:evenodd;fill:#57A442;" d="M1088.264,288.726c-0.942,2.434-2.75,4.219-4.521,6.032
	c-1.343-1.362,0.145-2.223,0.639-3.193c0.396-0.776,1.206-1.547,0.467-2.317c-0.849-0.885-2.174-0.682-3.172-0.309
	c-1.271,0.474-0.351,1.437-0.111,2.183c0.255,0.795,0.943,1.785-0.484,2.007c-1.138,0.177-2.653,0.658-3.183-0.971
	c-0.395-1.208-0.773-2.13-2.248-1.743c-0.816,0.214-1.2,0.953-1.308,1.667c-0.257,1.693,1.956,0.671,2.272,2.226
	c-2.582,0.704-5.518,0.305-7.861,1.937c0.022-1.445,1.211-2.036,2.033-2.956c3.205-3.584,6.521-7.129,7.715-12.016
	c0.96-0.698,0.778-1.727,0.781-2.701C1079.636,284.29,1085.763,284.905,1088.264,288.726z"/>
<path style="fill-rule:evenodd;clip-rule:evenodd;fill:#57A442;" d="M1290.746,322.503c0,1.582,0,3.165,0,4.747
	c-0.423,0.147-0.846,0.296-1.27,0.443c1.068-4.336-3.548-5.461-3.982-8.949c0.254-0.199,1.023,0.347,0.796-0.55
	c-0.262,0.187-0.524,0.374-0.786,0.562c-1.487,0.248-2.974,0.495-4.461,0.743c-0.264-0.25-0.527-0.501-0.791-0.75l0.223-0.237
	c2.688,0.018,4.449-1.504,2.202-3.475c-2.677-2.347-4.438-6.044-7.954-7.001c-1.699-0.462-1.725-1.895-2.596-2.514
	c-1.183,1.371-0.165,2.804-0.69,4.081c-0.146,0.12-0.29,0.239-0.436,0.36c-1.322-2.173-1.323-2.416,0.087-8.383
	c7.649,6.01,14.818,12.126,20.563,19.774c-0.3,0.381-0.6,0.763-0.899,1.144c-0.265-0.188-0.53-0.377-0.795-0.566
	c-0.063,0.096-0.125,0.191-0.188,0.287C1290.095,322.313,1290.42,322.408,1290.746,322.503z"/>
<path style="fill-rule:evenodd;clip-rule:evenodd;fill:#3C9923;" d="M1175.151,367.863c1.902,1.648,3.976,3.217,2.967,6.249
	c0.253,1.94-4.045,4.752,1.124,5.8c0.406,0.083,0.933,1.079,0.422,1.54c-0.644,0.58-1.285,1.899-2.39,1.108
	c-1.355-0.973-2.802-0.734-4.249-0.817c-1.205-1.117-1.812-2.625-2.033-4.132c-0.244-1.657-1.242-1.817-2.479-1.921
	c-0.138-2.541,1.23-4.932,0.752-7.508C1171.227,368.076,1173.189,367.97,1175.151,367.863z M1169.894,371.098
	c3.292-0.174,1.207,2.257,2.197,2.744c1.556,0.764,3.62,0.886,2.869-1.811C1174.39,369.98,1172.476,369.982,1169.894,371.098z"/>
<path style="fill-rule:evenodd;clip-rule:evenodd;fill:#3C9923;" d="M1428.074,465.718c1.844,0.018,3.688,0.058,5.531,0.046
	c1.064-0.008,2.32,0.289,2.618-1.3c8.764,1.987,17.526,3.976,26.29,5.963c0.486,0.478,0.972,0.954,1.458,1.432
	c-0.998-0.095-1.995-0.19-2.993-0.285c-1.934-0.819-3.896-1.503-6.051-1.286C1445.977,468.765,1437.025,467.241,1428.074,465.718z"
	/>
<path style="fill-rule:evenodd;clip-rule:evenodd;fill:#57A442;" d="M1173.025,381.743c1.447,0.083,2.894-0.156,4.249,0.817
	c1.104,0.792,1.746-0.528,2.39-1.108c0.511-0.461-0.016-1.457-0.422-1.54c-5.169-1.048-0.871-3.859-1.124-5.8
	c-0.001-0.001,0.239,0.239,0.239,0.239c-0.151,1.666,0.68,2.899,1.873,3.874c1.319,1.078,2.222,0.776,2.44-1.003
	c1.858-0.422,2.319,0.923,2.813,2.227c0.188,0.076,0.294,0.214,0.316,0.416c0.231,0.106,0.462,0.212,0.693,0.318
	c3.509,1.323,7.018,2.646,10.526,3.97c-0.563,0.869-2.332,0.367-2.248,1.974c-3.852-0.746-7.013-3.716-11.174-3.466
	c-0.924-1.47-2.496-0.436-2.766,0c-1.245,2.013-3.095,1.138-4.708,1.359C1175.414,382.82,1173.042,383.885,1173.025,381.743z"/>
<path style="fill-rule:evenodd;clip-rule:evenodd;fill:#3C9923;" d="M1308.197,369.66c3.033,7.414,2.172,15.178,1.981,22.868
	c-0.022,0.9-0.714,1.784-1.095,2.676c0.842-8.033-0.175-15.981-1.097-23.934C1308.058,370.733,1308.127,370.197,1308.197,369.66z"/>
<path style="fill-rule:evenodd;clip-rule:evenodd;fill:#3C9923;" d="M943.646,413.23c2.591,1.393,2.881,4.223,3.424,6.523
	c0.616,2.614,0.441,5.373,2.134,7.742c0.5,0.699-0.182,1.376-1.023,1.605C946.044,423.989,944.608,418.678,943.646,413.23z"/>
<path style="fill-rule:evenodd;clip-rule:evenodd;fill:#3C9923;" d="M1157.915,425.336c0.872,0.123,2.14-0.652,2.471,0.678
	c0.175,0.703,0.094,1.893-0.913,2.225c-1.128,0.372-1.896,2.555-3.011,1.498c-2.946-2.797-6.369-0.951-9.517-1.465
	c-1.436-0.233-3.04,0.227-3.942-1.418c4.596,0.248,9.193,0.462,13.786,0.758C1159.151,427.764,1158.969,426.801,1157.915,425.336z"
	/>
<path style="fill-rule:evenodd;clip-rule:evenodd;fill:#57A442;" d="M1280.252,318.748c-3.083-2.929-6.168-5.858-9.251-8.787
	c0.146-0.12,0.29-0.239,0.435-0.358c4.895,1.06,7.607,4.334,9.039,8.909L1280.252,318.748z"/>
<path style="fill-rule:evenodd;clip-rule:evenodd;fill:#57A442;" d="M1169.265,368.183c0.479,2.576-0.89,4.967-0.752,7.508
	c-2.214-1.573-3.079-4.034-2.904-6.414C1165.73,367.62,1167.757,367.705,1169.265,368.183z"/>
<path style="fill-rule:evenodd;clip-rule:evenodd;fill:#3C9923;" d="M802.52,467.398c1.142,2.732,3.532,0.615,5.191,1.338
	c-4.144,1.001-8.303,1.832-12.614,1.349C797.358,468.444,799.949,467.952,802.52,467.398z"/>
<path style="fill-rule:evenodd;clip-rule:evenodd;fill:#57A442;" d="M1302.601,353.325c2.284,1.912,3.497,4.415,3.845,7.315
	c0.179,1.479,0.091,2.989,0.123,4.485C1305.245,361.191,1303.924,357.259,1302.601,353.325z"/>
<path style="fill-rule:evenodd;clip-rule:evenodd;fill:#57A442;" d="M1175.269,387.338c-4.109,0.885-8.255-0.101-12.375,0.237
	C1166.978,385.37,1171.135,387.01,1175.269,387.338z"/>
<path style="fill-rule:evenodd;clip-rule:evenodd;fill:#57A442;" d="M1213.891,395.055c-1.295,0.046-2.826,0.818-3.798-0.357
	c-1.313-1.588,1.087-2.441,1.108-3.844C1212.521,391.983,1213.217,393.513,1213.891,395.055z"/>
<path style="fill-rule:evenodd;clip-rule:evenodd;fill:#57A442;" d="M1293.753,336.003c3.129,1.317,3.938,3.979,4.069,7.032
	C1296.465,340.691,1295.108,338.348,1293.753,336.003z"/>
<path style="fill-rule:evenodd;clip-rule:evenodd;fill:#57A442;" d="M971.059,318.322c2.955,0.418,2.295,2.508,2.314,4.946
	c-1.695-1.168-2.015-3.367-4.021-3.166C969.659,319.259,970.268,318.704,971.059,318.322z"/>
<path style="fill-rule:evenodd;clip-rule:evenodd;fill:#57A442;" d="M1463.972,471.858c-0.486-0.478-0.972-0.954-1.458-1.432
	c1.931,0.463,3.862,0.925,6.675,1.599C1466.75,472.984,1465.34,472.771,1463.972,471.858z"/>
<path style="fill-rule:evenodd;clip-rule:evenodd;fill:#3C9923;" d="M1157.996,422.247c-0.025,1.03-0.052,2.062-0.078,3.093
	c-1.861-1.021-2.79-2.786-3.664-4.594c0,0,0.221-0.201,0.219-0.2c1.208,0.506,1.867,2.146,3.531,1.707L1157.996,422.247z"/>
<path style="fill-rule:evenodd;clip-rule:evenodd;fill:#3C9923;" d="M949.538,434.331c-1.582,2.821-4.157,0.928-6.253,1.317
	C945.235,434.571,947.471,434.849,949.538,434.331z"/>
<path style="fill-rule:evenodd;clip-rule:evenodd;fill:#57A442;" d="M1301.145,333.801c-2.023-0.746-3.077-2.156-2.986-4.352
	C1299.594,330.598,1300.436,332.153,1301.145,333.801z"/>
<path style="fill-rule:evenodd;clip-rule:evenodd;fill:#57A442;" d="M1303.713,338.052c-2.892-0.152-2.208-2.467-2.53-4.175
	C1302.344,335.076,1303.271,336.417,1303.713,338.052z"/>
<path style="fill-rule:evenodd;clip-rule:evenodd;fill:#57A442;" d="M1308.197,369.66c-0.07,0.537-0.14,1.073-0.21,1.61
	c-0.94-1.912-1.134-3.996-1.396-6.064c0.455,0.028,0.908,0.057,1.363,0.085C1308.035,366.748,1308.115,368.204,1308.197,369.66z"/>
<path style="fill-rule:evenodd;clip-rule:evenodd;fill:#57A442;" d="M1454.928,470.287c2.154-0.217,4.117,0.467,6.051,1.286
	C1458.909,471.394,1456.853,471.15,1454.928,470.287z"/>
<path style="fill-rule:evenodd;clip-rule:evenodd;fill:#57A442;" d="M968.098,321.599c0.432,2.238-0.566,3.231-2.768,3.174
	C965.924,323.429,966.947,322.458,968.098,321.599z"/>
<path style="fill-rule:evenodd;clip-rule:evenodd;fill:#57A442;" d="M1284.525,323.361c2.202-0.147,2.525,1.242,2.432,2.973
	C1285.729,325.685,1285.014,324.616,1284.525,323.361z"/>
<path style="fill-rule:evenodd;clip-rule:evenodd;fill:#57A442;" d="M1290.463,331.074c2.432-0.396,2.748,0.68,1.826,2.621
	C1291.407,333.012,1290.748,332.173,1290.463,331.074z"/>
<path style="fill-rule:evenodd;clip-rule:evenodd;fill:#57A442;" d="M1176.078,384.76c1.513,0.688,1.513,0.688-0.209,2.215
	C1175.938,386.236,1176.008,385.498,1176.078,384.76z"/>
<path style="fill-rule:evenodd;clip-rule:evenodd;fill:#57A442;" d="M1297.856,343.112c1.896,0.46,1.863,1.961,1.862,3.446
	C1299.098,345.409,1298.478,344.26,1297.856,343.112z"/>
<path style="fill-rule:evenodd;clip-rule:evenodd;fill:#3DAB38;" d="M948.203,351.573c0.32,0.304,0.95,0.666,0.905,0.9
	c-0.178,0.936-1.057,0.69-1.722,0.773C947.659,352.689,947.932,352.131,948.203,351.573z"/>
<path style="fill-rule:evenodd;clip-rule:evenodd;fill:#57A442;" d="M1293.84,323.934c-1.477,0.082-1.658-0.878-1.622-2.013
	C1292.98,322.411,1293.649,322.979,1293.84,323.934z"/>
<path style="fill-rule:evenodd;clip-rule:evenodd;fill:#57A442;" d="M1161.772,387.875c-0.181,1.529-1.292,1.396-2.368,1.326
	C1160.032,388.47,1160.727,387.856,1161.772,387.875z"/>
<path style="fill-rule:evenodd;clip-rule:evenodd;fill:#57A442;" d="M1304.822,339.778c-1.027-0.153-1.33-0.774-1.117-1.729
	C1304.484,338.362,1304.717,339.028,1304.822,339.778z"/>
<path style="fill-rule:evenodd;clip-rule:evenodd;fill:#57A442;" d="M977.481,311.784c0.442,0.165,0.886,0.331,1.329,0.496
	c-0.64,0.85-1.542,0.351-2.327,0.456C976.621,312.214,976.917,311.858,977.481,311.784z"/>
<path style="fill-rule:evenodd;clip-rule:evenodd;fill:#3C9923;" d="M1315.63,396.482c-0.35-0.651-0.114-1.055,0.541-1.281
	C1316.599,395.886,1316.374,396.294,1315.63,396.482z"/>
<path style="fill-rule:evenodd;clip-rule:evenodd;fill:#3C9923;" d="M948.46,429.765c1.391,0.563,1.015,1.805,1.104,2.867
	C948.755,431.846,948.534,430.833,948.46,429.765z"/>
<path style="fill-rule:evenodd;clip-rule:evenodd;fill:#79BA3F;" d="M1133.339,332.225c-0.517,0.019-1.034,0.038-1.55,0.058
	c-0.035-1.012,0.473-1.505,1.465-1.536C1133.282,331.24,1133.311,331.732,1133.339,332.225z"/>
<path style="fill-rule:evenodd;clip-rule:evenodd;fill:#3C9923;" d="M949.585,432.711c0.554,0.115,1.229,0.22,1.056,0.965
	c-0.064,0.272-0.687,0.414-1.055,0.616C949.586,433.766,949.585,433.238,949.585,432.711z"/>
<path style="fill-rule:evenodd;clip-rule:evenodd;fill:#57A442;" d="M1289.177,329.289c1.164,0.035,1.636,0.569,1.244,1.726
	C1289.738,330.632,1289.353,330.036,1289.177,329.289z"/>
<path style="fill-rule:evenodd;clip-rule:evenodd;fill:#57A442;" d="M1296.799,327.716c-1.109-0.009-1.566-0.556-1.359-1.649
	C1296.221,326.347,1296.666,326.902,1296.799,327.716z"/>
<path style="fill-rule:evenodd;clip-rule:evenodd;fill:#57A442;" d="M973.485,315.722c0.028,1.006-0.465,1.515-1.466,1.542
	C972.295,316.548,972.703,315.957,973.485,315.722z"/>
<path style="fill-rule:evenodd;clip-rule:evenodd;fill:#57A442;" d="M1298.054,329.336c-0.96-0.127-1.332-0.711-1.267-1.634
	C1297.529,327.999,1297.866,328.609,1298.054,329.336z"/>
<path style="fill-rule:evenodd;clip-rule:evenodd;fill:#57A442;" d="M979.538,309.823c-0.05,0.959-0.563,1.433-1.515,1.45
	C978.281,310.532,978.764,310.025,979.538,309.823z"/>
<path style="fill-rule:evenodd;clip-rule:evenodd;fill:#57A442;" d="M974.995,314.246c0.004,1.02-0.507,1.514-1.522,1.489
	C973.701,314.954,974.183,314.432,974.995,314.246z"/>
<path style="fill-rule:evenodd;clip-rule:evenodd;fill:#57A442;" d="M969.017,320.422c-0.031,0.629-0.243,1.117-0.95,1.22
	C968.124,321.033,968.475,320.653,969.017,320.422z"/>
<path style="fill-rule:evenodd;clip-rule:evenodd;fill:#57A442;" d="M1283.062,321.835c0.685,0.066,0.957,0.493,0.989,1.129
	C1283.462,322.815,1283.16,322.413,1283.062,321.835z"/>
<path style="fill-rule:evenodd;clip-rule:evenodd;fill:#3C9923;" d="M942.753,407.998c0.692,0.418,0.854,0.901,0.186,1.488
	C942.877,408.99,942.814,408.494,942.753,407.998z"/>
<path style="fill-rule:evenodd;clip-rule:evenodd;fill:#57A442;" d="M1295.459,326.09c-0.817-0.089-0.962-0.662-0.961-1.338
	C1295.09,325.003,1295.375,325.475,1295.459,326.09z"/>
<path style="fill-rule:evenodd;clip-rule:evenodd;fill:#57A442;" d="M975.727,313.46c-0.243,0.261-0.486,0.523-0.73,0.785
	C975.24,313.983,975.483,313.722,975.727,313.46z"/>
<path style="fill-rule:evenodd;clip-rule:evenodd;fill:#57A442;" d="M976.488,312.731c-0.259,0.249-0.518,0.499-0.777,0.748
	C975.971,313.23,976.229,312.98,976.488,312.731z"/>
<path style="fill-rule:evenodd;clip-rule:evenodd;fill:#3C9923;" d="M943.471,412.001c0.122,0.14,0.135,0.29,0.038,0.448
	l-0.182-0.219L943.471,412.001z"/>
<path style="fill-rule:evenodd;clip-rule:evenodd;fill:#57A442;" d="M972.012,317.271c-0.239,0.249-0.479,0.498-0.719,0.747
	C971.532,317.769,971.772,317.52,972.012,317.271z"/>
<path style="fill-rule:evenodd;clip-rule:evenodd;fill:#57A442;" d="M1000.461,293.084c-0.261,0.3-0.521,0.601-0.78,0.902
	C999.606,293.397,1000.006,293.217,1000.461,293.084z"/>
<path style="fill-rule:evenodd;clip-rule:evenodd;fill:#57A442;" d="M1292.311,333.731c0.203,0.292,0.406,0.584,0.609,0.875
	C1292.717,334.315,1292.514,334.024,1292.311,333.731z"/>
<path style="fill-rule:evenodd;clip-rule:evenodd;fill:#57A442;" d="M1210.618,389.873c-0.174-0.153-0.181-0.313-0.022-0.481
	C1210.729,389.547,1210.735,389.707,1210.618,389.873z"/>
<path style="fill-rule:evenodd;clip-rule:evenodd;fill:#57A442;" d="M1294.498,324.751c-0.228-0.281-0.454-0.563-0.682-0.845
	C1294.044,324.188,1294.271,324.47,1294.498,324.751z"/>
<path style="fill-rule:evenodd;clip-rule:evenodd;fill:#8B5743;" d="M1114.966,366.271c-0.043,0.244-0.174,0.422-0.392,0.534
	l-0.083-0.064c0.21-0.244,0.421-0.488,0.631-0.732L1114.966,366.271z"/>
<path style="fill-rule:evenodd;clip-rule:evenodd;fill:#57A442;" d="M965.126,325.081c-0.026,0.582-0.308,0.956-0.886,1.089
	C964.535,325.808,964.831,325.444,965.126,325.081z"/>
<path style="fill-rule:evenodd;clip-rule:evenodd;fill:#57A442;" d="M1215.001,395.403c-0.317,0.405-0.562,0.328-0.753-0.114
	C1214.5,395.328,1214.75,395.365,1215.001,395.403z"/>
<path style="fill-rule:evenodd;clip-rule:evenodd;fill:#57A442;" d="M1292.89,334.561c0.484,0.186,0.714,0.537,0.685,1.057
	C1293.346,335.266,1293.118,334.913,1292.89,334.561z"/>
<path style="fill-rule:evenodd;clip-rule:evenodd;fill:#8B5743;" d="M1027.35,425.272c1.992-5.912,2.658-12.152,4.407-18.111
	c2.362-8.052,2.14-16.4,3.279-24.585c0.901-6.476-1.359-11.441-5.987-15.628c-4.98-4.505-7.907-10.186-9.62-16.576
	c-0.128-0.475-0.135-0.982-0.198-1.477c2.172,1.881,4.041,4.005,5.299,6.62c1.414,2.825,3.624,5.041,5.726,7.32
	c1.253,1.36,2.88,3.656,4.343,3.11c1.789-0.67,0.443-3.321,0.717-5.085c2.195,0.028,4.288-0.155,6.479,0.967
	c1.769,0.906,4.32,1.008,6.146-0.033c2.06-1.176,3.63-1.037,5.479,0.146c0.804,0.515,2.098,1.188,2.731,0.882
	c2.88-1.386,3.855,0.828,5.226,2.398c-3.322,6.218-6.136,12.729-5.947,19.844c0.293,11.09,0.439,22.225,2.234,33.212
	c0.31,1.893-0.362,4.341,1.927,5.636c-0.054,7.253-0.054,7.271-7.182,7.298c-6.711,0.024-13.422-0.001-20.132,0.01
	C1026.212,431.229,1026.212,431.237,1027.35,425.272z"/>
<path style="fill-rule:evenodd;clip-rule:evenodd;fill:#3C9923;" d="M1186.51,387.745c3.242,4.522,6.485,9.045,9.728,13.567
	c0.012,0.227,0.017,0.453,0.016,0.68c-1.881,0.299-0.529,0.973-0.259,1.666c0.854,2.189,3.963,3.371,2.875,6.418
	c-5.591-6.637-9.717-14.298-14.877-21.235C1184.521,387.763,1185.496,387.708,1186.51,387.745z"/>
<path style="fill-rule:evenodd;clip-rule:evenodd;fill:#57A442;" d="M1217.54,401.606c1.327,1.673,2.08,3.629,2.766,5.617
	c-1.667,1.378-3.831,2.469-3.048,5.266l-0.014,0.018c-0.543,0.264-1.087,0.527-1.631,0.791c-1.448-0.833-2.156-2.773-4.154-2.784
	c0.117-1.441,0.164-2.848-1.65-3.332c-0.055-0.93-0.544-1.434-1.478-1.5c0.003-0.453,0.006-0.905,0.011-1.356
	c1.197-0.248,2.395-0.496,3.592-0.746c0.136,0.089,0.271,0.179,0.405,0.269c-0.088-0.138-0.176-0.274-0.264-0.41
	c0.023-0.608,0.212-1.122,0.8-1.41c1.032,2.194,1.581,4.881,4.907,5.038c0.213-1.835-1.361-2.776-1.426-4.243
	C1216.75,402.418,1217.146,402.012,1217.54,401.606z"/>
<path style="fill-rule:evenodd;clip-rule:evenodd;fill:#3C9923;" d="M1187.532,402.553c1.662,4.9,1.837,9.779-0.196,14.629
	c0.716-2.385-1.342-4.039-1.633-6.209C1185.286,407.87,1187.551,405.484,1187.532,402.553z"/>
<path style="fill-rule:evenodd;clip-rule:evenodd;fill:#3C9923;" d="M1312.801,382.717c-1.279-2.549-1.343-4.581-0.328-8.73
	C1313.768,377.377,1313.16,380.051,1312.801,382.717z"/>
<path style="fill-rule:evenodd;clip-rule:evenodd;fill:#57A442;" d="M1210.602,420.588c2.435,0.259,4.87,0.518,7.306,0.775
	c0.272,0.568,0.546,1.137,0.819,1.705c-2.516-0.278-5.03-0.558-7.545-0.837C1210.473,421.866,1210.531,421.229,1210.602,420.588z"/>
<path style="fill-rule:evenodd;clip-rule:evenodd;fill:#3C9923;" d="M1216.496,429.749c2.001,0.479,4.002,0.313,6.003-0.003
	C1220.955,433.772,1220.434,433.772,1216.496,429.749z"/>
<path style="fill-rule:evenodd;clip-rule:evenodd;fill:#3C9923;" d="M946.558,412.777c-1.006-1.665-0.989-3.334-0.101-5.852
	C947.544,409.372,947.307,411.067,946.558,412.777z"/>
<path style="fill-rule:evenodd;clip-rule:evenodd;fill:#3C9923;" d="M948.784,400.443c0.893,2.198,0.767,4.554,1.054,6.846
	C948.19,405.207,947.407,402.991,948.784,400.443z"/>
<path style="fill-rule:evenodd;clip-rule:evenodd;fill:#3C9923;" d="M1202.398,400.421c0.207,0.132,0.419,0.257,0.621,0.396
	c0.826,0.568,2.361,0.383,2.178,2.024c-0.054,0.481-0.121,1.155-0.736,1.07c-1.398-0.195-2.034-1.198-2.224-2.53
	C1202.291,401.061,1202.345,400.741,1202.398,400.421z"/>
<path style="fill-rule:evenodd;clip-rule:evenodd;fill:#3C9923;" d="M1158.579,419.843c0.745,0.669,1.575,1.28,1.635,2.413
	c-0.739-0.003-1.478-0.006-2.218-0.009l0.008,0.006C1157.699,421.331,1155.867,420.045,1158.579,419.843z"/>
<path style="fill-rule:evenodd;clip-rule:evenodd;fill:#57A442;" d="M1196.253,401.992c0.001-0.227-0.004-0.453-0.016-0.68
	c1.498,0.081,2.997,0.162,4.493,0.244c-0.482,0.212-0.965,0.424-1.447,0.635c-0.521-0.031-1.043-0.063-1.564-0.094
	C1197.23,402.063,1196.741,402.027,1196.253,401.992z"/>
<path style="fill-rule:evenodd;clip-rule:evenodd;fill:#57A442;" d="M1202.398,400.421c-0.054,0.32-0.107,0.64-0.161,0.961
	c-0.241-0.013-0.478-0.054-0.709-0.121c-0.101-0.956-0.2-1.912-0.301-2.868c0.319-0.044,0.639-0.087,0.957-0.13
	C1202.255,398.981,1202.326,399.701,1202.398,400.421z"/>
<path style="fill-rule:evenodd;clip-rule:evenodd;fill:#57A442;" d="M1211.745,411.713c0.094,0.51,0.188,1.02,0.281,1.529
	c-0.391-0.204-1.021-0.333-1.114-0.631C1210.768,412.149,1211.232,411.809,1211.745,411.713z"/>
<path style="fill-rule:evenodd;clip-rule:evenodd;fill:#3C9923;" d="M1208.331,405.682c0.934,0.066,1.423,0.57,1.478,1.5
	C1208.75,407.24,1208.25,406.747,1208.331,405.682z"/>
<path style="fill-rule:evenodd;clip-rule:evenodd;fill:#3C9923;" d="M945.304,405.197c0.089-0.202,0.133-0.514,0.279-0.573
	c0.142-0.057,0.504,0.103,0.557,0.246c0.056,0.148-0.145,0.392-0.232,0.593C945.706,405.375,945.506,405.286,945.304,405.197z"/>
<path style="fill-rule:evenodd;clip-rule:evenodd;fill:#3C9923;" d="M1199.924,411.895c-0.59-0.383-0.868-0.943-0.912-1.632
	C1199.838,410.515,1200.033,411.119,1199.924,411.895z"/>
<path style="fill-rule:evenodd;clip-rule:evenodd;fill:#8B5743;" d="M1070.604,423.655c0.264-0.003,0.528-0.007,0.786-0.009
	C1071.125,423.65,1070.864,423.652,1070.604,423.655z"/>
<path style="fill-rule:evenodd;clip-rule:evenodd;fill:#3C9923;" d="M1197.719,402.098c0.521,0.031,1.043,0.063,1.564,0.094
	C1198.726,402.758,1198.203,402.75,1197.719,402.098z"/>
<path style="fill-rule:evenodd;clip-rule:evenodd;fill:#3C9923;" d="M1184.39,409.496c-0.001-0.248-0.003-0.496-0.004-0.744
	c0.083,0.175,0.188,0.344,0.235,0.527C1184.633,409.328,1184.471,409.422,1184.39,409.496z"/>
<path style="fill-rule:evenodd;clip-rule:evenodd;fill:#79BA3F;" d="M1078.502,281.271c-1.194,4.887-4.51,8.432-7.715,12.016
	c-0.822,0.92-2.011,1.511-2.033,2.956c-2.482,1.755-5.024,3.491-7.381,5.35c-4.573,3.609-9.965,5.214-15.135,7.414
	c-0.964-1.186-2.494-1.069-3.455-0.658c-3.964,1.699-8.43,1.657-12.267,3.694c-5.253,1.898-10.511-0.589-15.766,0.01
	c-4.685-0.736-9.032-2.786-13.637-3.649c-2.261-0.423-3.503-2.791-5.92-2.385c0,0,0.02,0.047,0.02,0.048
	c0.039-0.79,0.079-1.581,0.12-2.373c7.919,0.527,15.02-2.577,22.243-5.07c13.231-4.568,26.425-9.25,39.651-13.831
	c4.218-1.46,8.475-2.817,12.753-4.09c1.55-0.461,2.619-1.246,3.383-2.657c0.61-1.127,0.874-2.963,2.684-2.587
	c1.507,0.313,1.688,2.03,2.193,3.241C1078.559,279.46,1078.431,280.407,1078.502,281.271z"/>
<path style="fill-rule:evenodd;clip-rule:evenodd;fill:#79BA3F;" d="M1131.78,332.291c-2.825,3.104-6.724,4.041-10.538,4.354
	c-5.316,0.435-10.746,0.558-16.032-0.03c-4.39-0.489-8.869-1.706-12.882-3.535c-2.825-1.288-5.588-2.405-8.592-3.028
	c-0.311-0.645-0.894-0.766-1.525-0.791c-1.069-2.376-3.232-3.483-5.406-4.49c-2.378-1.102-4.318-2.33-5.52-4.982
	c-0.902-1.992-1.67-4.469-4.065-5.528c0.586-2.011-1.331-4.607,1.427-6.112c-0.506,3.73,1.034,4.866,4.806,4.721
	c4.112-0.157,8.114,1.618,11.649,3.438c7.105,3.66,14.763,5.557,22.186,8.208c7.039,2.514,14.839,2.748,21.26,7.162
	C1129.373,332.247,1130.69,332.104,1131.78,332.291z"/>
<path style="fill-rule:evenodd;clip-rule:evenodd;fill:#57A442;" d="M995.194,306.019c2.417-0.405,3.659,1.962,5.92,2.385
	c4.604,0.863,8.952,2.913,13.637,3.649c-0.104,1.303-0.794,2.23-2.102,2.134c-3.784-0.281-6.96,1.372-10.297,2.75
	c-1.76,0.727-3.845,0.895-5.818,0.277c-0.001,0-0.255-0.197-0.255-0.197s0.047-0.318,0.049-0.319c1.455-1.085,1.679-1.95-0.426-2.4
	C994.699,311.62,995.211,308.797,995.194,306.019z"/>
<path style="fill-rule:evenodd;clip-rule:evenodd;fill:#57A442;" d="M1067.22,314.261c2.396,1.059,3.163,3.536,4.065,5.528
	c1.201,2.652,3.142,3.88,5.52,4.982c2.174,1.007,4.337,2.114,5.406,4.49c-5.354-2.569-10.795-4.973-16.028-7.766
	C1062.719,319.646,1063.117,317.586,1067.22,314.261z"/>
<path style="fill-rule:evenodd;clip-rule:evenodd;fill:#57A442;" d="M1030.517,312.042c3.837-2.038,8.303-1.996,12.267-3.694
	c0.961-0.412,2.491-0.528,3.455,0.658c-3.923,2.616-8.844,1.729-12.981,3.675C1032.477,313.048,1031.259,312.992,1030.517,312.042z"
	/>
<path style="fill-rule:evenodd;clip-rule:evenodd;fill:#57A442;" d="M1083.441,296.956c-0.07,0.754-0.685,0.675-1.184,0.771
	C1082.652,297.47,1083.047,297.213,1083.441,296.956z"/>
<path style="fill-rule:evenodd;clip-rule:evenodd;fill:#0CA03F;" d="M1074.582,366.788c-0.602-0.696-1.012-2.139-2.186-1.435
	c-3.756,2.253-7.364,0.855-11.021-0.132c-1.369-1.571-2.345-3.785-5.225-2.399c-0.634,0.305-1.928-0.368-2.731-0.882
	c-1.85-1.184-3.42-1.322-5.479-0.146c-1.826,1.041-4.378,0.939-6.146,0.033c-2.19-1.122-4.283-0.938-6.479-0.967
	c-3.596-1.783-7.189-3.564-10.784-5.345c-1.258-2.615-3.127-4.738-5.299-6.62c-2.244-1.759-4.55,1.67-6.793-0.08
	c1.64-3.324,5.241-4.242,8.756-2.214c0.594,0.342,1.021,1.341,1.852,0.717c0.855-0.644,0.136-1.211-0.26-1.857
	c-0.983-1.606-0.521-2.715,1.438-2.666c2.014,0.05,3.621-0.9,5.236-1.794c4.837-2.678,10.783-1.66,15.533-4.816
	c1.238-0.823,2.711,0.338,2.707,2.081c-0.005,2.302,1.359,2.51,3.242,3.12c9.812,3.178,19.541,6.616,29.232,10.149
	c2.227,0.812,4.27,1.766,6.756,1.786c4.095,0.033,7.308,2.486,10.842,4.25c4.047,2.021,8.745,2.599,13.039,4.252
	c2.174,0.838,3.697,1.936,4.313,4.186c-0.211,0.245-0.422,0.489-0.632,0.733c-1.78,1.871-3.884,3.449-5.22,5.726
	c-2.715,0.504-4.795,2.361-7.26,3.397c-2.449-0.787-4.379,1.054-6.646,1.347c-2.924,0.377-5.273-1.993-8.152-1.313
	c-1.388-0.327-2.775-0.653-4.164-0.979c0,0-0.018,0.091-0.017,0.091c-0.158-0.079-0.222-0.205-0.188-0.379
	C1080.061,372.048,1078.035,368.666,1074.582,366.788z"/>
<path style="fill-rule:evenodd;clip-rule:evenodd;fill:#3DAB38;" d="M1008.697,346.601c-1.604-1.38-2.567-3.157-3.185-5.147
	C1008.48,341.99,1008.465,344.372,1008.697,346.601z"/>
<path style="fill-rule:evenodd;clip-rule:evenodd;fill:#3DAB38;" d="M1188.846,368.512c-0.955,2.183-2.025,4.26-4.56,5.004
	c-1.282,0.671-2.678,0.86-4.095,0.955c-0.203,0.002-0.346-0.089-0.432-0.272c-0.74-2.537,2.365-3.634,2.225-5.947l0.024-0.015
	c4.917-1.586,7.296-5.393,8.719-10.061c2.261,3.714,1.735,6.705-1.453,8.997C1188.969,367.393,1188.98,368.055,1188.846,368.512z"/>
<path style="fill-rule:evenodd;clip-rule:evenodd;fill:#57A442;" d="M1205.078,381.184c-0.454,0.19-0.747,0.416-1.037,0.413
	c-0.547-0.006-0.854-0.379-0.57-0.885c0.113-0.202,0.611-0.314,0.891-0.256C1204.6,380.506,1204.774,380.858,1205.078,381.184z"/>
<path style="fill-rule:evenodd;clip-rule:evenodd;fill:#57A442;" d="M1196.943,387.113c-0.628-0.043-1.166-0.249-1.502-0.824
	C1196.346,385.83,1197.067,385.701,1196.943,387.113z"/>
<path style="fill-rule:evenodd;clip-rule:evenodd;fill:#57A442;" d="M1197.844,383.252c0.17-0.346,0.34-0.692,0.51-1.038
	C1198.184,382.56,1198.014,382.906,1197.844,383.252z"/>
<path style="fill-rule:evenodd;clip-rule:evenodd;fill:#3DAB38;" d="M952.501,352.814c-0.647-0.284-0.546-0.643-0.38-0.969
	c0.164-0.32,0.335-0.785,0.604-0.87c0.494-0.156,0.506,0.375,0.416,0.646C952.999,352.05,952.715,352.431,952.501,352.814z"/>
<path style="fill-rule:evenodd;clip-rule:evenodd;fill:#249009;" d="M1158.579,419.843c-2.712,0.202-0.88,1.488-0.575,2.41
	c-1.664,0.438-2.323-1.201-3.531-1.707c-0.072-0.485-0.299-1.007-0.191-1.446c0.326-1.321-1.719-3.114,0.335-3.888
	c1.696-0.639,0.599,2.181,2.04,2.374c0.241,0.033,0.481,0.073,0.722,0.109c0.161,0.271,0.321,0.541,0.481,0.812
	c-0.504,0.563-0.12,0.657,0.368,0.694C1158.345,419.415,1158.462,419.629,1158.579,419.843z"/>
<path style="fill-rule:evenodd;clip-rule:evenodd;fill:#A9D069;" d="M1174.248,399.194c-0.092,3.086-1.434,5.744-2.969,8.335
	C1171.446,404.479,1172.636,401.777,1174.248,399.194z"/>
<path style="fill-rule:evenodd;clip-rule:evenodd;fill:#57A442;" d="M1186.51,387.745c-1.014-0.037-1.988,0.018-2.518,1.096
	c-0.575-0.549-1.103-1.18-2.006-1.16c0.501-2.078,2.256-1.218,3.521-1.505C1185.842,386.698,1186.176,387.221,1186.51,387.745z"/>
<path style="fill-rule:evenodd;clip-rule:evenodd;fill:#57A442;" d="M1179.714,388.349c-0.154,0.255-0.301,0.819-0.651,1.011
	c-0.632,0.345-0.833-0.255-0.793-0.72c0.039-0.443,0.183-1.092,0.488-1.252C1179.279,387.114,1179.576,387.611,1179.714,388.349z"/>
<path style="fill-rule:evenodd;clip-rule:evenodd;fill:#A9D069;" d="M1174.748,398.352c-0.576-1.558,0.077-2.293,0.898-3.137
	C1176.441,396.633,1175.709,397.398,1174.748,398.352z"/>
<path style="fill-rule:evenodd;clip-rule:evenodd;fill:#57A442;" d="M1181.222,389.248c0.024,0.744,0.048,1.487,0.071,2.23
	C1180.152,390.771,1180.311,390.022,1181.222,389.248z"/>
<path style="fill-rule:evenodd;clip-rule:evenodd;fill:#57A442;" d="M1292.832,328.445c-0.033,0.088-0.066,0.175-0.1,0.262
	c-0.098-0.1-0.194-0.2-0.291-0.3c0.071-0.065,0.144-0.131,0.215-0.195C1292.715,328.29,1292.773,328.367,1292.832,328.445z"/>
<path style="fill-rule:evenodd;clip-rule:evenodd;fill:#57A442;" d="M975.353,323.358c-0.374,0.407-0.748,0.813-1.122,1.22
	C974.285,323.878,974.559,323.38,975.353,323.358z"/>
<path style="fill-rule:evenodd;clip-rule:evenodd;fill:#3C9923;" d="M1280.475,318.511c-1.432-4.575-4.145-7.849-9.039-8.909
	c0.526-1.277-0.491-2.71,0.691-4.081c0.871,0.619,0.896,2.052,2.596,2.514c3.517,0.957,5.277,4.654,7.954,7.001
	C1284.924,317.007,1283.162,318.529,1280.475,318.511z"/>
<path style="fill-rule:evenodd;clip-rule:evenodd;fill:#3C9923;" d="M1285.504,318.756c0.262-0.188,0.524-0.375,0.786-0.562
	c0.228,0.896-0.542,0.351-0.796,0.55L1285.504,318.756z"/>
<path style="fill-rule:evenodd;clip-rule:evenodd;fill:#3C9923;" d="M1290.746,322.503c-0.326-0.095-0.651-0.19-0.978-0.286
	c0.063-0.095,0.126-0.191,0.188-0.287c0.265,0.189,0.53,0.378,0.795,0.566L1290.746,322.503z"/>
<path style="fill-rule:evenodd;clip-rule:evenodd;fill:#57A442;" d="M1169.894,371.098c2.582-1.115,4.496-1.117,5.066,0.933
	c0.751,2.697-1.313,2.575-2.869,1.811C1171.101,373.355,1173.186,370.924,1169.894,371.098z"/>
<path style="fill-rule:evenodd;clip-rule:evenodd;fill:#79BA3F;" d="M1182.671,377.222c-0.827-0.917-1.653-1.835-2.479-2.752
	c1.417-0.094,2.813-0.283,4.095-0.954c2.13,1.629,1.586,3.798,1.198,5.935C1184.99,378.145,1184.529,376.8,1182.671,377.222z"/>
<path style="fill-rule:evenodd;clip-rule:evenodd;fill:#79BA3F;" d="M1185.8,379.865c0.232,0.106,0.464,0.212,0.694,0.319
	C1186.262,380.077,1186.031,379.971,1185.8,379.865z"/>
<path style="fill-rule:evenodd;clip-rule:evenodd;fill:#3DAB38;" d="M995.902,314.297c2.104,0.45,1.881,1.315,0.426,2.4
	C996.185,315.898,996.044,315.098,995.902,314.297z"/>
<path style="fill-rule:evenodd;clip-rule:evenodd;fill:#3C9923;" d="M1158.228,419.201c-0.488-0.037-0.872-0.131-0.368-0.694
	C1157.981,418.738,1158.104,418.97,1158.228,419.201z"/>
<path style="fill-rule:evenodd;clip-rule:evenodd;fill:#3C9923;" d="M1218.727,423.068c-0.273-0.568-0.547-1.137-0.819-1.705
	c-0.22-1.09,1.668-2.422-0.877-3.348c-1.523-0.555-1.278-3.005-1.417-4.718c0.544-0.264,1.088-0.527,1.631-0.791
	c0.259,1.468,1.173,1.897,2.236,0.958c1.064-0.939,1.997-0.253,2.993-0.213c0.685,0.967-0.808,2.136,0.286,3.063
	c-1.859-0.186-2.67,0.624-2.361,2.492c-0.046,1.178-0.065,2.356-0.146,3.532C1220.178,423.427,1219.767,423.939,1218.727,423.068z"
	/>
<path style="fill-rule:evenodd;clip-rule:evenodd;fill:#57A442;" d="M1222.474,413.252c-0.996-0.04-1.929-0.727-2.993,0.213
	c-1.063,0.939-1.978,0.51-2.236-0.958l0.014-0.018c1.354-2.488,4.171,0.065,5.744-1.668c2.906,1.628,4.352,4.922,3.09,7.564
	c-1.568,3.283-3.781,0.353-5.693,0.422c-0.309-1.868,0.502-2.678,2.361-2.492c0.671,0.228-0.028,2.237,1.406,1.257
	c0.974-0.665,0.687-2.033,0.402-3.037C1224.318,413.654,1224.03,412.254,1222.474,413.252z"/>
<path style="fill-rule:evenodd;clip-rule:evenodd;fill:#3C9923;" d="M1223.002,410.821c-1.573,1.733-4.391-0.82-5.744,1.668
	c-0.783-2.797,1.381-3.888,3.048-5.266C1221.204,408.423,1222.104,409.622,1223.002,410.821z"/>
<path style="fill-rule:evenodd;clip-rule:evenodd;fill:#3C9923;" d="M1212.075,403.438c0.088,0.136,0.176,0.272,0.264,0.41
	c-0.135-0.09-0.27-0.18-0.405-0.269C1211.934,403.58,1212.075,403.438,1212.075,403.438z"/>
</svg>
